<?xml version="1.0" encoding="UTF-8"?><svg id="b" xmlns="http://www.w3.org/2000/svg" width="473.028" height="243.665" viewBox="0 0 473.028 243.665"><defs><style>.h{fill:#3f88c9;}.i{fill:#bdbdbd;}.j{fill:#211715;}.k{fill:#6dbf6b;}.l{fill:#fff;}.m{fill:#a0a0a0;}.n{fill:#94d1e6;}.o{fill:#645d5c;}</style></defs><g id="c"><g id="d"><path class="l" d="M9.701,2.027c-3.277,0-5.873,0-7.701,0,0,6.5,0,191.712,0,197.933,28.843-.004,295.463-.248,334.847-.286.033-66.648.076-193.549.077-197.674-36.458.002-273.468.023-327.224.027Z"/><path class="j" d="M310.247,201.67s.008,0,.013,0v-4c-2.498.024-4.998.006-7.497.008-6.792.007-13.585.014-20.377.021-10.116.01-20.233.021-30.349.031-12.471.013-24.942.025-37.413.038-13.856.014-27.711.028-41.567.041-14.329.014-28.658.028-42.987.042-13.712.013-27.424.026-41.136.039-12.184.011-24.367.022-36.551.033-9.686.009-19.372.017-29.057.024-6.235.005-12.471.01-18.706.012-.873,0-1.746,0-2.618,0l2,2c0-7.146,0-14.293,0-21.439,0-15.465,0-30.929,0-46.394,0-18.463,0-36.926,0-55.39,0-16.142,0-32.285,0-48.427,0-8.502,0-17.005,0-25.507,0-.259,0-.517,0-.776l-2,2c5.2,0,10.4,0,15.601-.001,8.754,0,17.508-.001,26.262-.002,11.472,0,22.944-.002,34.416-.003,13.402-.001,26.804-.002,40.207-.003,14.365-.001,28.73-.002,43.094-.004,14.533-.001,29.066-.002,43.599-.004,13.909-.001,27.819-.002,41.728-.004,12.314-.001,24.628-.002,36.942-.003,9.932,0,19.864-.002,29.796-.002,6.722,0,13.444-.001,20.166-.002,1.038,0,2.076,0,3.114,0l-2-2c-.001,11.016-.013,22.032-.021,33.048-.015,21.822-.03,43.644-.045,65.466-.009,13.03-.018,26.061-.028,39.091-.002,2.574,3.998,2.578,4,0,.017-23.272.033-46.544.049-69.816.013-18.404.026-36.808.037-55.213.003-4.192.007-8.385.007-12.577C338.925.919,338.008,0,336.925,0c-5.806,0-11.613,0-17.419.001-9.227,0-18.453.001-27.68.002-11.815,0-23.629.002-35.444.003-13.615.001-27.23.002-40.845.003-14.446.001-28.892.002-43.337.004-14.484.001-28.967.002-43.451.004-13.729.001-27.457.002-41.186.003-12.003.001-24.007.002-36.01.003-9.491,0-18.982.002-28.472.002-6.147,0-12.295,0-18.442.001-.88,0-1.759,0-2.639,0C.919.028,0,.944,0,2.028c0,7.19,0,14.38,0,21.571,0,15.487,0,30.974,0,46.461,0,18.464,0,36.929,0,55.393,0,16.123,0,32.245,0,48.368,0,8.461,0,16.922,0,25.384,0,.252,0,.504,0,.757,0,1.081.916,2,2,2,5.243,0,10.485-.005,15.728-.009,8.933-.006,17.866-.014,26.799-.022,11.666-.01,23.333-.021,34.999-.031,13.43-.012,26.86-.025,40.29-.038,14.224-.014,28.448-.027,42.672-.041,14.104-.014,28.209-.028,42.313-.042,12.896-.013,25.792-.026,38.689-.039,10.777-.011,21.555-.022,32.332-.033,7.689-.008,15.377-.016,23.066-.024,3.631-.004,7.276.084,10.907-.012.155-.004.309,0,.464,0,2.575-.025,2.577-3.96,0-4-.004,0-.008,0-.013,0-2.574,0-2.578,3.999,0,4h0Z"/><g id="e"><path class="l" d="M84.945,120.452c.021,10.162.072,33.504.072,36.804,9.382-.018,20.665-.041,33.121-.067,0-4.57,0-39.42,0-41.401h-33.203c0,.291.003,2.037.009,4.664Z"/><path class="l" d="M140.443,101.164c-.004-3.562-.007-5.857-.007-6.128h33.203v62.031c-11.283.025-22.446.05-33.134.074,0-4.072-.045-41.093-.062-55.978Z"/><path class="h" d="M195.931,81.022c-.004-3.994-.007-6.494-.007-6.739h33.203v82.655c-10.685.024-21.847.05-33.122.078,0-5.237-.055-57.181-.074-75.994Z"/><path class="j" d="M87.017,157.268c-.001-12.08-.046-24.159-.071-36.239-.004-1.747-.01-3.495-.01-5.242l-2,2h33.203l-2-2v41.412c0,2.574,4,2.578,4,0v-41.412c0-1.081-.916-2-2-2h-33.203c-1.081,0-2,.916-2,2,.003,11.621.049,23.242.071,34.862.004,2.206.01,4.412.01,6.619,0,2.574,4,2.578,4,0h0Z"/><path class="j" d="M142.505,157.153c0-7.612-.015-15.224-.023-22.836-.012-10.54-.025-21.079-.037-31.619-.003-2.554-.008-5.108-.009-7.663l-2,2h33.203l-2-2v62.048c0,2.574,4,2.578,4,0v-62.048c0-1.081-.916-2-2-2h-33.203c-1.081,0-2,.916-2,2,0,6.764.015,13.527.023,20.291.013,10.778.026,21.556.037,32.333.003,3.164.008,6.329.009,9.493,0,2.574,4,2.578,4,0h0Z"/><path class="j" d="M198.005,157.026c0-10.105-.017-20.209-.027-30.314-.014-14.122-.029-28.245-.043-42.367-.003-3.354-.01-6.708-.01-10.061l-2,2h33.203l-2-2v82.662c0,2.574,4,2.578,4,0v-82.662c0-1.081-.916-2-2-2h-33.203c-1.081,0-2,.916-2,2,.001,8.942.018,17.883.027,26.825.015,14.448.03,28.896.043,43.344.004,4.191.01,8.383.01,12.574,0,2.574,4,2.578,4,0h0Z"/><path class="j" d="M253.297,154.768c-7.931,0-15.862.03-23.793.052-13.766.038-27.531.081-41.296.124-16.19.05-32.379.101-48.569.15-15.067.046-30.134.09-45.201.13-10.411.027-20.822.056-31.233.063-.808,0-1.617,0-2.425,0-2.574,0-2.578,4,0,4,9.661,0,19.323-.028,28.984-.052,14.65-.037,29.301-.08,43.951-.124,16.241-.049,32.482-.1,48.723-.15,14.281-.044,28.562-.089,42.842-.13,8.793-.025,17.587-.054,26.38-.063.546,0,1.092,0,1.638,0,2.574,0,2.578-4,0-4h0Z"/><path class="k" d="M233.867,44.836c-.132-.668-.697-1.108-1.434-1.324-2.133-.625-4.669-.717-7.594,0-4.765,1.169-7.596,4.059-8.434,4.983-3.688,4.066-3.461,9.316-3.316,10.752.023.229.187.411.434.477,1.733.462,8.86,1.953,14.528-1.895.994-.675,4.382-3.041,5.73-7.131.689-2.09.366-4.45.086-5.862Z"/><path class="j" d="M235.796,44.304c-.87-3.011-4.742-3.36-7.387-3.289-3.058.082-6.11.936-8.781,2.424-3.967,2.209-7.077,5.814-8.15,10.285-.407,1.695-.6,3.514-.434,5.256.234,2.467,2.289,2.847,4.307,3.135,4.874.695,10.055.073,14.143-2.861,1.973-1.416,3.723-3.143,4.965-5.247,1.791-3.034,1.988-6.306,1.337-9.703-.203-1.061-1.478-1.667-2.46-1.397-1.111.305-1.601,1.396-1.397,2.46.401,2.09.372,4.168-.636,6.086-.828,1.576-1.999,2.848-3.354,3.985-.097.081-.197.16-.297.238.339-.263-.069.046-.12.082-.164.114-.325.232-.491.343-.921.62-1.899,1.132-2.952,1.487-1.855.624-3.768.851-5.719.801-1.574-.04-2.401-.245-3.891-.488-.09-.015-.19-.067-.281-.069-.515-.009.715,1.683.836,1.038.038-.202-.031-.481-.037-.685-.021-.728.006-1.466.1-2.188.387-3.002,2.092-5.883,4.611-7.848,1.507-1.176,3.639-2.209,5.663-2.708,1.394-.344,2.808-.495,4.243-.409.576.034,1.134.118,1.696.252.197.047.395.118.592.157.498.098.138.274.037-.073.713,2.468,4.574,1.418,3.857-1.063Z"/><path class="k" d="M191.259,44.836c.132-.668.697-1.108,1.434-1.324,2.133-.625,4.669-.717,7.594,0,4.765,1.169,7.596,4.059,8.434,4.983,3.688,4.066,3.461,9.316,3.316,10.752-.023.229-.187.411-.434.477-1.733.462-8.86,1.953-14.528-1.895-.994-.675-4.382-3.041-5.73-7.131-.689-2.09-.366-4.45-.086-5.862Z"/><path class="j" d="M193.188,45.368c-.109.379-.477.126-.001.076.11-.012.227-.051.332-.084.427-.134.889-.215,1.333-.272,1.224-.159,2.515-.105,3.729.105,2.186.379,4.225,1.186,6.07,2.415,2.519,1.679,4.505,4.284,5.202,7.441.173.786.231,1.247.267,2.045.025.556-.126,1.239-.026,1.778.12.646,1.351-1.047.836-1.038-.091.002-.191.055-.281.069-.241.038-.481.108-.721.155-.848.166-1.105.199-1.915.265-3.757.31-7.297-.388-10.417-2.563-.002-.001-.404-.3-.185-.133.167.127-.333-.27-.387-.315-.346-.291-.681-.595-1.002-.914-.662-.657-1.249-1.359-1.742-2.151-1.34-2.152-1.562-4.414-1.089-6.878.203-1.06-.297-2.158-1.397-2.46-.978-.269-2.256.331-2.46,1.397-.581,3.029-.515,5.926.83,8.749.987,2.072,2.557,3.903,4.339,5.336,3.84,3.088,8.624,4.335,13.512,3.932,1.463-.121,4.038-.163,5.18-1.28,1.34-1.311.998-3.858.772-5.546-.623-4.65-3.177-8.47-6.979-11.127-2.66-1.858-5.79-2.925-9.004-3.269-2.871-.307-7.671-.186-8.65,3.204-.716,2.478,3.143,3.536,3.857,1.063Z"/><path class="j" d="M210.547,60.564c0,4.357-.027,8.713-.027,13.07,0,1.046.92,2.048,2,2s2-.879,2-2c0-4.357.027-8.713.027-13.07,0-1.046-.92-2.048-2-2s-2,.879-2,2h0Z"/></g><g id="f"><path class="o" d="M428.818,149.018c7.737,2.984,14.015-3.951,13.966-9.774-.03-3.561-.568-6.308-1.672-9.745-1.377-4.285-4.044-12.992-4.236-28.548.383-4.378-.015-10.704-.188-13.135-.6-8.428-4.368-17.838-9.79-23.069-2.344-2.262-6.088-5.62-11.7-7.691-3.769-1.452-7.273-2.15-13.887-2.15-10.843,0-20.495,5.586-24.777,9.686-7.105,6.802-11.612,19.226-11.043,36.359.002,12.485-.949,21.491-2.282,26.608-.912,3.502-1.683,9.333-1.713,12.895-.049,5.822,5.817,12.207,14.467,10.234l52.856-1.671Z"/><path class="l" d="M383.762,154.618c2.963,1.798,9.333,3.724,17.333,3.724,10.37,0,14.222-2.963,18.222-5.177l.103-8.921c-2.438-1.648-4.757-3.461-5.251-4.683-.654-1.61-.614-3.757-.601-5.619,6.906-2.962,12.462-12.258,13.431-14.888.141-.429.424-1.223.682-2.17.502-.078.799-.124.799-.124,1.197-.184,2.323-.728,3.242-1.461,1.197-.968,2.059-2.24,2.719-3.569,1.357-2.727,1.947-5.778,1.687-8.771-.071-.759-.195-1.538-.578-2.221-.543-.975-1.622-1.69-2.808-1.867s-2.454.196-3.309.968c0,0-.712.643-1.689,1.528-1.349-4.431-3.436-9.186-6.569-13.497-3.46-4.761-9.359-7.139-15.139-6.034-.091.017-.14.028-.14.028-12.669,3.384-26.777,11.08-31.321,18.78-.73-1.3-2.414-2.003-3.957-1.772-1.186.177-2.265.892-2.808,1.867-.383.683-.507,1.462-.578,2.221-.26,2.993.33,6.043,1.687,8.771.661,1.329,1.522,2.601,2.719,3.569,1.177.939,2.691,1.567,4.259,1.528.933,3.31,2.525,7.077,5.353,10.462,2.582,3.091,5.488,5.409,8.663,6.776.011,1.836.04,3.916-.597,5.496-.483,1.194-2.899,2.95-5.502,4.564,0,0-.052,7.995-.052,10.493Z"/><path class="j" d="M430.847,101.254c.843-.705,2.306-.527,2.909.384.417.629.408,1.561.427,2.285.025.945-.021,1.9-.191,2.831-.614,3.362-2.303,7.407-6.044,8.078-1.064.191-1.664,1.487-1.397,2.46.308,1.121,1.393,1.588,2.46,1.397,5.873-1.053,8.678-7.675,9.12-12.999.23-2.768-.022-5.886-2.412-7.673-2.364-1.767-5.503-1.431-7.701.408-.829.693-.716,2.112,0,2.828.821.821,1.997.695,2.828,0h0Z"/><path class="j" d="M375.341,98.425c-2.202-1.841-5.332-2.17-7.701-.408-2.392,1.78-2.641,4.91-2.412,7.673.442,5.324,3.247,11.946,9.12,12.999,1.062.19,2.156-.288,2.46-1.397.266-.968-.328-2.269-1.397-2.46-3.741-.671-5.43-4.716-6.044-8.078-.16-.879-.208-1.778-.194-2.67.012-.739-.005-1.669.362-2.336.553-1.006,2.101-1.225,2.976-.494.828.692,2.017.812,2.828,0,.712-.712.832-2.132,0-2.828h0Z"/><path class="j" d="M375.431,148.76c-3.629.778-7.336-.094-9.843-2.923-2.356-2.658-2.187-5.832-1.875-9.152.347-3.684,1.208-7.202,1.929-10.815.713-3.571,1.1-7.215,1.373-10.843.374-4.976.565-10,.45-14.989-.108-4.664.132-9.364.963-13.96,1.261-6.971,3.774-14.121,8.769-19.321,5.365-5.586,13.654-9.059,21.288-9.726,8.388-.733,16.87.906,23.621,6.148,2.941,2.284,5.491,4.968,7.399,8.176,2.324,3.907,3.86,8.26,4.698,12.721.693,3.689.775,7.546.826,11.291.031,2.269-.18,4.534-.132,6.797.053,2.51.174,5.018.379,7.52.531,6.491,1.604,12.941,3.536,19.167,1.118,3.602,2.531,7.715,1.891,11.544-.52,3.108-2.913,6.045-5.947,6.988-1.833.57-3.623.357-5.405-.296-2.421-.887-3.464,2.977-1.063,3.857,4.265,1.563,8.837.621,12.203-2.405,3.203-2.879,4.497-6.88,4.232-11.09-.246-3.906-1.448-7.502-2.523-11.224-.882-3.053-1.56-6.163-2.066-9.3-.761-4.721-1.109-9.508-1.227-14.286-.06-2.424.154-4.846.121-7.275-.029-2.103-.124-4.206-.257-6.305-.578-9.113-3.607-18.89-10.214-25.489-6.129-6.122-13.872-9.882-22.53-10.516-9.865-.722-19.717,1.673-27.772,7.547-6.143,4.481-9.997,11.061-12.204,18.254-1.391,4.533-2.123,9.268-2.439,13.992-.365,5.449-.063,10.923-.274,16.38-.167,4.326-.441,8.674-1.097,12.956-.56,3.657-1.588,7.207-2.097,10.875-.574,4.13-1.284,8.486.496,12.412,1.636,3.609,5.104,6.343,8.955,7.213,2.295.519,4.609.42,6.898-.071,2.516-.539,1.451-4.396-1.063-3.857h0Z"/><path class="j" d="M405.364,79.935c-6.529,1.765-12.894,4.367-18.765,7.73-4.988,2.857-9.947,6.375-13.248,11.165-1.464,2.125,2.001,4.127,3.454,2.019,2.969-4.309,7.691-7.4,12.171-9.933,5.485-3.102,11.37-5.48,17.451-7.123,2.482-.671,1.429-4.531-1.063-3.857h0Z"/><path class="j" d="M404.833,77.718c10.854,4.07,17.831,13.691,21.079,24.505.739,2.459,4.601,1.411,3.857-1.063-1.694-5.64-4.259-10.993-7.889-15.646-4.159-5.332-9.663-9.282-15.985-11.653-1.012-.379-2.192.422-2.46,1.397-.308,1.121.382,2.08,1.397,2.46h0Z"/><path class="j" d="M426.218,113.629c-.058,1.424-.457,2.803-.9,4.15-.081.248-.177.493-.249.744-.038.133-.199.463.042-.08-.13.294-.265.584-.41.871-.864,1.716-1.915,3.346-3.046,4.897-2.633,3.611-6.22,7.432-10.699,8.483-2.505.588-1.445,4.446,1.063,3.857,5.476-1.285,9.719-5.757,12.94-10.118,2.778-3.761,5.064-8.024,5.258-12.803.104-2.574-3.896-2.569-4,0h0Z"/><path class="j" d="M373.37,114.91c2.278,10.706,10.088,21.235,21.63,22.474,1.076.115,2-1.002,2-2,0-1.177-.921-1.884-2-2-4.638-.498-8.585-3.296-11.625-6.686-3.256-3.632-5.142-8.122-6.148-12.851-.535-2.516-4.392-1.452-3.857,1.063h0Z"/><path class="j" d="M411.566,133.946c-.008,1.201-.023,2.406.119,3.602.143,1.201.342,2.523,1.047,3.542,1.416,2.044,3.652,3.508,5.678,4.882.868.589,2.255.194,2.736-.718.535-1.012.209-2.108-.718-2.736-.483-.328-.963-.66-1.435-1.003-.254-.184-.505-.371-.755-.561.16.121.093.073-.026-.022-.115-.092-.229-.183-.343-.276-.376-.308-.743-.626-1.092-.964-.152-.148-.301-.299-.444-.456-.069-.077-.135-.172-.211-.243-.169-.159.262.398.062.077-.079-.126-.149-.275-.235-.394-.101-.14.129.396.061.131-.033-.129-.087-.255-.124-.384-.069-.24-.124-.483-.171-.729-.026-.14-.049-.28-.07-.421.028.186.026.225.008.015-.096-1.113-.097-2.225-.09-3.342.007-1.046-.925-2.048-2-2-1.089.049-1.993.879-2,2h0Z"/><path class="j" d="M387.912,134.065c.007,1.095-.01,2.18-.094,3.272-.03.394.041-.184-.004.056-.021.109-.036.219-.056.328-.051.266-.112.53-.19.789-.022.073-.14.317-.124.374-.013-.049.205-.373.074-.177-.043.064-.082.136-.119.202-.091.163-.242.181.098-.108-.284.242-.515.573-.794.828-.185.169-.376.332-.57.491-.083.068-.166.134-.25.201-.412.329.198-.138-.059.044-.992.702-1.985,1.389-3.018,2.032-.888.552-1.314,1.811-.718,2.736.574.89,1.786,1.309,2.736.718,1.102-.686,2.19-1.397,3.221-2.186.986-.754,1.923-1.518,2.659-2.527.67-.918.891-2.096,1.039-3.198.173-1.288.177-2.578.169-3.875-.007-1.046-.915-2.049-2-2-1.078.048-2.007.879-2,2h0Z"/><path class="l" d="M419.851,241.676c-.849-2.32-1.428-4.625-1.828-6.564-.466-2.882-.925-5.927-1.317-9.223-7.517.06-27.001.448-31.241.448,0,0-.405,0-1.085,0-.39,3.124-.829,6.024-1.274,8.775-.4,1.94-.979,4.244-1.828,6.564h38.571Z"/><path class="i" d="M438.231,198.422c.756-3.221,1.521-7.22,2.255-11.57h18.736c-3.896-10.174-4.581-16.01-8.477-26.184-.733-1.913-1.656-3.485-3.053-4.982-1.312-1.406-3.345-1.799-5.077-2.635-5.102-2.464-13.501-4.968-19.103-7.606-1.184-1.442-2.435-2.9-3.811-4.436l-3.298-.754c1.228,10.747.605,21.61-.019,32.409-.237,4.096-.717,12.203-.937,21.381-.071,2.967-.115,6.045-.115,9.136,0,13.534,1.319,23.439,2.691,31.93.4,1.94.979,4.244,1.828,6.564h19.578c-1.671-11.792-3.134-26.296-3.134-28.903,0-4.475.73-9.211,1.936-14.352Z"/><path class="i" d="M383.107,235.112c1.372-8.49,2.691-18.396,2.691-31.93,0-12.653-.739-25.096-1.052-30.517-.624-10.799-1.247-21.662-.019-32.409l-2.528.754c-1.186,1.323-2.278,2.588-3.307,3.841-5.542,2.853-14.845,5.55-20.333,8.2-1.732.836-3.765,1.229-5.077,2.635-1.397,1.497-2.32,3.069-3.053,4.982-2.389,6.237-3.57,10.844-5.025,15.82-.949,3.245-2.014,6.647-3.606,10.76-2.234-5.232-4.187-10.086-6.402-15.533-5.607,2.952-14.536,7.043-20.144,8.263,2.799,8.939,5.597,18.565,9.534,27.514,2.737,6.223,5.669,12.599,12.373,13.685,4.306.687,9.421-1.066,12.691-3.926,3.28-2.87,8.416-8.939,10.877-12.045l.902-1.179s.765-.999,1.936-2.53c.807,3.973,1.271,7.708,1.271,11.277,0,2.607-1.463,17.111-3.134,28.903h19.578c.849-2.32,1.428-4.625,1.828-6.564Z"/><path class="l" d="M327.324,149.739c-.805-.96-1.466-1.98-1.769-3.364-.473-2.163-1.622-5.001-3.92-5.136-1.523-.09-1.994,1.073-2.196,1.757,0,0-.148.5-.386,1.311-.486-.185-1.043-.34-1.665-.454-3.984-.73-8.336.151-8.478,2.211-.182,1.024.082,1.933.889,3.548-.708.708-1.221,2.741-.681,3.175,0,0,.161.486.345,1.041-1.113-.229-2.002.139-2.607.802-.818.895-1.441,2.827-.454,3.532.434.31.818.623,1.188.926-.033-.005-.059-.008-.059-.008-1.656-.574-3.955.886-3.818,2.399.105,1.161,1.025,2.244,1.975,2.997.045.036.091.072.137.108.426.705.679,1.125.679,1.125,1.649,2.738,3.801,5.173,6.316,7.146.714.56,1.458,1.084,2.149,1.674,1.138.971,2.126,2.118,2.918,3.387l.467.815c3.109-1.152,10.738-4.019,14.694-5.932-.075-.623-.127-1.081-.127-1.081-.608-8.042-.9-15.862-2.331-18.077-1.034-1.599-2.261-2.703-3.266-3.901Z"/><path class="j" d="M310.197,163.366c.058.08.216.407.064.06-.189-.432.015.321-.044-.153-.05-.398-.008.027-.01.123,0,.05-.01.102-.008.152.008.237.105-.501.023-.172-.025.102-.045.205-.074.307-.022.075-.183.496-.04.153.141-.338-.037.051-.078.121-.021.036-.064.082-.077.121-.051.157.266-.286.148-.188-.039.033-.09.081-.118.122-.081.119.212-.167.227-.171-.093.023-.255.146-.333.197-.167.108.215-.083.214-.083-.056.012-.113.042-.167.061-.153.052-.309.093-.467.126-.451.092.328-.004-.015.001-.122.002-.242.009-.364.005-.075-.003-.165-.022-.238-.017,0,0,.437.09.243.026-.155-.051-.321-.097-.477-.142-.21-.061.137.047.147.066-.014-.028-.164-.077-.194-.092-.15-.074-.298-.154-.443-.24-.291-.171-.571-.363-.844-.563-.036-.026-.213-.178-.233-.174.008-.002.293.234.119.09-.121-.099-.243-.195-.36-.298-.238-.209-.449-.439-.667-.669-.254-.267.183.284-.021-.019-.087-.129-.173-.257-.25-.392-.032-.057-.061-.116-.093-.173-.168-.301.047.073.046.124.002-.083-.096-.419-.137-.486.01.015.01.388.034.24.006-.037,0-.096-.002-.133-.023-.308-.072.559-.006.138.002-.012.033-.126.043-.129.055-.012-.237.427-.106.268.045-.055.309-.461.08-.157-.216.286.076-.052.148-.129.031-.033.092-.064.115-.102-.058.096-.399.271-.112.093.106-.066.209-.134.32-.192.052-.028.153-.06.193-.096-.046.042-.438.156-.178.08.138-.04.272-.088.413-.119.051-.011.107-.016.157-.03.194-.054-.523.015-.163.031.12.005.246.009.365.008.243-.001-.44-.127-.225-.024.069.033.175.046.248.069.997.32,2.227-.374,2.46-1.397.249-1.094-.33-2.118-1.397-2.46-1.752-.562-3.766.104-5.062,1.347-.738.708-1.177,1.615-1.277,2.627-.094.954.284,1.995.784,2.793s1.146,1.483,1.879,2.062c.758.598,1.526,1.192,2.413,1.587,1.026.458,2.032.67,3.153.52,1.026-.138,2.014-.49,2.798-1.19,1.378-1.231,2.04-3.972.899-5.549-.314-.434-.662-.772-1.195-.919-.479-.132-1.116-.072-1.541.202-.838.54-1.373,1.83-.718,2.736h0Z"/><path class="j" d="M311.683,152.554c-1.261-.645-2.624-.987-4.03-.65-1.187.284-2.141,1.092-2.811,2.084-.608.901-.998,2.11-.938,3.201.034.624.19,1.237.541,1.761.29.434.534.629.948.938.101.075.204.148.305.224-.313-.234.175.142.234.19,1.377,1.116,2.834,2.122,4.261,3.175.577.426,1.166.862,1.818,1.168,1.095.514,2.308.551,3.471.219,1.462-.418,2.527-1.375,3.087-2.78.574-1.441.297-3.134-.593-4.386-.605-.851-1.773-1.339-2.736-.718-.844.544-1.366,1.824-.718,2.736.141.198.274.4.373.622-.042-.094-.096-.336-.037-.019.059.314-.035-.044.007-.086-.054.054.086.649.021.297-.045-.241.009-.067-.026.065-.009.035-.103.304-.099.308-.041-.04.243-.429.043-.142-.026.038-.079.108-.092.152-.067.227.279-.305.106-.131-.163.165-.138.037-.02.053l.106-.078c-.052.038-.105.073-.161.106-.057.03-.116.064-.171.097-.302.183.055-.054.108-.04-.049-.013-.264.086-.328.103-.089.024-.181.037-.269.061-.265.072.398-.02.126-.015-.153.003-.308.005-.461.01-.409.014.418.038.044.001-.045-.004-.088-.043-.133-.047.074.006.502.248.217.082-.49-.285-.961-.583-1.421-.916-.92-.666-1.842-1.325-2.764-1.985-.047-.034-.334-.245-.134-.095s-.084-.068-.129-.104c-.156-.125-.31-.252-.464-.378-.183-.149-.366-.298-.551-.444-.181-.143-.365-.285-.549-.425-.056-.043-.413-.381-.215-.157.244.275-.193-.275.098.113.183.243.075.092.04.029.215.391.138.339.09.178-.093-.311.046.167.023.198.012-.016,0-.237,0-.236-.01-.27.115.056-.03.165.065-.049.099-.414.126-.497-.006.019.082-.247.089-.245.035.007-.203.394-.012.066.051-.088.295-.386.293-.477,0,.051-.325.348-.096.137.071-.065.153-.137.214-.21.151-.183-.343.174-.122.093.079-.029.188-.111.258-.154.247-.152-.062.134-.142.058.01.009.217-.062.239-.07.312-.106-.085.031-.151.01.077.025.249-.011.338-.009.085.002.366.063.09-.002-.316-.075.118.038.181.055.106.029.208.066.312.1-.34-.111.057.031.177.092.93.476,2.213.274,2.736-.718.483-.914.277-2.228-.718-2.736h0Z"/><path class="j" d="M316.346,156.246c-1.553-1.259-3.061-2.57-4.588-3.86-.287-.242-.575-.483-.866-.721-.084-.069-.166-.149-.256-.209-.175-.115-.147-.261.117.217.278.503.144.414.11.254.125.594.031.332.031.136,0-.031.027-.191.011-.229.103.254-.087.407-.006.1.051-.193.092-.386.157-.576.013-.038.074-.245.092-.25.026-.007-.202.39-.041.124.043-.072.128-.183.151-.264.085-.13.035-.071-.15.177.037-.046.077-.09.12-.131.062-.057.303-.207.075-.08-.297.166.173-.073.166-.075.003,0-.475.144-.073.037.095-.025.189-.049.284-.075.409-.11-.096.015-.092.011.037-.043.311-.006.373-.003l.075.003c.228.021.199.017-.086-.012.044-.028.418.096.433.119-.014-.019-.475-.245-.03-.005.11.059.221.115.331.174.238.128.473.262.705.402.461.278.903.58,1.334.902-.347-.259.135.117.23.197.205.174.405.353.601.537.359.337.705.689,1.034,1.055.09.1.179.202.265.306.076.091.275.386.02.018.113.163.228.324.331.493.118.193.225.391.323.595.028.057.159.363.06.122-.106-.258.083.242.101.29.151.404-.069-.07.015-.077-.005,0,.021.395-.007.406-.049.019.146-.523-.003-.122l-.039.136c-.074.207-.058.18.047-.079.002.048-.119.231-.133.255-.036.063-.074.123-.114.183-.083.121-.05.082.099-.118-.011.047-.171.189-.191.209-.049.05-.101.097-.154.142-.113.097-.069.062.132-.105-.002-.018-.202.146-.232.135.26-.1.28-.117.06-.051l.233-.038c-.441.068.119.002.086.024-.094.064-.485-.192-.1-.002-.256-.127-.497-.272-.731-.437-.056-.04-.321-.233-.093-.063.247.184-.17-.14-.213-.174-.811-.658-2.046-.853-2.828,0-.67.73-.868,2.125,0,2.828,1.161.941,2.443,1.911,4.029,1.815,1.611-.098,3.015-1.273,3.663-2.713.317-.704.529-1.447.491-2.228-.042-.865-.376-1.656-.755-2.423-.583-1.177-1.507-2.194-2.448-3.097-2.042-1.957-4.896-4.099-7.881-3.465-1.597.339-2.682,1.504-3.275,2.96-.469,1.151-.71,2.644-.042,3.769.33.557.938.94,1.427,1.35.457.384.911.773,1.364,1.162,1.132.97,2.27,1.931,3.428,2.87.811.658,2.046.852,2.828,0,.67-.73.868-2.125,0-2.828Z"/><path class="j" d="M321.368,143.527c.025-.081.043-.301.122-.309.313-.031.617.287.805.491.787.857,1.051,2.108,1.332,3.196.835,3.232,3.391,4.905,5.118,7.566.458.706.585,1.287.799,2.328.264,1.283.411,2.586.54,3.888.364,3.668.562,7.352.837,11.028.191,2.551,4.193,2.572,4,0-.326-4.357-.515-8.737-1.067-13.073-.192-1.503-.371-3.065-.867-4.506-.528-1.533-1.516-2.767-2.586-3.968-1.076-1.207-2.362-2.343-2.823-3.948-.478-1.665-.882-3.287-1.94-4.702-2.316-3.098-6.878-3.021-8.127.943-.775,2.461,3.085,3.514,3.857,1.063h0Z"/><path class="j" d="M316.519,149.584c.254,2.146.971,4.102,1.636,6.143.305.935.604,1.903.723,2.883-.038-.311.015.273.018.332.017.287.021.575.007.862,0-.002-.066.632-.019.326-.044.288-.12.57-.202.849-.293,1.004.355,2.223,1.397,2.46,1.07.244,2.147-.322,2.46-1.397.65-2.228.331-4.56-.328-6.746-.299-.991-.659-1.963-.98-2.947-.16-.489-.311-.981-.439-1.479-.064-.247-.123-.495-.174-.745-.029-.142-.056-.285-.08-.428-.039-.248-.046-.286-.018-.113-.123-1.035-.832-2.052-2-2-.978.044-2.132.887-2,2h0Z"/><path class="j" d="M315.425,151.018c2.163.343,4.906.571,6.694-.971,1.874-1.616,1.782-4.615-.041-6.232-1.886-1.674-4.585-2.137-7.028-2.21-2.068-.062-4.551.173-6.301,1.395-.525.366-.977.778-1.317,1.326-.163.262-.297.556-.382.851-.073.253-.182,1.175-.093.505-.216,1.63.191,2.961.871,4.437.439.953,1.89,1.263,2.736.718.983-.634,1.187-1.717.718-2.736-.13-.282-.047-.067-.147-.331-.076-.203-.148-.408-.205-.618-.022-.08-.109-.562-.078-.296.03.257.007-.25.005-.342,0-.046.001-.311-.005-.035-.012.507-.023-.862.035-.254.035.374.092-.221-.024.11-.144.412.207-.25-.039.08-.225.302.347-.205.049-.044-.278.151.094-.053.163-.094.117-.069.248-.12.363-.192.179-.112-.127.051-.145.057.096-.032.19-.072.286-.105.177-.06.357-.113.537-.16.335-.088.674-.147,1.015-.207.31-.054-.308.018.014.001.093-.005.187-.019.28-.027.223-.019.447-.032.672-.04.431-.015.863-.012,1.293.009.203.01.407.024.609.042.102.009.204.021.306.03.343.033-.262-.043.08.007.455.066.909.154,1.354.274.193.052.384.11.573.175.089.031.177.067.266.097.226.076-.228-.127.093.047.144.078.29.15.429.236.178.109.334.262.081.029.109.1.224.237.341.321.193.138-.166-.164-.116-.166.013,0,.128.178.127.196-.001.038.156.256.003-.021-.139-.253-.033-.036-.005.018.175.346-.112-.316.016.035.151.413-.016-.174.039-.109.011.013-.037.191-.049.206-.123.169.07-.135.077-.146-.049.077-.103.167-.142.249.002-.005.194-.317.081-.12-.048.084-.369.296-.014.025-.022.017-.267.157-.057.048.198-.103-.06.018-.111.03-.081.02-.162.04-.244.057-.048.01-.096.017-.144.026-.402.082.117-.011.117-.012-.01.067-1.048.064-1.142.064-.513,0-1.11-.043-1.433-.094-1.029-.163-2.202.263-2.46,1.397-.218.959.292,2.285,1.397,2.46h0Z"/><path class="j" d="M304.777,166.718c1.474,2.426,3.301,4.665,5.428,6.549,1.091.966,2.368,1.838,3.349,2.675,1.128.963,1.887,1.85,2.606,2.982.56.883,1.806,1.318,2.736.718.883-.569,1.317-1.792.718-2.736-.814-1.282-1.783-2.488-2.91-3.509s-2.296-1.774-3.356-2.683c-2.155-1.849-3.707-3.693-5.117-6.014-.543-.894-1.818-1.31-2.736-.718-.898.579-1.299,1.78-.718,2.736h0Z"/><path class="j" d="M298.388,98.925c4.161,11.295,8.209,22.631,12.451,33.897,1.272,3.379,2.56,6.752,3.88,10.112.395,1.005,1.34,1.705,2.46,1.397.957-.263,1.794-1.449,1.397-2.46-4.735-12.048-9.125-24.231-13.551-36.395-.924-2.539-1.847-5.079-2.781-7.614-.882-2.395-4.75-1.36-3.857,1.063h0Z"/><path class="m" d="M294.508,95.405c.121.297.747,1.838,1.778,4.372.544,1.337,2.068,1.991,3.407,1.454.98-.393,1.982-.795,2.96-1.186,1.34-.537,1.991-2.058,1.461-3.401-1.004-2.538-1.331-3.354-1.739-4.369-.912-2.266-3.92-4.287-5.872-3.644-1.684.555-3.064,4.139-1.995,6.774Z"/><path class="j" d="M292.58,95.937c.342.842.684,1.684,1.027,2.525.694,1.705,1.227,3.558,3.002,4.439.938.466,1.935.602,2.964.427.852-.145,1.677-.579,2.476-.899.966-.387,1.946-.697,2.736-1.401.645-.574,1.142-1.394,1.359-2.23.453-1.752-.334-3.279-.964-4.864-.392-.987-.747-2.014-1.212-2.969-1.305-2.684-4.922-5.218-7.996-4.262-1.747.543-2.793,2.209-3.372,3.843-.597,1.685-.663,3.712-.02,5.391.374.974,1.363,1.752,2.46,1.397.949-.307,1.798-1.414,1.397-2.46-.108-.281-.183-.559-.257-.85-.093-.368-.023-.088-.012.003-.017-.148-.026-.297-.031-.446-.01-.269.004-.535.022-.803.035-.551-.073.235.012-.083.045-.168.068-.343.112-.513.064-.249.149-.488.232-.731-.134.39-.028.056.027-.047.062-.116.119-.233.185-.347.051-.087.111-.17.161-.257.22-.385-.206.153-.009.003.08-.061.167-.171.232-.247.247-.288-.336.217-.012,0,.03-.02.185-.123.205-.115-.064-.026-.477.133-.07.062.282-.049-.507-.02-.045.007.094.005.197.003.29.003.355,0-.013.002-.084-.016.153.038.306.066.457.112.103.031.204.074.307.104-.411-.119.045.025.135.071.26.134.499.294.746.449.06.038.296.229.022.007.093.075.184.152.273.231.223.199.424.414.628.633.254.273.071.076.018.006.103.138.2.282.29.429.088.144.161.295.244.442.088.158.209.213-.031-.085.078.097.118.295.164.408.134.333.267.665.399.998.424,1.062.851,2.123,1.244,3.196.056.153-.025.295.004-.039,0,.011-.024.547.013.221.036-.318-.061.186-.066.206.019-.079.201-.345.012-.035-.014.023-.312.399-.116.196.211-.218-.18.148-.181.149.081-.068.298-.177-.005-.029-.512.25.429-.154-.283.127-.686.271-1.369.549-2.053.823-.314.126-.616.238-.942.325.361-.096.17-.031.04-.026-.233-.014-.217-.006.048.024l-.157-.035c-.478-.233.33.26-.12-.033-.108-.07-.41-.361-.121-.061-.076-.079-.153-.152-.227-.235.278.312-.007-.069-.052-.154.143.273-.068-.17-.095-.237-.085-.208-.169-.416-.254-.624-.137-.337-.274-.674-.411-1.011-.295-.726-.591-1.452-.885-2.178-.392-.966-1.349-1.756-2.46-1.397-.933.302-1.818,1.422-1.397,2.46Z"/><path class="n" d="M406.955,155.317c3.139-.388,6.369-1.016,8.957-1.708l1.195-.322c.022,6.457-.35,12.929-.723,19.378-.313,5.421-1.052,17.864-1.052,30.517,0,8.939.575,16.295,1.361,22.706-1.137-.007-1.769-.007-1.769-.007-5.164,0-23.692.456-27.792.456,0,0-1.132,0-2.752.004.814-6.517,1.417-14.009,1.417-23.159,0-12.653-.739-25.096-1.052-30.517-.386-6.676-.771-13.376-.722-20.058,4.531,2.232,12.059,3.126,17.201,3.113,1.744-.004,3.718-.154,5.73-.402Z"/><path class="j" d="M415.38,151.681c-9.471,2.495-20.248,3.169-29.547-.438-1.007-.391-2.195.43-2.46,1.397-.311,1.131.386,2.068,1.397,2.46,4.885,1.895,10.386,2.53,15.597,2.613,5.381.086,10.883-.807,16.076-2.175,2.487-.655,1.432-4.515-1.063-3.857h0Z"/><path class="j" d="M343.876,187.383c2.882-7.56,4.658-15.456,7.34-23.08.697-1.98,1.352-3.999,2.524-5.759,1.125-1.69,2.452-2.369,4.283-3.103,3.369-1.349,6.667-2.816,10.079-4.072,3.972-1.462,8.004-2.87,11.784-4.792,2.295-1.167.273-4.619-2.019-3.454-3.415,1.735-7.053,2.999-10.641,4.319-3.535,1.301-6.961,2.804-10.448,4.212-2.001.808-3.822,1.525-5.247,3.222-1.391,1.656-2.349,3.479-3.12,5.491-1.524,3.976-2.771,8.042-3.944,12.132-1.335,4.658-2.721,9.287-4.448,13.818-.385,1.01.426,2.194,1.397,2.46,1.126.309,2.074-.384,2.46-1.397h0Z"/><path class="j" d="M347.005,194.16c-3.419-7.579-6.55-15.276-9.681-22.977-.496-1.221-1.69-1.85-2.938-1.195-6.194,3.25-12.803,6.524-19.666,8.061-1.029.23-1.708,1.466-1.397,2.46,1.969,6.296,3.856,12.622,6.092,18.83,1.977,5.488,4.065,11.268,7.176,16.237,2.791,4.458,6.956,7.704,12.401,7.75,5.589.047,10.451-2.707,14.283-6.572,3.623-3.655,6.954-7.632,10.08-11.718.657-.858.133-2.239-.718-2.736-1.03-.602-2.078-.143-2.736.718l-.526.687c-.101.132-.201.266-.304.397-.21.267.458-.568-.081.093-.65.797-1.295,1.597-1.955,2.386-1.578,1.888-3.194,3.746-4.869,5.548-1.43,1.538-2.9,3.208-4.635,4.413-2.009,1.396-4.371,2.378-6.807,2.692-4.709.606-8.258-1.809-10.679-5.676-2.772-4.427-4.665-9.52-6.453-14.402-2.378-6.489-4.35-13.116-6.412-19.71l-1.397,2.46c3.572-.8,7.003-2.18,10.365-3.605,3.484-1.477,6.906-3.101,10.257-4.859l-2.938-1.195c3.261,8.021,6.523,16.039,10.084,23.933.444.985,1.874,1.222,2.736.718,1.013-.592,1.163-1.748.718-2.736h0Z"/><path class="j" d="M354.409,154.686c1.116,11.782,2.675,23.56,4.743,35.213,1.074,6.053,2.819,12.04,3.436,18.161.432,4.283-.001,8.375-.467,12.633-.747,6.827-1.589,13.646-2.507,20.452-.144,1.069.257,2.147,1.397,2.46.932.256,2.315-.319,2.46-1.397.845-6.265,1.632-12.537,2.348-18.818.463-4.061,1.144-8.21.983-12.309-.255-6.534-2.015-12.808-3.232-19.193-1.14-5.978-2.059-12-2.895-18.027-.883-6.374-1.659-12.767-2.266-19.174-.102-1.075-.846-2-2-2-1.003,0-2.103.918-2,2h0Z"/><path class="j" d="M461.146,186.319c-2.956-7.774-4.763-15.9-7.561-23.723-1.358-3.796-2.99-8.187-6.915-10.009-3.504-1.627-7.135-3.071-10.755-4.417-2.127-.791-4.262-1.56-6.382-2.37-1.048-.401-2.095-.807-3.129-1.242-.868-.365-1.944-1.107-2.896-1.107-2.574,0-2.578,4,0,4h.01l-1.009-.273c3.452,1.602,7.039,2.895,10.608,4.208,3.398,1.25,6.681,2.713,10.036,4.055,1.689.676,2.963,1.271,4.062,2.786,1.145,1.577,1.783,3.4,2.437,5.216,1.306,3.629,2.395,7.325,3.455,11.031,1.246,4.354,2.573,8.673,4.183,12.908.384,1.009,1.348,1.702,2.46,1.397.967-.266,1.783-1.445,1.397-2.46h0Z"/><path class="j" d="M418.287,142.424c2.053,2.297,4.039,4.651,5.928,7.085.856,1.103,1.69,2.223,2.514,3.35.482.659.96,1.322,1.434,1.986.419.586,1.105,1.268,1.211,1.982v-1.063c-.183.829-1.212,1.732-1.761,2.358-.74.844-1.524,1.644-2.339,2.416-.792.75-.739,2.07,0,2.828,1.034,1.062,2.127,2.104,3.03,3.283.557.727,1.098,1.501,1.091,2.437-.014,2.026-.795,4.208-1.439,6.106-2.238,6.592-4.476,13.184-6.714,19.776-.829,2.443,3.033,3.491,3.857,1.063,2.396-7.056,5.033-14.077,7.194-21.208.614-2.027,1.336-4.554,1.048-6.679-.416-3.079-3.19-5.502-5.239-7.606v2.828c1.7-1.61,3.639-3.479,4.769-5.554,1.353-2.483-1.189-4.916-2.559-6.795-2.884-3.954-5.935-7.773-9.196-11.422-1.719-1.923-4.54.913-2.828,2.828h0Z"/><path class="j" d="M380.784,139.596c-3.261,3.649-6.312,7.468-9.196,11.422-1.324,1.815-3.83,4.217-2.642,6.634,1.055,2.146,3.135,4.089,4.851,5.714v-2.828c-1.991,2.045-4.677,4.386-5.204,7.34-.39,2.189.374,4.854,1.013,6.945,2.179,7.128,4.798,14.15,7.194,21.208.823,2.424,4.688,1.384,3.857-1.063-2.238-6.592-4.476-13.184-6.714-19.776-.648-1.909-1.308-3.966-1.431-5.992-.06-.988.499-1.786,1.083-2.551.9-1.18,1.997-2.222,3.03-3.283.738-.758.794-2.076,0-2.828-.815-.772-1.599-1.572-2.339-2.416-.55-.627-1.579-1.529-1.761-2.358v1.063c.1-.67.687-1.248,1.079-1.797.476-.667.955-1.332,1.438-1.994.866-1.187,1.742-2.366,2.643-3.527,1.888-2.434,3.875-4.788,5.928-7.085,1.711-1.914-1.109-4.753-2.828-2.828h0Z"/><path class="j" d="M385.466,228.337c10.376-.008,20.75-.449,31.126-.456,2.574-.002,2.578-4.002,0-4-10.377.006-20.75.448-31.126.456-2.574.002-2.578,4.002,0,4h0Z"/><path class="j" d="M384.089,239.493c1.504-5.366,2.097-11.04,2.687-16.571.699-6.556,1.021-13.145,1.024-19.738.006-12.49-.814-24.932-1.435-37.399-.424-8.51-.582-17.051.359-25.533.119-1.075-1.005-2-2-2-1.18,0-1.88.922-2,2-1.464,13.205-.245,26.468.423,39.682.679,13.422,1.123,26.931-.108,40.334-.556,6.053-1.163,12.296-2.807,18.162-.696,2.483,3.162,3.542,3.857,1.063h0Z"/><path class="j" d="M441.604,241.373c-.827-6.205-1.613-12.416-2.334-18.634-.463-3.995-1.116-8.052-.921-12.084.308-6.352,2.101-12.477,3.258-18.7,1.098-5.906,1.997-11.85,2.813-17.801.887-6.473,1.686-12.962,2.303-19.467.102-1.077-.992-2-2-2-1.167,0-1.898.92-2,2-1.105,11.66-2.647,23.316-4.724,34.843-1.114,6.183-2.824,12.269-3.455,18.531-.433,4.3.014,8.396.495,12.668.776,6.891,1.647,13.771,2.564,20.645.143,1.07.817,2,2,2,.97,0,2.144-.922,2-2h0Z"/><path class="j" d="M414.399,140.252c1.489,13.322.236,26.712-.431,40.045-.672,13.433-1.094,26.945.16,40.356.58,6.198,1.171,12.636,2.854,18.645.693,2.475,4.554,1.424,3.857-1.063-1.456-5.197-2.014-10.702-2.562-16.06-.662-6.473-.953-12.977-.944-19.483.017-12.49.853-24.93,1.455-37.398.403-8.347.541-16.723-.389-25.041-.12-1.073-.833-2-2-2-.988,0-2.121.92-2,2h0Z"/><path class="l" d="M395.889,190.76c-.759.73-1.465,1.489-2.036,2.241.342.456,2.798,2.711,3.493,3.227l.342.254c1.98-2.811,4.587-4.497,7.687-5.736,4.615-1.844,9.539-2.759,14.465-2.597,4.888.161,10.283,1.697,13.927,5.174,2.978-3.416,8.538-6.067,12.831-7.139,4.236-1.058,8.646-1.094,12.98-.691,2.83.264,5.395,1.075,7.491,2.137.062-.062.098-.097.098-.097.759-.721,2.278-2.24,3.569-3.607-4.67-3.531-7.288-4.058-12.795-4.594-4.191-.408-8.952-.545-13.049.478s-9.352,2.732-12.263,5.971c-3.277-2.311-7.864-3.62-12.79-3.783-4.926-.162-9.85.753-14.465,2.597-2.031.812-4.202,1.844-5.941,3.166-1.109.842-2.388,1.886-3.545,2.999Z"/><path class="m" d="M455.196,205.349c3.164-2.818,13.162-12.207,15.845-14.891-2.202-2.278-6.41-4.493-11.463-4.964-4.334-.404-8.744-.367-12.98.691-4.293,1.072-9.852,3.723-12.831,7.139-3.644-3.477-9.04-5.012-13.927-5.174-4.926-.162-9.85.753-14.465,2.597-3.735,1.492-6.755,3.634-8.826,7.608,2.864,2.504,13.482,10.665,16.462,13.03l42.186-6.036Z"/><path class="l" d="M441.487,197.645c-.193-.156-.389-.31-.586-.462-2.513-1.941-4.335-2.245-6.917-.802,0,0-.672.584-1.386,1.204-1.056-1.121-1.952-2.05-2.334-2.381-1.195-1.036-2.877-1.4-4.138-.93-1.633.607-2.316,1.5-2.316,2.867,0,0-.066.494-.155,1.162-.866-.916-1.645-1.705-2.24-2.238-.503-.451-2.957-1.66-4.589-.434-1.44,1.082-1.662,2.53-.829,3.802.095.145.161.304.239.455l-.365-.191c-2.817-1.472-4.977.819-5.256,1.894-.21.811-.21,2.271.42,3.49,1.058,2.045,5.679,7.174,8.173,9.809,5.715,4.043,14.835,1.227,22.14-.471.768-.179,2.158-.704,2.895-1.245,2.732-1.897,4.139-4.227,6.371-6.693.769-.85,1.983-2.017,2.506-3.037.727-1.42,1.327-2.964.921-4.506-.208-.79-.595-1.576-1.277-2.026-1.086-.717-2.541-.375-3.746.117-1.799.735-3.482,1.752-4.963,3.003-.787-.862-1.656-1.648-2.568-2.385Z"/><path class="j" d="M443.234,211.446c-1.484,1.001-3.307,1.253-5.014,1.665-2.129.514-4.261,1.023-6.42,1.394-3.666.63-7.819.957-11.135-1.04-2.211-1.332-4.224,2.126-2.019,3.454,4.058,2.445,8.913,2.271,13.432,1.572,2.363-.366,4.692-.916,7.015-1.476,2.101-.507,4.332-.881,6.16-2.114,2.123-1.432.123-4.899-2.019-3.454h0Z"/><path class="j" d="M446.852,200.315c-1.664-2.212-3.781-4.286-6.173-5.708-1.127-.67-2.411-1.123-3.733-1.128-1.413-.004-2.748.505-3.971,1.174-.919.503-1.291,1.846-.718,2.736.601.932,1.753,1.255,2.736.718.115-.063.23-.126.347-.186.041-.021.493-.238.266-.135-.194.088.134-.05.17-.063.106-.038.212-.073.319-.105.081-.024.653-.222.7-.16-.004-.005-.417.025-.076.025.1,0,.2-.006.3-.004.064.001.498.019.182,0-.281-.017.044.012.107.026.203.043.402.101.598.169.187.066.293.135.053.014.102.051.206.099.308.152.244.127.48.269.711.418.225.145.442.301.658.458.28.204-.178-.142.077.057.126.098.251.198.375.299.422.342.835.694,1.236,1.06s.787.744,1.157,1.14c.174.186.344.376.51.569.104.121.201.249.306.367.229.258-.263-.357.099.125.627.833,1.756,1.35,2.736.718.824-.531,1.39-1.842.718-2.736h0Z"/><path class="j" d="M439.429,201.921c-1.749-1.646-3.315-3.512-4.958-5.262-.815-.868-1.622-1.749-2.479-2.577-1.539-1.487-3.602-2.261-5.737-1.903-2.503.42-4.39,2.416-4.446,4.96-.024,1.081.936,2,2,2,1.104,0,1.976-.916,2-2,0-.116.005-.231.016-.346-.038.258-.033.275.013.052.071-.215.057-.201-.042.042.044-.092.094-.181.15-.267-.213.389.092-.081.224-.187-.335.269.297-.141.375-.18.21-.101.248-.118.113-.051.121-.045.245-.082.371-.112.238-.048.257-.052.058-.013.136-.008.272-.008.408-.002.245.019.275.02.09.005.14.028.278.062.415.103.332.076.045-.027.331.124.891.47,1.768,1.544,2.575,2.396,1.896,2.003,3.687,4.156,5.696,6.047.786.74,2.048.78,2.828,0,.748-.748.789-2.086,0-2.828h0Z"/><path class="j" d="M414.424,209.97c-5.477-4.341-11.186-8.442-16.462-13.03l.313,2.424c3.115-5.811,9.686-8.043,15.886-8.926s13.415-.138,18.192,4.3c.758.705,2.085.83,2.828,0,4.027-4.496,10.58-6.889,16.474-7.363,6.061-.487,13.415-.09,17.971,4.496v-2.828c-5.123,5.111-10.446,10.074-15.845,14.891-1.925,1.717.912,4.538,2.828,2.828,5.399-4.818,10.723-9.78,15.845-14.891.766-.765.762-2.061,0-2.828-5.32-5.355-13.641-6.239-20.799-5.668-6.917.552-14.563,3.241-19.303,8.534h2.828c-5.775-5.366-14.093-6.442-21.627-5.393-7.381,1.028-15.042,3.942-18.733,10.829-.396.74-.366,1.833.313,2.424,5.275,4.588,10.984,8.689,16.462,13.03.846.67,2.003.826,2.828,0,.696-.696.851-2.154,0-2.828h0Z"/><path class="j" d="M398.355,194.502c.36.277-.397-.355-.532-.473-.354-.311-.703-.628-1.048-.948-.514-.476-1.064-.949-1.508-1.493v2.828c4.216-5.389,10.468-8.482,17.075-9.811,6.383-1.283,13.772-.882,19.279,2.904.702.483,1.854.3,2.424-.313,2.116-2.277,5.059-3.551,7.969-4.491,3.294-1.064,6.568-1.664,10.037-1.677,3.305-.012,6.738.19,9.983.856,2.917.598,5.327,1.999,7.694,3.769l-.405-3.141c-1.164,1.227-2.347,2.437-3.569,3.607-1.863,1.783.968,4.609,2.828,2.828,1.222-1.169,2.405-2.38,3.569-3.607.965-1.017.631-2.366-.405-3.141-2.614-1.956-5.426-3.511-8.65-4.173-3.729-.765-7.692-1.048-11.492-.995-3.839.054-7.555.762-11.185,1.992-3.365,1.14-6.749,2.702-9.204,5.344l2.424-.313c-6.266-4.308-14.645-4.759-21.907-3.396-7.343,1.379-14.617,4.951-19.293,10.928-.72.92-.755,1.903,0,2.828,1.085,1.33,2.541,2.497,3.898,3.54.857.659,2.24.132,2.736-.718.603-1.031.142-2.076-.718-2.736h0Z"/><path class="j" d="M416.88,197.969c-2.068-1.011-4.367-1-6.238.433-1.475,1.131-2.231,2.676-2.147,4.55.083,1.85.837,3.357,1.917,4.806,1.088,1.459,2.258,2.854,3.454,4.225,1.272,1.458,2.576,2.889,3.904,4.295.742.785,2.08.748,2.828,0,.784-.784.744-2.041,0-2.828-1.228-1.301-2.435-2.622-3.616-3.966-.662-.753-1.316-1.514-1.956-2.286-.295-.356-.583-.717-.872-1.078-.265-.331.133.184-.134-.173-.118-.158-.237-.315-.353-.475-.312-.429-.7-.935-.912-1.39-.235-.505-.265-.909-.267-1.352,0-.083.042-.684-.014-.275.009-.067.156-.662.035-.286-.114.357.088-.11.122-.185.156-.341-.26.235.038-.05.156-.149.296-.308.465-.442-.277.22.057,0,.164-.076.325-.23-.182.008.186-.093.119-.04.241-.073.364-.099-.214.016-.198.015.051-.003.454,0,.516-.015.961.203.97.474,2.163.263,2.736-.718.515-.88.257-2.26-.718-2.736h0Z"/><path class="j" d="M431.655,204.116c-1.644-1.782-3.247-3.602-4.883-5.391-.808-.884-1.621-1.764-2.456-2.623-.666-.685-1.344-1.442-2.157-1.957-2.616-1.657-6.265-1.359-7.971,1.431-1.94,3.171.807,6.001,2.713,8.333,2.032,2.487,4.118,4.908,6.407,7.165,1.835,1.809,4.665-1.018,2.828-2.828-1.78-1.755-3.457-3.601-5.056-5.522-.814-.978-1.614-1.967-2.421-2.951-.406-.495-.64-.825-.937-1.351-.05-.089-.105-.173-.154-.263-.157-.286.069.241-.02-.058-.016-.055-.113-.435-.051-.186.05.202.058-.281-.011.076.022-.114.055-.246.1-.355-.129.312.019-.003.056-.041-.19.195.054-.068.075-.09.107-.108.214-.217.333-.312-.1.08-.052.028.133-.057-.09.042-.287.079.077-.012.075-.019.377-.046.045-.021.162-.012.323-.004.484.001.325.01-.276-.064.038.003.092.02.184.038.275.06.231.058.455.134.678.218-.413-.155.092.056.205.12.066.038.135.09.204.124.301.149-.309-.31-.144-.111.531.64,1.235,1.192,1.813,1.796.73.762,1.445,1.537,2.156,2.316,1.612,1.765,3.192,3.558,4.813,5.314.733.794,2.086.742,2.828,0,.791-.791.735-2.032,0-2.828h0Z"/><path class="j" d="M446.251,200.835c.946-.664,1.937-1.247,2.985-1.736.644-.301,1.687-.787,2.324-.579.31.101.556.742.609,1.283.094.956-.416,2.02-.882,2.823-.44.759-1.097,1.378-1.698,2.019-.707.755-1.372,1.545-2.029,2.345-1.313,1.6-2.625,3.25-4.327,4.456-.88.624-1.297,1.746-.718,2.736.509.87,1.851,1.345,2.736.718,2.329-1.651,4.017-3.767,5.838-5.928.79-.937,1.659-1.801,2.456-2.731,1.004-1.172,1.726-2.443,2.22-3.91.953-2.833.074-6.773-3.162-7.66-2.857-.783-6.124,1.133-8.373,2.711-.883.62-1.295,1.749-.718,2.736.511.874,1.848,1.341,2.736.718h0Z"/><g id="g"><path class="j" d="M396.316,122.698c1.762.931,3.657,1.333,5.651,1.32,2.105-.014,4.148-.463,5.824-1.769.375-.292.586-.964.586-1.414,0-.491-.218-1.076-.586-1.414-.88-.807-1.944-.689-2.828,0,.694-.54-.003-.026-.221.088-.169.089-.613.228.025.008-.153.053-.301.116-.456.166-.417.134-.862.163-1.275.291.209-.065.345-.041.041-.011-.125.012-.25.023-.376.031-.302.019-.604.027-.906.025-.271-.002-.541-.011-.811-.029-.124-.008-.248-.018-.372-.031-.071-.007-.141-.015-.212-.023-.158-.019-.093-.01.195.026-.025-.051-.533-.097-.61-.114-.195-.043-.389-.093-.581-.151-.167-.05-.33-.11-.494-.166-.441-.151.431.205.03.016-.204-.096-.406-.197-.605-.302-.925-.488-2.217-.265-2.736.718-.488.924-.27,2.215.718,2.736h0Z"/><path class="j" d="M400.672,109.748c.233.888.456,1.79.59,2.699l-.071-.532c.016.125.023.247.01.373l.071-.532c-.009.058-.021.112-.041.168l.202-.478c-.017.039-.035.072-.059.108l.313-.405c-.028.034-.054.06-.088.087l.405-.313c-.068.044-.14.079-.214.113l.478-.202c-.118.049-.234.085-.36.105l.532-.071c-.114.013-.225.013-.338,0l.532.071c-.128-.018-.253-.049-.38-.066-.266-.083-.532-.095-.798-.036-.266.012-.514.091-.744.237-.415.243-.811.718-.919,1.195-.117.512-.091,1.087.202,1.541l.313.405c.25.248.544.419.883.514.345.046.68.133,1.031.148.568.025,1.085-.154,1.589-.388.635-.295,1.137-.901,1.306-1.584.145-.586.086-1.05-.013-1.637-.147-.87-.348-1.731-.572-2.584-.127-.483-.49-.944-.919-1.195s-1.061-.357-1.541-.202c-.484.157-.951.457-1.195.919-.253.48-.342,1.007-.202,1.541h0Z"/><path class="j" d="M386.994,101.94c-.451,1.465-.157,4.834,2.618,5.121,3.668-.022,3.863-4.096,2.628-6.011-1.011-1.568-3.983-2.221-5.246.89Z"/><path class="j" d="M416.365,101.941c.451,1.465.157,4.834-2.618,5.121-3.668-.022-3.863-4.096-2.628-6.011,1.011-1.568,3.983-2.22,5.246.89Z"/></g></g></g></g></svg>