<?xml version="1.0" encoding="UTF-8"?><svg id="b" xmlns="http://www.w3.org/2000/svg" width="424.806" height="400.088" viewBox="0 0 424.806 400.088"><defs><style>.e{fill:#fff;}.f{fill:#f8b8b4;}.g{fill:#a98a75;}.h{fill:#211715;}.i{fill:#b3b3b3;}.j{fill:#88c5e9;}.k{fill:#645d5c;}</style></defs><g id="c"><g id="d"><path class="k" d="M373.229,353.894c8.742,3.699,19.338-1.181,22.722-9.913,2.772-7.156.404-16.776-1.343-24.248-3.011-12.876-3.767-25.819-3.177-39.009.692-7.594.686-16.645.635-20.437-.177-13.147-5.22-28.109-13.228-36.728-3.189-3.432-4.264-5.146-7.433-7.258,0,0-1.835-1.223-3.67-2.445l-3.685-1.75c-6.85-3.252-14.047-5.565-24.426-6.168-17.017-.99-32.672,6.895-39.768,12.939-11.771,10.026-19.977,29.112-20.649,56.05-1.06,18.222-3.318,31.276-5.845,38.627-1.72,5.029-3.431,13.472-3.785,18.663-.501,7.541,7.312,18.507,20.639,17.085l83.014,4.592Z"/><path class="e" d="M382.15,303.54c.213-.124.417-.256.611-.396,3.759-2.705,5.497-6.695,6.569-9.308,1.513-3.689,1.972-9.774.271-13.197-.57-1.147-1.936-3.125-5.415-3.464-1.599-.156-3.502.229-4.975,1.479-7.117-2.632-14.821-10.742-19.096-20.088-1.728-3.779-3.522-11.429-4.743-17.563-7.834,9.401-17.996,16.114-29.938,19.243-.703.184-1.73.265-2.412-.029-.877-.48-1.106-.906-.96-2.09.364-2.945,1.832-7.761,2.336-10.599-10.372,9.067-21.905,18.725-31.823,25.249-1.243-1.046-2.809-1.514-4.198-1.551-3.494-.094-5.095,1.7-5.802,2.768-2.111,3.187-2.409,9.282-1.363,13.13.74,2.725,1.971,6.899,5.367,10.049,1.505,1.396,3.845,2.366,6.091,1.935,1.279,5.605,3.801,12.431,8.571,18.919,3.621,4.925,7.508,8.689,11.927,11.203-.016,1.788.017,2.746-.172,5.329-.096,1.315-.198,2.735-.685,4.018-.653,1.686-1.532,3.147-2.945,4.287-2.993,2.411-6.068,3.563-9.857,4.988l-3.54,1.393c9.276,5.185,26.586,9.738,39.789,9.686,14.223-.035,29.29-4.545,39.249-9.718l-3.46-1.362c-3.788-1.425-6.864-2.577-9.857-4.988-1.413-1.14-2.292-2.601-2.945-4.287-.487-1.283-.589-2.703-.685-4.018-.208-2.854-.146-3.724-.18-5.925,8.277-5.918,14.789-15.861,16.217-19.102.563-1.008,1.514-3.101,2.31-5.243,1.941.657,4.103.204,5.742-.748Z"/><path class="h" d="M374.083,303.675c-1.598,4.239-3.797,8.098-6.488,11.735-3.212,4.341-7.158,8.629-11.715,11.7-2.581,1.739-5.344,3.074-8.432,3.591-1.279.214-1.994,1.795-1.676,2.952.373,1.356,1.669,1.891,2.952,1.676,6.225-1.043,11.668-5.108,16.075-9.423,3.88-3.799,7.373-8.175,10.142-12.852,1.517-2.562,2.723-5.323,3.771-8.103.457-1.213-.508-2.631-1.676-2.952-1.347-.37-2.493.459-2.952,1.676h0Z"/><path class="h" d="M289.705,296.388c1.083,6.662,3.42,13.165,6.883,18.962,3.558,5.958,8.33,11.551,14.242,15.276,3.018,1.902,6.391,3.255,9.879,3.995,3.013.639,4.301-3.987,1.276-4.629-7.552-1.603-13.477-6.377-18.1-12.412-5.033-6.57-8.227-14.318-9.551-22.469-.208-1.28-1.799-1.993-2.952-1.676-1.361.374-1.885,1.668-1.676,2.952h0Z"/><path class="h" d="M328.236,313.494c.146-.067.294-.132.44-.2.352-.162-.169.09-.24.1.094-.013.232-.093.321-.127.46-.174.931-.317,1.409-.433.309-.074.62-.128.932-.189.459-.09-.286.021.032-.009.172-.016.343-.038.516-.052.89-.075,1.784-.078,2.676-.03.424.023.847.059,1.269.108-.469-.055.245.041.276.046.176.03.352.064.527.1.634.132,1.26.304,1.866.531.075.028.149.056.222.086.172.069.097.037-.224-.095.077-.012.255.118.32.15.209.103.414.213.613.333.154.093.301.195.451.295.463.308-.49-.417-.009.001.946.824,2.476,1,3.394,0,.829-.904,1.011-2.514,0-3.394-2.331-2.029-5.425-2.742-8.441-2.946-3.074-.207-5.987.294-8.773,1.578-1.144.527-1.516,2.267-.861,3.284.76,1.18,2.06,1.425,3.284.861h0Z"/><path class="h" d="M332.672,291.095c-.413,1.286-.795,2.588-1.094,3.906-.117.513-.238,1.05-.201,1.578.078,1.115.553,2.049,1.508,2.663.673.433,1.401.63,2.188.704.476.045.962-.063,1.429-.129l-.638.086c.069-.009.138-.017.208-.023.645-.052,1.227-.233,1.697-.703.416-.416.73-1.099.703-1.697-.028-.621-.232-1.264-.703-1.697-.448-.411-1.068-.753-1.697-.703-.339.027-.674.085-1.011.132l.638-.086c-.234.031-.462.042-.697.01l.638.086c-.16-.028-.311-.072-.463-.131l.573.242c-.176-.077-.346-.165-.501-.278l.486.375c-.036-.029-.068-.062-.097-.098l.375.486c-.041-.058-.071-.111-.101-.176l.242.573c-.024-.068-.041-.132-.054-.203l.086.638c-.023-.179-.015-.352.007-.531l-.086.638c.117-.764.347-1.522.557-2.265.201-.711.411-1.419.636-2.122.384-1.196-.449-2.673-1.676-2.952-1.313-.299-2.541.396-2.952,1.676h0Z"/><path class="h" d="M312.645,278.791c-.857,2.272-.723,7.629,3.637,8.355,5.802.325,6.51-6.097,4.746-9.247-1.444-2.579-6.08-3.902-8.383.892Z"/><path class="h" d="M359.086,281.674c.569,2.36-.226,7.659-4.642,7.84-5.797-.395-5.706-6.856-3.566-9.763,1.752-2.38,6.516-3.12,8.208,1.923Z"/><path class="h" d="M380.908,280.351c1.153-.912,2.796-.971,4.153-.583.445.127,1.176.499,1.326.616.193.15.357.335.53.506.407.404-.107-.207.163.193,1.496,2.217,1.389,5.468,1.027,8.009-.413,2.9-1.456,5.38-2.943,7.851-1.515,2.517-4.262,5.835-7.587,5.183-1.271-.249-2.591.36-2.952,1.676-.324,1.178.398,2.702,1.676,2.952,7.932,1.555,13.016-6.159,15.459-12.576,2.037-5.349,2.503-13.952-2.669-17.728-3.49-2.548-8.302-2.085-11.578.506-1.018.805-.842,2.553,0,3.394,1.005,1.005,2.374.807,3.394,0h0Z"/><path class="h" d="M294.828,271.612c-2.718-2.76-7.004-3.542-10.56-2.026-2.679,1.142-4.269,3.513-5.133,6.216-1.961,6.136-.72,13.334,2.445,18.859,2.201,3.842,5.899,7.246,10.615,6.918,1.293-.09,2.4-1.039,2.4-2.4,0-1.229-1.1-2.491-2.4-2.4-3.653.254-5.974-3.181-7.297-6.162-1.094-2.465-1.81-5.2-1.866-7.898-.032-1.563.082-3.118.452-4.64.148-.609.317-1.232.571-1.806.166-.374.382-.717.593-1.067.055-.091.404-.502.057-.097.749-.876,1.423-1.328,2.716-1.47,1.52-.166,2.941.279,4.012,1.367,2.171,2.205,5.564-1.19,3.394-3.394h0Z"/><path class="h" d="M353.162,242.172c1.626,8.007,3.393,16.002,7.803,22.995,4.201,6.661,10.111,12.953,17.608,15.801,1.212.46,2.632-.51,2.952-1.676.371-1.35-.46-2.49-1.676-2.952-6.501-2.47-11.677-8.528-15.184-14.314-3.863-6.376-5.379-13.762-6.875-21.13-.258-1.271-1.764-2.003-2.952-1.676-1.322.363-1.935,1.678-1.676,2.952h0Z"/><path class="h" d="M353.633,239.357c-5.413,6.441-12.007,11.709-19.639,15.286-1.857.87-3.766,1.615-5.713,2.258-1.021.337-2.052.655-3.092.926.022-.006-1.177.235-1.152.182.087-.185.351.786.387.803-.393-.185.884-4.637,1.023-5.201.444-1.809.929-3.612,1.267-5.446.437-2.373-2.148-3.963-4.011-2.335-8.314,7.263-16.735,14.448-25.669,20.945-1.047.761-1.562,2.086-.861,3.284.604,1.033,2.23,1.628,3.284.861,9.266-6.738,18.018-14.162,26.641-21.695l-4.011-2.335c-.62,3.363-1.725,6.625-2.252,10.006-.306,1.963-.285,3.814,1.488,5.071,1.72,1.22,3.834.859,5.731.326,7.481-2.1,14.447-5.678,20.571-10.445,3.455-2.689,6.589-5.748,9.405-9.099.833-.992.972-2.422,0-3.394-.856-.856-2.556-.997-3.394,0h0Z"/><path class="h" d="M389.03,280.724c-.594,13.649.364,27.257,3.48,40.576,2.216,9.472,5.303,22.27-4.382,28.719-4.277,2.848-9.487,3.519-14.262,1.56-1.2-.492-2.638.534-2.952,1.676-.378,1.377.472,2.458,1.676,2.952,10.236,4.2,22.481-1.987,25.93-12.301,1.986-5.938,1.011-12.583-.201-18.572-1.366-6.754-3.05-13.375-3.811-20.243-.895-8.09-1.033-16.24-.68-24.367.134-3.089-4.666-3.082-4.8,0h0Z"/><path class="h" d="M370.192,218.373c1.605,1.087,2.942,2.418,4.23,3.858,1.486,1.661,3.055,3.274,4.435,5.026,2.676,3.396,4.776,7.342,6.37,11.351,1.77,4.45,3.032,9.108,3.781,13.838.628,3.971.69,7.971.676,11.981-.02,5.436-.171,10.881-.653,16.297-.115,1.293,1.186,2.4,2.4,2.4,1.394,0,2.284-1.104,2.4-2.4.452-5.072.61-10.169.648-15.259.032-4.325-.045-8.608-.636-12.9-1.32-9.578-4.641-19.4-10.447-27.217-1.639-2.207-3.519-4.197-5.344-6.248-1.644-1.848-3.38-3.479-5.435-4.871-2.565-1.737-4.969,2.42-2.423,4.145h0Z"/><path class="h" d="M365.259,210.034c-8.51-4.02-17.563-6.267-26.989-6.556-9.962-.306-19.929,2.214-28.866,6.533-6.416,3.1-12.225,7.261-16.727,12.821-4.843,5.981-8.294,12.91-10.736,20.187-3.439,10.248-4.849,21.135-5.135,31.908-.082,3.09,4.718,3.088,4.8,0,.43-16.2,3.466-33.464,13.102-46.905,3.703-5.165,8.401-9.142,13.982-12.241,7.723-4.289,16.505-7.012,25.345-7.459,9.906-.502,19.857,1.633,28.802,5.858,1.171.553,2.589.326,3.284-.861.61-1.044.316-2.728-.861-3.284h0Z"/><path class="h" d="M276.806,274.926c-.438,7.43-1.075,14.865-2.205,22.225-.778,5.068-1.726,10.166-3.316,15.051-1.996,6.13-3.413,12.497-4.019,18.923-.478,5.064,1.467,9.853,4.769,13.651,4.509,5.185,11.411,7.59,18.18,6.925,1.29-.127,2.4-1.012,2.4-2.4,0-1.2-1.102-2.527-2.4-2.4-5.341.524-10.501-.997-14.211-4.888-1.402-1.47-2.683-3.496-3.3-5.22-.782-2.187-.856-3.459-.624-5.83.581-5.938,1.989-11.823,3.832-17.485,1.499-4.605,2.42-9.401,3.179-14.176,1.283-8.071,2.033-16.221,2.513-24.376.182-3.086-4.619-3.075-4.8,0h0Z"/><path class="h" d="M357.669,273.054c.679.931,1.419,1.818,2.252,2.615.48.459.995.872,1.529,1.269.482.359.978.59,1.541.812.319.1.638.114.957.043.319-.014.617-.109.892-.285.498-.291.973-.862,1.103-1.434.14-.614.11-1.304-.242-1.849l-.375-.486c-.299-.297-.652-.503-1.059-.617-.024-.009-.047-.019-.071-.028l.573.242c-.37-.16-.704-.392-1.022-.637l.486.375c-.972-.758-1.834-1.678-2.587-2.651l.375.486c-.07-.091-.139-.183-.207-.277-.151-.28-.357-.504-.618-.673-.232-.212-.504-.355-.816-.43-.574-.158-1.339-.087-1.849.242-.512.33-.964.822-1.103,1.434-.135.593-.132,1.336.242,1.849h0Z"/><path class="h" d="M310.766,329.774c-.007,1.245-.024,2.488-.098,3.731-.088,1.48-.114,3.05-.668,4.446-1.102,2.776-3.601,4.304-6.19,5.567-3.247,1.585-6.764,2.738-10.127,4.062-1.205.474-2.046,1.607-1.676,2.952.316,1.148,1.739,2.154,2.952,1.676,4.032-1.587,8.29-2.94,12.115-4.974,1.581-.84,3.16-1.86,4.467-3.09,1.363-1.281,2.282-2.916,2.968-4.635,1.186-2.973,1.04-6.572,1.057-9.736.016-3.089-4.784-3.093-4.8,0h0Z"/><path class="h" d="M355.493,329.774c.017,3.164-.129,6.763,1.057,9.736.686,1.72,1.605,3.354,2.968,4.635,1.308,1.229,2.886,2.249,4.467,3.09,3.825,2.033,8.083,3.386,12.115,4.974,1.206.475,2.635-.521,2.952-1.676.374-1.362-.465-2.476-1.676-2.952-3.364-1.324-6.881-2.477-10.127-4.062-2.58-1.259-5.101-2.792-6.19-5.567-.55-1.401-.58-2.962-.668-4.446-.074-1.243-.092-2.486-.098-3.731-.016-3.088-4.816-3.094-4.8,0h0Z"/><path class="f" d="M330.427,397.697h83.307c.057-2.654.08-5.264.07-7.8-.825-14.061-6.834-22.089-12.473-28.277-6.462-6.357-14.334-10.002-24.658-13.306-9.889,5.539-25.874,10.58-40.915,10.617-13.482.053-31.248-4.697-40.368-10.019-.158-.102-.531-.059-1.07.095,0,0-.962.275-2.406.688-12.293,4.009-24.005,7.637-31.261,18.568-4.701,7.082-8.551,18.781-10.807,29.434h80.581Z"/><path class="h" d="M252.161,398.335c1.128-5.296,2.541-10.537,4.338-15.647,1.558-4.431,3.401-8.824,5.952-12.785,4.868-7.557,12.768-11.808,20.997-14.82,5.034-1.843,10.178-3.362,15.237-5.132,1.223-.428,2.036-1.642,1.676-2.952-.326-1.187-1.723-2.106-2.952-1.676-9.136,3.198-18.825,5.538-27.158,10.633-4.201,2.569-7.857,5.843-10.771,9.815-2.931,3.995-4.968,8.622-6.726,13.229-2.236,5.859-3.916,11.929-5.222,18.058-.642,3.013,3.984,4.3,4.629,1.276h0Z"/><path class="h" d="M373.833,347.122c-9.767,5.049-20.865,8.159-31.808,9.12-10.567.928-21.142-.683-31.279-3.669-4.877-1.437-9.729-3.181-14.144-5.733-2.679-1.549-5.099,2.597-2.423,4.145,4.147,2.398,8.693,4.141,13.248,5.591,5.28,1.681,10.706,2.943,16.186,3.76,5.514.822,11.047,1.203,16.617.843,6.166-.399,12.302-1.478,18.262-3.098,6.12-1.664,12.125-3.9,17.763-6.814,2.745-1.419.32-5.562-2.423-4.145h0Z"/><path class="h" d="M368.079,348.251c9.415,2.67,19.137,5.52,27.168,11.324,6.41,4.633,11.507,11.664,14.032,19.157.902,2.678,1.55,5.466,1.876,8.274.411,3.543.262,7.131.172,10.691-.078,3.09,4.722,3.088,4.8,0,.158-6.263.074-12.396-1.666-18.467-1.309-4.568-3.402-8.909-6.137-12.794-2.455-3.486-5.227-6.759-8.57-9.42-3.752-2.986-7.883-5.353-12.282-7.253-5.866-2.533-11.977-4.401-18.117-6.142-2.977-.844-4.248,3.786-1.276,4.629h0Z"/><path class="e" d="M378.733,304.566c-.475-1.277-2.558-2.66-4.12-2.51-3.077.296-3.996,2.292-4.353,4.158-.14.731-.295,1.846-.401,2.737-.042-.051-.065-.079-.065-.079-.545-.665-1.983-2.243-4.095-2.043-2.331.215-3.837,1.979-4.395,4.742-.841,4.248-2.562,11.361-4.053,16.922.085-1.922.135-3.716.194-5.877.025-.91-.169-1.995-.528-2.832-.358-.837-1.006-1.464-1.889-1.687-1.209-.306-2.911.511-3.598,1.783-.587,1.088-.859,2.744-1.041,4.177-.518,4.073-1.501,8.087-2.925,11.938-2.881,6.805-11.209,15.501-12.249,21.037-.581,3.09-.074,5.601.337,8.33.417,2.763,1.289,5.749,1.423,9.22.304,4.569.512,7.899.707,11.568,8.686-1.898,17.351-3.888,25.997-5.957-1.419-3.767-2.458-7.493-2.189-9.996.28-5.87,1.69-9.59,4.75-13.85,1.09-1.521,2.092-2.903,3.018-4.249,1.222-1.776,2.312-3.488,3.303-5.371.499-.948.968-1.936,1.417-3.003,2.989-9.69,4.813-26.244,5.238-34.882.099-2,.108-2.689-.482-4.277Z"/><path class="h" d="M359.892,327.902c1.256-4.777,2.449-9.578,3.465-14.412.175-.835.391-2.077.643-2.644.089-.202.202-.393.314-.582.051-.086.335-.466.14-.229.147-.179.331-.366.514-.51-.302.239.249-.126.3-.152-.388.199.83-.19.433-.142.473-.056.73-.009,1.03.127.287.13.529.335.642.44.26.242.499.5.726.773.83.997,2.536.858,3.394,0,.987-.987.832-2.395,0-3.394-1.719-2.066-4.263-3.141-6.934-2.587-2.734.567-4.572,2.9-5.346,5.462-.754,2.496-1.128,5.157-1.729,7.697-.702,2.969-1.443,5.928-2.219,8.878-.786,2.99,3.843,4.266,4.629,1.276h0Z"/><path class="h" d="M376.293,344.361c1.856-6.085,2.855-12.434,3.701-18.727.798-5.939,1.576-11.994,1.67-17.994.054-3.449-1.509-6.423-4.86-7.64-3.071-1.116-6.754.529-8.141,3.431-.615,1.288-.821,2.639-1.012,4.041-.083.605-.215,1.73-.258,2.081-.026.209-.152,1.038-.221,1.502-.407,2.731-.825,5.461-1.255,8.189-.955,6.07-1.854,12.183-3.205,18.181-.677,3.009,3.949,4.293,4.629,1.276,1.067-4.74,1.818-9.559,2.594-14.353.808-4.987,1.71-9.992,2.277-15.013.121-1.071.237-2.178.535-3.217.222-.775.437-1.254,1.407-1.55,2.302-.703,2.747,1.883,2.699,3.436-.166,5.4-.775,10.815-1.466,16.169-.821,6.353-1.85,12.773-3.723,18.911-.903,2.961,3.728,4.227,4.629,1.276h0Z"/><path class="h" d="M340.073,386.157c-.187-3.782-.446-7.558-.674-11.337-.237-3.921-1.179-7.714-1.76-11.588-.476-3.173-.304-6.08,1.109-8.76,1.474-2.795,3.351-5.37,5.149-7.961,2.061-2.97,4.196-5.97,5.638-9.303.514-1.189.352-2.574-.861-3.284-1.014-.593-2.766-.335-3.284.861-2.625,6.066-7.3,10.968-10.49,16.715-1.682,3.031-2.525,6.117-2.3,9.616.253,3.932,1.397,7.717,1.84,11.615.504,4.437.611,8.966.832,13.426.152,3.074,4.953,3.093,4.8,0h0Z"/><path class="h" d="M365.987,379.569c-1.108-2.972-2.289-6.155-2.094-9.372.175-2.885.612-5.772,1.869-8.406,1.393-2.92,3.461-5.442,5.297-8.085,1.931-2.78,3.666-5.659,4.997-8.777.508-1.191.356-2.572-.861-3.284-1.009-.59-2.772-.338-3.284.861-1.416,3.318-3.294,6.357-5.364,9.303-1.966,2.799-4.063,5.47-5.411,8.639-1.326,3.119-1.84,6.382-2.043,9.75-.22,3.637,1.012,7.285,2.266,10.648.453,1.214,1.624,2.041,2.952,1.676,1.167-.321,2.131-1.732,1.676-2.952h0Z"/><path class="h" d="M363.035,377.893c-8.661,2.069-17.343,4.049-26.04,5.96-3.016.663-1.739,5.291,1.276,4.629,8.697-1.911,17.379-3.891,26.04-5.96,3.003-.717,1.732-5.347-1.276-4.629h0Z"/><path class="h" d="M349.78,336.633c1.184-3.233,2.076-6.564,2.637-9.962.272-1.652.336-3.02.762-4.626.048-.185.102-.369.161-.551.109-.287.127-.347.052-.178.069-.15.148-.294.237-.433-.132.16-.101.134.093-.08.213-.192.245-.222.096-.09.138-.09.282-.172.43-.245-.485.215.608-.218.238-.051-.166.023-.124.029.126.017-.298-.047-.292-.031.016.046-.209-.079-.189-.052.059.082-.186-.126-.175-.094.033.097-.063-.235.048.177.081.29.059.2.206.771.212.811.188,1.327-.017,2.789-.06,4.124-.096,2.936-.259,5.867-.475,8.797-.096,1.294,1.172,2.4,2.4,2.4,1.378,0,2.304-1.102,2.4-2.4.198-2.673.354-5.347.449-8.025.099-2.777.528-5.884-.898-8.413-1.643-2.913-5.343-3.284-7.879-1.345-2.555,1.954-2.642,5.251-3.106,8.167-.558,3.511-1.468,6.953-2.69,10.29-.446,1.217.5,2.629,1.676,2.952,1.338.368,2.505-.455,2.952-1.676h0Z"/><path class="e" d="M139.379,266.146c1.411-1.464,3.365-2.069,5.057-2.075,3.682-.012,5.322,1.917,6.04,3.059,2.143,3.408,2.305,9.833,1.109,13.859-.847,2.851-2.247,7.216-5.901,10.447-1.506,1.332-3.761,2.258-5.963,1.972,0,0-.21-.027-.582-.075-.606,2.32-1.377,4.6-1.858,5.711-1.367,4.201-9.213,19.003-19.643,25.158.166,3.065.413,5.523,1.061,8.258.415,2.05,1.889,3.459,3.346,4.431,2.46,1.638,7.399,2.878,11.37,3.569-.079.08-.118.122-.118.122-7.376,7.982-21.238,12.408-35.593,13.004-14.657.518-30.189-3.517-36.908-10.667,3.427-1.017,7.573-2.023,10.406-3.743,1.585-.962,3.195-3.399,3.598-5.441.204-1.646.162-6.117.06-7.912-4.642-2.187-8.907-5.617-13.03-10.183-5.685-6.296-9.049-13.184-10.98-18.921-2.309.688-4.863-.081-6.588-1.385-3.891-2.942-5.622-7.187-6.685-9.964-1.502-3.922-1.833-10.341.042-13.903.628-1.194,2.116-3.242,5.788-3.513,1.687-.124,3.682.329,5.201,1.681,0,0-6.206-48.593,45.721-48.593,45.407,0,45.05,45.106,45.05,45.106Z"/><path class="k" d="M144.762,229.352c-2.512-6.784-6.428-12.716-11.946-16.796l-6.276-6.095c-7.191-8.761-18.505-13.225-34.426-13.312-20.704.095-35.611,9.935-42.036,18.811l1.441,1.379c-13.556,12.711-17.824,34.681-10.232,55.022.61-.203,1.312-.349,2.12-.408,1.687-.124,3.682.329,5.201,1.681l7.02-6.37c5.21-6.275,14.467-15.788,21.074-19.583.775-.445,1.812.077,2.183,1.386.359,1.265.394,2.234.329,3.155-.099,1.399,1.292,2.36,2.415,1.678,4.711-2.859,13.08-8.57,19.063-11.366l9.06.761c2.951,1.151,5.207,2.279,8.507,4.905,5.655,4.5,11.152,10.76,13.701,16.519l7.418,5.427c1.411-1.465,3.365-2.069,5.057-2.075.927-.003,1.725.117,2.412.317,2.362-11.126,1.937-24.173-2.086-35.035Z"/><path class="h" d="M43.513,267.484c-5.088-13.957-5.04-30.119,2.46-43.232,1.959-3.425,4.377-6.504,7.243-9.216,2.248-2.127-1.15-5.517-3.394-3.394-11.531,10.91-16.111,27.517-14.269,43.025.573,4.82,1.668,9.531,3.331,14.093.444,1.217,1.63,2.04,2.952,1.676,1.174-.323,2.122-1.729,1.676-2.952h0Z"/><path class="h" d="M131.605,214.628c11.114,8.315,14.517,23.879,14.275,37.016-.074,3.985-.493,7.945-1.293,11.85-.26,1.269.368,2.593,1.676,2.952,1.187.326,2.691-.401,2.952-1.676,3.04-14.824,1.869-32.115-6.576-45.077-2.329-3.575-5.197-6.655-8.611-9.21-1.039-.777-2.682-.168-3.284.861-.717,1.226-.18,2.505.861,3.284h0Z"/><path class="h" d="M50.306,267.936c-3.156-2.631-7.51-3.132-11.193-1.245-2.627,1.346-4.142,4.034-4.735,6.838-1.414,6.68.502,14.161,4.511,19.64,2.901,3.965,6.995,6.875,12.108,5.985,1.278-.222,1.996-1.789,1.676-2.952-.371-1.35-1.671-1.899-2.952-1.676-3.503.609-6.334-2.947-7.879-5.602-1.499-2.576-2.625-5.408-2.973-8.418-.321-2.781-.336-6.117,1.234-8.514.094-.133.072-.11-.067.071.095-.117.193-.23.296-.339.081-.079.617-.559.467-.448.519-.384,1.081-.613,1.701-.769,1.489-.374,3.199-.188,4.411.822.995.829,2.419.975,3.394,0,.853-.853,1-2.56,0-3.394h0Z"/><path class="h" d="M141.076,267.843c2.071-2.015,5.506-1.703,7.153.226-.347-.406.116.177.175.272.215.341.417.705.571,1.079.26.629.429,1.317.575,1.98.363,1.645.43,3.345.352,5.025-.135,2.891-1.01,5.841-2.288,8.433-1.532,3.106-4.033,6.519-7.893,6.15-1.292-.124-2.4,1.192-2.4,2.4,0,1.401,1.104,2.276,2.4,2.4,7.988.764,12.501-7.99,14.263-14.48.948-3.49.974-7.322.267-10.857-.58-2.899-1.914-5.74-4.475-7.375-3.744-2.39-8.962-1.696-12.095,1.352-2.218,2.158,1.178,5.551,3.394,3.394h0Z"/><path class="h" d="M137.554,289.33c-.325,1.96-.832,3.889-1.421,5.786-.239.772-.492,1.54-.774,2.297-.06.162-.122.323-.184.484-.179.467.276-.715-.087.222-.096.247-.185.494-.279.741-.057.151-.117.302-.173.453-.035.094-.076.187-.113.28-.118.297.188-.431.053-.125-.213.483-.43.964-.658,1.44-.514,1.07-1.066,2.122-1.645,3.158-3.071,5.505-6.847,10.752-11.589,14.942-2.589,2.288-5.544,4.185-8.82,5.076-2.977.81-1.714,5.442,1.276,4.629,6.911-1.88,12.492-7.137,16.83-12.619,3.653-4.617,6.913-9.689,9.151-15.153.093-.226.185-.452.27-.681.037-.098.224-.671.106-.333-.169.483.136-.329.221-.538.077-.19.151-.38.223-.572.178-.473.343-.951.502-1.431.734-2.213,1.358-4.479,1.74-6.781.212-1.277-.335-2.584-1.676-2.952-1.149-.316-2.739.39-2.952,1.676h0Z"/><path class="h" d="M47.499,293.904c1.769,6.616,4.698,12.985,8.706,18.545,4.387,6.086,10.04,11.759,16.815,15.14,3.602,1.797,7.391,2.855,11.386,3.291,1.291.141,2.4-1.204,2.4-2.4,0-1.415-1.106-2.259-2.4-2.4-13.234-1.443-23.562-13.005-28.982-24.392-1.384-2.908-2.465-5.95-3.296-9.06-.797-2.981-5.429-1.716-4.629,1.276h0Z"/><path class="h" d="M91.353,306.13c.326-.188.653-.374.99-.543.111-.055.487-.309.602-.281-.327.136-.404.169-.232.1.072-.029.145-.057.217-.085.128-.048.258-.095.387-.139.643-.219,1.302-.389,1.969-.517.224-.043.448-.08.674-.116-.351.056.077-.009.216-.024.497-.053.995-.088,1.494-.107.902-.035,1.807-.017,2.706.075.205.021.486.072.125.011.2.034.401.066.6.106.301.06.6.13.896.213.284.08.562.176.84.273.415.145.019-.067-.113-.056.066-.006.29.133.35.163.334.166.654.356.956.573,1.023.736,2.717.211,3.284-.861.656-1.241.23-2.499-.861-3.284-2.451-1.763-5.862-2.124-8.782-2.014-3.099.117-6.05.811-8.74,2.366-1.087.629-1.561,2.198-.861,3.284.707,1.097,2.12,1.534,3.284.861h0Z"/><path class="h" d="M95.81,283.238c.226.744.435,1.494.635,2.245.208.786.438,1.588.549,2.395l-.086-.638c.018.162.024.321.01.483l.086-.638c-.015.101-.036.193-.072.289l.242-.573c-.032.068-.065.123-.109.183l.375-.486c-.031.038-.065.071-.104.101l.486-.375c-.139.098-.289.175-.443.247l.573-.242c-.189.079-.377.136-.579.168l.638-.086c-.206.024-.408.019-.613-.005l.638.086c-.384-.052-.764-.121-1.15-.158-.578-.055-1.302.308-1.697.703-.416.416-.73,1.099-.703,1.697.028.621.232,1.264.703,1.697.494.453,1.031.639,1.697.703.036.003.072.007.108.012l-.638-.086c.476.065.955.182,1.437.169.794-.022,1.495-.233,2.195-.604.802-.425,1.439-1.192,1.634-2.089.171-.783.083-1.499-.08-2.275-.298-1.416-.682-2.816-1.102-4.2-.178-.587-.568-1.121-1.103-1.434-.514-.301-1.273-.429-1.849-.242-1.211.392-2.067,1.666-1.676,2.952h0Z"/><path class="h" d="M71.637,271.468c-.658,2.471.048,8.071,4.693,8.371,6.114-.272,6.178-7.077,3.997-10.191-1.786-2.55-6.784-3.447-8.69,1.82Z"/><path class="h" d="M120.609,269.587c.846,2.413.572,8.05-4.037,8.706-6.117.198-6.703-6.582-4.768-9.855,1.585-2.68,6.499-3.957,8.804,1.149Z"/><path class="h" d="M70.593,256.922c-.413.457-.897.849-1.382,1.226l.486-.375c-1.105.853-2.3,1.706-3.59,2.258l.573-.242c-.124.052-.249.099-.378.135-.583.165-1.128.579-1.434,1.103-.301.514-.429,1.273-.242,1.849.398,1.231,1.658,2.042,2.952,1.676,1.182-.334,2.297-1.055,3.303-1.739.674-.458,1.326-.95,1.962-1.459.401-.321.799-.656,1.144-1.039.426-.472.703-1.049.703-1.697,0-.589-.261-1.292-.703-1.697-.457-.42-1.058-.732-1.697-.703-.617.028-1.27.23-1.697.703h0Z"/><path class="h" d="M72.463,325.786c.103,1.972.112,3.957.058,5.931-.013.469-.03.939-.063,1.407-.011.154-.014.322-.041.474.117-.651-.126.251-.168.374-.288.852-.93,1.886-1.614,2.584-.175.179-.358.365-.559.515.303-.226-.438.24-.513.282-.451.253-.917.481-1.389.692-.32.143-.921.374-1.459.566-.622.222-1.249.427-1.879.624-2.31.72-4.667,1.295-6.951,2.098-1.222.43-2.037,1.64-1.676,2.952.326,1.185,1.724,2.108,2.952,1.676,2.552-.898,5.194-1.514,7.764-2.358,2.55-.837,5.423-1.816,7.286-3.846,1.91-2.081,2.97-4.588,3.089-7.395.092-2.186.079-4.392-.036-6.577-.068-1.295-1.055-2.4-2.4-2.4-1.247,0-2.468,1.099-2.4,2.4h0Z"/><path class="h" d="M136.196,338.476c-.559-.07.305.049-.23-.029-.232-.034-.464-.067-.696-.103-.539-.083-1.076-.173-1.613-.27-1.07-.193-2.135-.412-3.193-.66-1.113-.261-2.22-.554-3.311-.897-.494-.156-.986-.321-1.472-.502-.231-.086-.461-.173-.688-.267.363.15-.222-.103-.283-.131-1.6-.75-3.055-1.739-3.549-3.228-.81-2.441-.94-5.139-1.094-7.685-.078-1.294-1.047-2.4-2.4-2.4-1.239,0-2.479,1.1-2.4,2.4.183,3.021.338,6.357,1.358,9.233.885,2.495,2.932,4.451,5.264,5.632,4.376,2.216,9.483,3.1,14.307,3.707,1.288.162,2.4-1.219,2.4-2.4,0-1.432-1.108-2.238-2.4-2.4h0Z"/><path class="h" d="M109.116,241.608c4.492,1.765,8.249,4.681,11.686,8.026,3.66,3.562,6.975,7.611,9.087,12.295.533,1.182,2.249,1.466,3.284.861,1.216-.711,1.396-2.097.861-3.284-2.315-5.135-6.084-9.665-10.122-13.541-4.005-3.845-8.344-6.952-13.52-8.986-1.207-.474-2.635.52-2.952,1.676-.374,1.361.465,2.476,1.676,2.952h0Z"/><path class="h" d="M57.326,264.96c5.167-6.203,10.926-12.36,17.459-17.144.691-.506,1.396-.994,2.119-1.453.152-.096.966-.451,1.01-.611-.042.155-1.47.147-1.35-.097.006-.012.063.316.067.279-.037.334.184.845.203,1.217.023.471-.042.94-.014,1.41.08,1.351.784,2.619,1.933,3.352,2.037,1.299,3.944.164,5.713-.946,1.653-1.036,3.293-2.092,4.941-3.137,4.058-2.572,8.147-5.17,12.498-7.225,1.172-.553,1.474-2.235.861-3.284-.702-1.2-2.107-1.417-3.284-.861-3.883,1.834-7.551,4.111-11.182,6.394-1.723,1.083-3.435,2.183-5.154,3.272-.748.474-1.498.947-2.253,1.411-.064.039-.476.265-.475.29-.006-.254,1.006.127,1.018.131.089.023.074.319.178.264.092-.049.025-.794.023-.887-.048-2.283-.717-5.179-3.165-5.993-2.017-.671-3.727.653-5.302,1.752-3.51,2.449-6.727,5.321-9.793,8.299-3.319,3.224-6.484,6.618-9.446,10.174-.829.995-.975,2.419,0,3.394.853.853,2.561,1.001,3.394,0h0Z"/><path class="e" d="M4.997,397.697c1.1-5.94,2.56-12.19,4.54-19.32,3.54-8.74,7.61-14.83,14.33-19.47,8.907-6.15,18.283-10.654,36.479-16.491,6.45,7.463,22.362,11.698,37.357,11.169,14.738-.612,28.956-5.26,36.169-13.65,11.046,2.4,22.418,5.159,32.234,10.872,4.08,2.38,7.48,4.69,10.67,8.24,3.03,3.35,5.59,7.13,7.71,11.12,4.56,8.62,6.76,17.99,8.21,27.53H4.997Z"/><path class="h" d="M52.151,213.172c.946-1.295,2.5-3.016,3.936-4.37,1.606-1.515,3.313-2.874,5.135-4.11,4.5-3.051,9.465-5.33,14.683-6.845,6.241-1.811,12.707-2.501,19.194-2.229,5.744.241,11.487,1.157,16.865,3.248,5.03,1.955,9.44,5.141,12.88,9.291.828.999,2.538.856,3.394,0,.988-.988.83-2.393,0-3.394-7.585-9.153-19.149-12.93-30.67-13.801-12.958-.979-26.36,1.717-37.422,8.704-4.67,2.949-8.875,6.612-12.139,11.082-.765,1.047-.177,2.676.861,3.284,1.215.711,2.517.189,3.284-.861h0Z"/><path class="h" d="M7.311,398.335c.629-3.374,1.346-6.731,2.143-10.07.822-3.441,1.479-7.147,2.876-10.402,2.3-5.355,5.257-10.436,9.606-14.386,3.269-2.969,7.229-5.302,11.081-7.433,4.093-2.264,8.355-4.208,12.701-5.93,6.927-2.745,14.025-5.043,21.147-7.223,2.945-.902,1.689-5.536-1.276-4.629-11.6,3.552-23.327,7.351-34.047,13.12-4.059,2.184-8.096,4.63-11.669,7.553-4.726,3.866-8.201,8.999-10.78,14.489-.876,1.864-1.717,3.74-2.259,5.728-.572,2.1-1.121,4.207-1.641,6.32-.944,3.838-1.786,7.7-2.51,11.585-.237,1.273.352,2.588,1.676,2.952,1.169.321,2.714-.395,2.952-1.676h0Z"/><path class="h" d="M130.349,341.621c11.538,2.484,23.392,4.98,33.781,10.82,5,2.811,9.344,6.124,12.931,10.635s6.412,9.756,8.435,15.167c2.422,6.477,3.841,13.271,4.887,20.092.197,1.282,1.807,1.991,2.952,1.676,1.37-.376,1.873-1.666,1.676-2.952-1.907-12.443-5.319-24.857-12.853-35.152-3.596-4.914-7.843-8.898-13.031-12.09-5.361-3.299-11.153-5.787-17.136-7.716-6.668-2.149-13.524-3.635-20.366-5.108-3.012-.648-4.299,3.978-1.276,4.629h0Z"/><path class="h" d="M59.521,345.047c3.339,3.263,7.569,5.414,11.906,7.029,5.207,1.94,10.716,3.008,16.232,3.57,11.159,1.137,23.053-.133,33.484-4.385,5.133-2.092,10.031-4.905,13.85-8.983,2.11-2.253-1.277-5.655-3.394-3.394-6.512,6.953-16.367,10.036-25.523,11.493-10.201,1.624-20.967,1.04-30.841-2.062-4.439-1.394-8.953-3.371-12.321-6.662-2.211-2.16-5.608,1.231-3.394,3.394h0Z"/><path class="e" d="M61.24,343.216c1.484-4.638,3.004-7.334,5.181-10.151,2.181-2.929,3.965-4.9,6.49-7.146,1.657-1.473,5.135-3.11,9.543-3.663,6.589-.826,11.393-.747,15.571-.463,1.855.126,3.996,1.535,3.996,4.152,0,2.084-1.85,3.552-3.458,3.801-2.369.367-5.638.471-9.574,1.186-4.504.818-4.627,1.236-6.846,3.3l-.206.307c4.425-.09,9.69.168,12.027,1.234.877.4,4.073,2.259,4.866,2.808,3.732,2.581,5.676,4.459,6.836,6.867.518,1.074.298,2.994-.229,4.064-.46.933-2.01,2.159-4.453,1.392,1.505,1.427,1.958,3.299,1.542,5.024-.338,1.4-1.845,3.253-4.5,3.448.989.937.448,3.44-.322,4.523-.806,1.132-3.096,1.223-4.299.794-.658-.235-1.843-.739-3.11-.986-.067.346-.105.543-.105.543-.235,1.226-.716,4.07-1.108,5.257-1.108,3.452-2.697,7.277-5.855,9.131-1.501.883-3.246,1.216-4.825,1.942-1.365.639-2.577,3.762-3.306,5.956-.016.049-.066.072-.115.056-6.852-2.251-14.877-5-21.301-7.07-.443-.143-.675-.622-.519-1.06,1.054-2.961,1.739-4.557,2.39-6.522.704-2.951,1.562-5.587,2.208-9.969,1.297-8.802,1.697-12.261,2.853-16.67.21-.737.418-1.43.628-2.084Z"/><path class="h" d="M76.652,337.246c3.175-.344,6.402-.397,9.591-.275,1.463.056,3.076.156,4.361.374.664.113,1.306.275,1.955.452.136.043.27.089.403.14-.251-.112-.279-.122-.082-.031.245.119.485.249.725.379,2.817,1.525,5.629,3.215,7.91,5.491.891.889,2.034,2.066,2.045,3.332.003.397-.069.793-.202,1.167-.15.423.248-.09-.138.232.15-.125-.278.163-.394.195-.303.081-.624.034-.937-.035-3.011-.662-4.296,3.965-1.276,4.629,2.059.453,4.187.216,5.814-1.227,1.349-1.196,1.848-3.024,1.924-4.773.156-3.556-2.764-6.529-5.345-8.588-2.373-1.893-4.962-3.623-7.704-4.946-2.612-1.261-5.705-1.436-8.557-1.568-3.354-.156-6.754-.108-10.094.253-1.289.139-2.4,1.003-2.4,2.4,0,1.189,1.103,2.54,2.4,2.4h0Z"/><path class="h" d="M83.012,346.344c5.203.025,9.507,1.842,13.85,4.517.469.289.932.588,1.383.903.088.061.576.417.456.325-.142-.109.304.253.365.306.67.588,1.136,1.362,1.195,1.979.053.555.011.688-.124,1.172-.056.161-.034.117.065-.132-.043.092-.09.182-.142.269-.043.064-.384.546-.243.378-.141.168-.462.425-.695.55-.32.172-.646.319-1.096.364-1.29.128-2.4,1.011-2.4,2.4,0,1.198,1.102,2.529,2.4,2.4,3.056-.304,6.002-2.068,6.814-5.21.928-3.591-.968-6.604-3.761-8.65-5.217-3.821-11.572-6.34-18.067-6.371-3.089-.015-3.093,4.785,0,4.8h0Z"/><path class="h" d="M84.776,356.043c.063.008.474.059.085.008.119.016.238.034.357.051.275.041.549.084.823.131.579.1,1.154.217,1.725.355.531.129,1.057.276,1.577.444.263.085.523.175.782.271.112.041.223.084.335.128.11.043.502.214.208.083,1.883.838,3.593,1.992,5.233,3.23.031.023.436.332.26.197-.154-.118.187.143.168.131.102.06.316.444-.13-.172.047.065.202.244-.006-.034-.189-.252-.051-.093-.015.06.06.251-.042-.253-.029-.256.002,0,.001.581,0,.657-.003.354.066-.052.023-.129.018.033-.039.216-.049.254-.053.192-.092.387-.153.578-.025.077-.064.157-.081.236-.068.306.229-.379.059-.133-.041.059-.066.138-.101.201-.065.121-.283.338-.036.111.256-.234.066-.089.008-.026-.297.321.113-.131.137-.099,0,0-.188.107-.201.114-.274.14.443-.098.131-.056-.183.025-.386.105-.567.147-.121.028-.289-.023-.021.006.36.039-.125-.006-.196-.004-.195.005-.398-.028-.59-.016-.261.016.219.005.237.04-.007-.013-.311-.059-.301-.057-.328-.075-.639-.202-.954-.32-1.235-.464-2.459-.812-3.776-.958-1.394-.155-2.768.3-3.945,1.035-1.064.665-1.578,2.172-.861,3.284.687,1.066,2.145,1.573,3.284.861.105-.066.815-.429.36-.242.123-.051.629-.29.747-.226.029.016-.602-.035-.152.041.144.024.309.018.453.033-.11-.011-.424-.084.04.017.185.04.37.078.554.124.97.243,1.87.687,2.831.945,2.36.632,5.371.125,6.783-2.033,1.197-1.83,1.677-4.767.458-6.691-.46-.726-1.176-1.18-1.849-1.689-.534-.405-1.075-.801-1.626-1.181-.933-.644-1.899-1.244-2.914-1.751-2.887-1.442-5.926-2.105-9.106-2.499-1.251-.155-2.453,1.214-2.4,2.4.064,1.432,1.06,2.234,2.4,2.4h0Z"/><path class="h" d="M64.35,331.853c-8.158,10.635-7.254,24.478-10.455,36.853-.385,1.49-.76,2.955-1.294,4.399-.606,1.638-1.476,3.335-1.8,5.047-.53,2.803,2.07,3.622,4.176,4.309,1.926.629,3.848,1.267,5.77,1.908,3.989,1.331,7.973,2.676,11.966,3.996,1.142.378,2.321.933,3.482.296,1.027-.563,1.251-1.636,1.622-2.65.249-.679.518-1.345.85-1.989.182-.353.388-.689.597-1.026.191-.307.106-.15.077-.111.206-.271.058-.11.178-.183.875-.528,2.033-.721,2.983-1.1,1.011-.403,1.966-.856,2.841-1.509,1.71-1.276,3.035-2.983,4.015-4.872,1.707-3.292,2.467-6.732,3.15-10.337.241-1.272-.355-2.589-1.676-2.952-1.172-.322-2.71.396-2.952,1.676-.788,4.158-1.54,9.055-4.762,12.123-1.937,1.844-4.96,1.681-6.889,3.478-1.814,1.69-2.675,4.4-3.443,6.683l1.103-1.434-.115.056,1.849-.242c-3.608-1.187-7.209-2.397-10.811-3.603-1.77-.593-3.54-1.184-5.312-1.771-.816-.27-1.633-.54-2.45-.808-.764-.25-1.75-.416-2.445-.81l.861.861-.034.008v1.276c.232-1.634,1.167-3.345,1.744-4.896.517-1.392.894-2.788,1.266-4.224.931-3.595,1.565-7.195,2.098-10.868.805-5.544,1.495-11.122,3.303-16.45,1.078-3.178,2.613-6.052,4.655-8.714.79-1.029.159-2.687-.861-3.284-1.237-.723-2.492-.171-3.284.861h0Z"/><path class="h" d="M68.494,334.276c1.327-1.772,2.762-3.456,4.342-5.008,1.435-1.409,2.362-2.255,4.216-3.101,4.126-1.884,9.052-2.026,13.514-2.145,1.954-.052,3.91-.024,5.862.076,1.207.061,2.504-.12,3.064,1.122.624,1.383-.828,2.107-1.819,2.248-2.192.312-4.41.43-6.605.728-2.245.305-4.611.588-6.719,1.463-1.544.641-2.696,1.749-3.902,2.876-2.262,2.113,1.138,5.502,3.394,3.394.322-.301.64-.607.965-.904.12-.109.727-.628.553-.496.394-.298.881-.502,1.478-.675,2.375-.685,4.882-.976,7.335-1.226,2.199-.224,4.75-.147,6.752-1.18,2.544-1.312,3.886-4.052,3.357-6.856-.446-2.361-2.3-4.178-4.542-4.902-1.998-.645-4.479-.472-6.559-.491-2.63-.024-5.259.099-7.877.345-2.848.267-5.707.594-8.418,1.553-5.457,1.932-9.151,6.238-12.536,10.757-.778,1.038-.168,2.682.861,3.284,1.226.717,2.504.18,3.284-.861h0Z"/><path class="g" d="M300.078,79.388c0-6.003-.003-14.231-.003-22.194,0,0,70.731-26.275,92.853-34.48,9.798,9.618,21.154,20.713,29.437,28.985v.003c.001,5.763,0,18.753,0,23.393,0,.002-.001.004-.004.005-22.349,8.616-68.195,25.522-91.949,34.15-9.561-9.331-29.53-29.036-30.334-29.863Z"/><path class="e" d="M360.229,36.681c-.421-.414-.841-.828-1.261-1.241-7.015,2.604-14.302,5.302-21.455,7.945,10.257,9.92,21.029,20.059,30.798,29.773v22.195c6.89-2.545,13.906-5.146,20.676-7.668v-22.687c-9.123-9.237-19.141-18.863-28.758-28.317Z"/><path class="h" d="M326.393,67.121c-1.983.729-2.325,2.174-1.118,3.273,1.395,1.27,3.569,1.59,5.613.829,2.083-.776,2.444-2.034,1.062-3.299-1.204-1.101-3.588-1.527-5.557-.803Z"/><path class="h" d="M334.655,64.087c-1.951.717-2.284,2.149-1.093,3.241,1.377,1.263,3.518,1.586,5.529.836,2.05-.764,2.402-2.009,1.038-3.266-1.188-1.095-3.536-1.523-5.474-.811Z"/><path class="h" d="M342.784,61.102c-1.92.705-2.244,2.123-1.069,3.209,1.359,1.255,3.469,1.581,5.447.844,2.017-.752,2.361-1.985,1.015-3.234-1.172-1.088-3.486-1.518-5.392-.818Z"/><path class="h" d="M391.698,53.722c-.794-.737-.717-1.893-.075-2.829,1.131-1.649-.426-3.441-2.072-3.611-1.596-.166-3.638-.714-4.557-2.153-.081-.126-.179-.281-.233-.412-.029-.069-.173-.686-.147-.474-.021-.163.002-.338.066-.493.152-.374.46-.755,1.072-1.131,1.727-1.061,4.254-1.093,6.154-.547,2.157.62,3.388,2.239,3.476,4.493.051,1.291,1.059,2.407,2.4,2.4,3.625-.02,6.753.303,9.784,2.453,1.058.75,2.67.188,3.284-.861.704-1.203.199-2.532-.861-3.284-3.671-2.603-7.814-3.132-12.206-3.108l2.4,2.4c-.167-4.266-2.571-7.668-6.643-9.013-3.35-1.106-7.792-.807-10.725,1.262-2.76,1.947-3.776,5.278-2.194,8.332,1.712,3.306,5.465,4.577,8.932,4.937l-2.072-3.611c-1.778,2.593-1.519,6.47.825,8.646,2.262,2.099,5.665-1.288,3.394-3.394h0Z"/><path class="h" d="M322.592,54.828c-2.524.873-5.064,1.696-7.583,2.585-.596.21-1.107.544-1.434,1.103-.301.514-.429,1.273-.242,1.849.377,1.166,1.685,2.124,2.952,1.676,2.518-.889,5.059-1.713,7.583-2.585.595-.206,1.11-.548,1.434-1.103.301-.514.429-1.273.242-1.849-.379-1.172-1.682-2.116-2.952-1.676h0Z"/><path class="h" d="M306.669,66.26c7.514,7.397,15.028,14.795,22.542,22.192.579.57,1.537.896,2.335.617,12.223-4.276,24.395-8.699,36.559-13.139,1.217-.444,2.04-1.63,1.676-2.952-.322-1.173-1.729-2.123-2.952-1.676-12.164,4.44-24.336,8.863-36.559,13.139l2.335.617c-7.514-7.397-15.028-14.795-22.542-22.192-2.203-2.169-5.6,1.223-3.394,3.394h0Z"/><path class="h" d="M357.462,37.33c9.944,9.787,20.02,19.441,29.828,29.365l-.703-1.697c0,6.552,0,13.103,0,19.655,0,.946,0,1.892,0,2.839,0,3.089,4.8,3.094,4.8,0,0-5.404,0-10.808,0-16.212,0-2.07.12-4.18,0-6.248-.08-1.367-1.119-2.152-2.014-3.054-1.328-1.338-2.661-2.671-3.998-4-2.439-2.425-4.89-4.839-7.347-7.246-5.718-5.604-11.466-11.179-17.173-16.795-2.204-2.169-5.6,1.223-3.394,3.394h0Z"/><path class="h" d="M336.065,45.321c10.185,9.843,20.502,19.55,30.55,29.534l-.703-1.697c0,6.364,0,12.728,0,19.092v2.735c0,3.089,4.8,3.094,4.8,0,0-5.365,0-10.729,0-16.094,0-1.897.114-3.834,0-5.729-.096-1.597-1.642-2.635-2.698-3.677-1.293-1.276-2.591-2.548-3.891-3.816-2.474-2.413-4.959-4.814-7.449-7.209-5.733-5.515-11.493-11.003-17.214-16.531-2.222-2.148-5.62,1.242-3.394,3.394h0Z"/><path class="h" d="M414.937,53.105c-8.649,3.366-17.324,6.665-26.004,9.949-1.212.458-2.043,1.619-1.676,2.952.319,1.162,1.734,2.137,2.952,1.676,8.68-3.284,17.355-6.583,26.004-9.949,1.207-.47,2.045-1.611,1.676-2.952-.317-1.152-1.738-2.149-2.952-1.676h0Z"/><path class="h" d="M302.478,79.388c0-7.398-.003-14.796-.003-22.194l-1.762,2.314c8.382-3.181,16.793-6.289,25.191-9.426,15.745-5.882,31.493-11.755,47.259-17.581,6.793-2.51,13.587-5.021,20.402-7.473l-2.335-.617c9.996,9.465,19.953,19.003,29.437,28.985l-.617-1.059c-.141-.334-.053-.55-.078-.053-.01.205.004.417.006.622.003.405.006.811.008,1.216.006.964.009,1.928.012,2.892.006,2.236.006,4.472.004,6.708-.004,3.791-.014,7.582-.037,11.372l.328-1.211-.004.005,1.434-1.103c-11.338,4.37-22.723,8.62-34.111,12.86-13.153,4.897-26.319,9.758-39.496,14.591-6.111,2.241-12.225,4.477-18.343,6.699l2.335.617c-10.163-9.896-20.457-19.679-30.334-29.863-2.155-2.221-5.547,1.175-3.394,3.394,9.877,10.183,20.172,19.967,30.334,29.863.578.563,1.54.906,2.335.617,20.054-7.285,40.074-14.669,60.067-22.12,9.44-3.518,18.874-7.05,28.284-10.649.969-.371,1.938-.742,2.907-1.115,1.664-.64,2.45-1.341,2.461-3.192.012-2.154.02-4.308.026-6.462.013-5.04.025-10.08-.016-15.12-.005-.594.06-1.27-.099-1.845-.241-.873-1.044-1.509-1.652-2.144-1.184-1.237-2.377-2.464-3.576-3.686-2.605-2.655-5.239-5.281-7.889-7.891-5.586-5.502-11.244-10.932-16.937-16.323-.589-.558-1.53-.907-2.335-.617-13.688,4.926-27.316,10.023-40.95,15.095-14.299,5.319-28.591,10.657-42.878,16.005-3.008,1.126-6.021,2.24-9.024,3.38-1.002.38-1.762,1.187-1.762,2.314,0,7.398.003,14.796.003,22.194,0,3.089,4.8,3.094,4.8,0Z"/><path class="h" d="M328.683,87.233v12.203c0,1.255,1.104,2.458,2.4,2.4s2.4-1.055,2.4-2.4v-12.203c0-1.255-1.104-2.458-2.4-2.4s-2.4,1.055-2.4,2.4h0Z"/><path class="i" d="M258.364,87.325v27.106h-93.838v-27.106h93.838Z"/><path class="i" d="M248.334,73.512v13.814h-73.779v-13.814h73.779Z"/><path class="i" d="M238.576,2.4v71.112h-54.263c0-7.693.272-60.773.272-71.112h53.991Z"/><path class="h" d="M186.713,73.515c0-8.171.057-16.341.093-24.512.051-11.518.104-23.037.148-34.555.015-4.016.034-8.032.034-12.048l-2.4,2.4c14.219,0,28.437,0,42.656,0h11.329l-2.4-2.4v71.115c0,3.089,4.8,3.094,4.8,0V2.4c0-1.297-1.1-2.4-2.4-2.4h-53.985c-1.297,0-2.4,1.1-2.4,2.4,0,8.799-.055,17.597-.093,26.396-.049,11.342-.102,22.685-.148,34.027-.014,3.564-.034,7.128-.034,10.692,0,3.089,4.8,3.094,4.8,0h0Z"/><path class="h" d="M176.952,87.327v-13.812l-2.4,2.4h73.782l-2.4-2.4v13.812c0,3.089,4.8,3.094,4.8,0v-13.812c0-1.297-1.1-2.4-2.4-2.4h-73.782c-1.297,0-2.4,1.1-2.4,2.4v13.812c0,3.089,4.8,3.094,4.8,0h0Z"/><path class="h" d="M258.364,84.927h-93.842c-1.297,0-2.4,1.1-2.4,2.4v27.102c0,1.297,1.1,2.4,2.4,2.4h93.842c1.297,0,2.4-1.1,2.4-2.4,0-9.034,0-18.068,0-27.102,0-3.089-4.8-3.094-4.8,0,0,9.034,0,18.068,0,27.102l2.4-2.4h-93.842l2.4,2.4v-27.102l-2.4,2.4h93.842c3.089,0,3.094-4.8,0-4.8Z"/><path class="e" d="M8.149,88.203v-36.923s0-.411,0-1.137L55.356,2.935l47.207,47.207c0,.726,0,1.137,0,1.137v61.109H8.149v-24.185Z"/><rect class="j" x="59.465" y="65.476" width="22.144" height="19.85"/><path class="h" d="M5.749,51.279v61.109c0,1.297,1.1,2.4,2.4,2.4,3.12,0,6.24,0,9.36,0,7.536,0,15.072,0,22.608,0h27.235c7.851,0,15.703,0,23.554,0,3.818,0,7.671.152,11.487,0,.056-.002.113,0,.17,0,1.297,0,2.4-1.1,2.4-2.4v-61.109c0-3.089-4.8-3.094-4.8,0v61.109l2.4-2.4c-3.12,0-6.24,0-9.36,0h-22.608c-9.078,0-18.157,0-27.235,0h-23.554c-2.601,0-5.202,0-7.803,0-1.209,0-2.48-.113-3.684,0-.056.005-.114,0-.17,0l2.4,2.4c0-6.868,0-13.735,0-20.603v-40.505c0-3.089-4.8-3.094-4.8,0h0Z"/><path class="h" d="M4.1,57.585c5.988-5.988,11.976-11.976,17.964-17.964,9.476-9.476,18.952-18.952,28.428-28.428l6.561-6.561h-3.394c5.988,5.988,11.976,11.976,17.964,17.964,9.476,9.476,18.952,18.952,28.428,28.428,2.187,2.187,4.374,4.374,6.561,6.561s5.582-1.206,3.394-3.394c-5.988-5.988-11.976-11.976-17.964-17.964-9.476-9.476-18.952-18.952-28.428-28.428l-6.561-6.561c-.917-.917-2.476-.919-3.394,0-5.988,5.988-11.976,11.976-17.964,17.964-9.476,9.476-18.952,18.952-28.428,28.428l-6.561,6.561c-2.187,2.187,1.206,5.582,3.394,3.394h0Z"/><path class="h" d="M81.609,63.076h-22.144c-1.297,0-2.4,1.1-2.4,2.4v19.85c0,1.297,1.1,2.4,2.4,2.4h22.144c1.297,0,2.4-1.1,2.4-2.4v-19.85c0-3.089-4.8-3.094-4.8,0v19.85l2.4-2.4h-22.144l2.4,2.4v-19.85l-2.4,2.4h22.144c3.089,0,3.094-4.8,0-4.8Z"/><path class="h" d="M8.149,77.801h25.506l-2.4-2.4c0,10.794,0,21.587,0,32.381v4.611c0,3.089,4.8,3.094,4.8,0,0-10.794,0-21.587,0-32.381v-4.611c0-1.297-1.1-2.4-2.4-2.4H8.149c-3.089,0-3.094,4.8,0,4.8h0Z"/></g></g></svg>