<?xml version="1.0" encoding="UTF-8"?><svg id="b" xmlns="http://www.w3.org/2000/svg" width="271.302" height="294.766" viewBox="0 0 271.302 294.766"><defs><style>.d{fill:#211715;}.d,.e,.f,.g,.h{stroke-width:0px;}.e{fill:#645d5c;}.f{fill:#fff;}.g{fill:#3d8dcc;}.h{fill:#c6c6c6;}</style></defs><g id="c"><path class="d" d="M2.318,266.573c2.581,0,5.162,0,7.742,0,6.2,0,12.401,0,18.601,0,8.904,0,17.809,0,26.713,0,10.754,0,21.509,0,32.263,0,11.776,0,23.552,0,35.328,0,11.883,0,23.765,0,35.648,0,11.072,0,22.145,0,33.217,0,9.434,0,18.868,0,28.303,0,6.945,0,13.889,0,20.834,0,3.538,0,7.076,0,10.615,0,.245,0,.49,0,.735,0,3.089,0,3.094-4.8,0-4.8-2.585,0-5.17,0-7.755,0-6.204,0-12.407,0-18.611,0-8.907,0-17.814,0-26.721,0-10.756,0-21.512,0-32.268,0-11.777,0-23.554,0-35.33,0-11.882,0-23.765,0-35.647,0-11.071,0-22.142,0-33.213,0-9.432,0-18.864,0-28.296,0-6.941,0-13.883,0-20.824,0-3.534,0-7.068,0-10.602,0-.244,0-.488,0-.732,0-3.089,0-3.094,4.8,0,4.8h0Z"/><path class="f" d="M117.388,136.769c-5.228-3.72-9.627-7.132-12.853-9.633-.789-.612-1.911-.263-2.265.687-.501,1.34-1.622,4.254-2.649,6.909-25.826,8.897-45.311,16.707-59.413,38.331-12.178,18.673-24.03,53.749-18.956,76.168,3.052,13.485,15.255,19.984,27.885,23.434h127.895c0-16.916,0-50.216,0-50.216,1.841,10.622,6.352,21.076,14.188,27.619,10.154,8.478,25.484,7.601,33.63-3.766,3.782-5.278,5.502-11.955,6.85-18.506,3.488-16.948,5.437-34.334,7.126-51.594l-38.108-18.272c-11.056-12.25-33.137-19.997-45.463-22.58-1.086-2.808-2.347-6.082-2.887-7.527-.355-.949-1.476-1.298-2.265-.687-4.798,3.719-12.191,9.454-21.045,15.221h-3.479c-2.9-1.89-5.644-3.776-8.191-5.588Z"/><path class="f" d="M99.898,35.948c6.33-3.747,15.154-6.218,27.42-6.218,50.739,0,42.59,42.282,42.59,42.282,1.375-1.321,3.228-1.818,4.813-1.762,3.45.122,4.918,1.988,5.55,3.083,1.886,3.271,1.806,9.297.54,13.026-.896,2.641-2.365,6.68-5.905,9.577-1.459,1.194-3.606,1.98-5.659,1.633l-.542-.092c-.652,2.152-1.456,4.261-1.947,5.285-1.303,3.535-7.943,15.096-16.654,21.216-.002,1.6-.002,3.158-.002,3.158-4.798,3.719-12.191,9.454-21.045,15.221h-3.479c-8.853-5.768-16.247-11.502-21.045-15.221v-3.173c-3.204-2.112-6.192-4.918-9.074-8.367-5.1-6.104-8.004-12.679-9.607-18.125-2.188.562-4.554-.251-6.123-1.535-3.54-2.897-5.009-6.936-5.905-9.577-1.266-3.729-1.346-9.755.54-13.026.632-1.096,2.1-2.962,5.55-3.083,1.585-.056,3.438.44,4.813,1.762,0,0-4.685-24.31,15.17-36.064Z"/><path class="e" d="M77.804,35.638c2.458-6.502,7.507-15.167,15.404-21.43,9.182-7.283,20.077-11.347,33.637-11.842,11.887-.434,24.95,4.259,32.886,11.603l7.793,6.921c7.033,5.983,11.029,14.994,12.386,23.46,1.279,7.976.969,15.695-.467,23.84-1.438-.602-2.912-.877-4.271-.877-2.81,0-5.753,1.481-7.858,4.436-4.537-12.628-13.001-23.513-25.864-28.306-14.808,10.56-43.689,25.741-57.168,28.181-1.314-1.031-2.947-1.424-4.367-1.374-1.344.047-2.386.359-3.197.784-2.853-10.413-3.214-19.626-.113-31.662.289-1.124.689-2.382,1.2-3.734Z"/><path class="d" d="M161.428,12.271C147.405-.561,126.196-2.809,108.649,3.113c-16.045,5.416-29.509,18.457-34.174,34.937-3.068,10.837-3.11,22.001-.272,32.875.779,2.986,5.411,1.72,4.629-1.276-4.14-15.864-1.669-33.138,8.575-46.176,10.458-13.31,28.133-20.013,44.846-18.565,9.255.802,18.878,4.439,25.782,10.757,2.275,2.082,5.679-1.303,3.394-3.394h0Z"/><path class="d" d="M181.366,70.943c3.449-17.692,2.549-39.08-12.145-51.75-.981-.846-2.43-.964-3.394,0-.865.865-.986,2.544,0,3.394,13.361,11.521,14.046,30.996,10.91,47.08-.248,1.271.359,2.59,1.676,2.952,1.177.323,2.703-.398,2.952-1.676h0Z"/><path class="d" d="M86.109,73.704c7.308-1.635,14.33-4.791,21.084-7.949,8.144-3.808,16.091-8.065,23.802-12.687,3.823-2.291,7.59-4.68,11.235-7.247,1.058-.745,1.555-2.098.861-3.284-.612-1.047-2.219-1.611-3.284-.861-6.761,4.762-13.918,8.974-21.18,12.918-7.482,4.064-15.146,7.898-23.075,11.018-3.491,1.374-7.052,2.642-10.719,3.463-3.013.674-1.738,5.303,1.276,4.629h0Z"/><path class="d" d="M86.425,70.314c-2.895-2.597-7.024-3.165-10.554-1.527-2.55,1.183-4.067,3.653-4.758,6.293-1.618,6.178-.05,13.289,3.432,18.576,2.388,3.627,6.201,6.927,10.843,6.313,1.285-.17,2.4-.981,2.4-2.4,0-1.165-1.106-2.571-2.4-2.4-3.503.464-5.896-2.374-7.446-5.174-1.322-2.39-2.32-5.153-2.554-7.882-.225-2.632-.212-5.843,1.383-8.09.095-.133.075-.106-.061.08.097-.115.199-.226.304-.332-.003.003.505-.443.279-.272.519-.392,1.055-.604,1.693-.74,1.422-.302,2.945-.035,4.043.95,2.294,2.057,5.699-1.326,3.394-3.394h0Z"/><path class="d" d="M141.391,45.975c10.998,4.364,18.769,14.04,23.018,24.834.474,1.205,1.607,2.046,2.952,1.676,1.148-.316,2.154-1.739,1.676-2.952-4.929-12.523-13.647-23.138-26.371-28.187-1.205-.478-2.636.523-2.952,1.676-.375,1.365.467,2.472,1.676,2.952h0Z"/><path class="d" d="M119.295,108.181c2.642,1.395,5.486,1.985,8.474,1.966,3.073-.02,6.14-.64,8.596-2.555.995-.775.875-2.591,0-3.394-1.055-.969-2.332-.827-3.394,0,.74-.576.214-.17.024-.048-.168.108-.341.207-.517.299-.091.048-.185.091-.277.138-.195.1-.386.058.142-.051-.237.049-.481.184-.713.259-.651.209-1.32.35-1.995.455.363-.057.072-.012-.129.008-.196.019-.392.036-.588.048-.472.03-.945.042-1.418.04-.424-.003-.847-.017-1.27-.046-.194-.013-.388-.029-.582-.048-.069-.007-.777-.125-.22-.022-.629-.116-1.25-.23-1.864-.414-.261-.078-.516-.172-.773-.26-.594-.203.409.205-.127-.048-.32-.151-.635-.308-.947-.473-1.11-.586-2.66-.318-3.284.861-.586,1.109-.324,2.658.861,3.284h0Z"/><path class="d" d="M126.445,88.354c.364,1.39.714,2.801.923,4.223l-.086-.638c.025.195.036.387.016.583l.086-.638c-.014.091-.034.176-.064.262l.242-.573c-.027.061-.055.113-.093.169l.375-.486c-.043.053-.085.093-.138.136l.486-.375c-.107.069-.219.124-.334.177l.573-.242c-.184.077-.367.133-.564.164l.638-.086c-.178.021-.351.02-.529,0l.638.086c-.2-.028-.395-.076-.595-.103-.319-.1-.638-.114-.957-.043-.319.014-.617.109-.892.285-.498.291-.973.862-1.103,1.434-.14.614-.11,1.304.242,1.849.312.484.835,1.022,1.434,1.103.475.064.936.184,1.419.205.752.033,1.448-.199,2.118-.508.833-.383,1.486-1.146,1.708-2.043.188-.761.109-1.411-.02-2.174-.23-1.361-.544-2.709-.894-4.044-.152-.579-.588-1.133-1.103-1.434s-1.273-.429-1.849-.242c-1.25.404-2.018,1.651-1.676,2.952h0Z"/><path class="d" d="M104.252,76.332c-.705,2.292-.246,7.564,4.096,8.013,5.739-.034,6.044-6.409,4.112-9.406-1.582-2.454-6.233-3.474-8.209,1.393Z"/><path class="d" d="M150.385,76.332c.705,2.292.246,7.564-4.096,8.013-5.739-.035-6.044-6.409-4.113-9.406,1.582-2.454,6.232-3.474,8.209,1.393Z"/><path class="d" d="M171.606,73.708c1.096-.983,2.623-1.257,4.043-.95.632.137,1.177.35,1.693.74-.205-.155.814.905.466.446,1.674,2.21,1.664,5.543,1.439,8.169-.229,2.676-1.195,5.374-2.47,7.727-1.546,2.854-3.962,5.801-7.53,5.329-1.287-.17-2.4,1.225-2.4,2.4,0,1.438,1.109,2.229,2.4,2.4,7.526.996,12.091-7.218,13.976-13.271,1.018-3.27,1.131-6.876.585-10.239-.455-2.804-1.663-5.453-4.044-7.105-3.504-2.432-8.471-1.804-11.554.961-2.304,2.067,1.099,5.452,3.394,3.394h0Z"/><path class="d" d="M167.195,93.713c-.38,1.842-.93,3.647-1.557,5.419-.489,1.381-.842,2.126-1.348,3.387.001-.003.202-.433-.011.013-.081.171-.158.344-.239.514-.201.422-.412.839-.629,1.253-.538,1.024-1.115,2.028-1.718,3.016-3.053,5.004-6.768,9.733-11.316,13.464-2.508,2.057-5.326,3.683-8.46,4.41-3.008.697-1.735,5.327,1.276,4.629,6.519-1.511,11.947-6.263,16.201-11.217,3.517-4.094,6.807-8.702,9.03-13.646.145-.322.283-.648.417-.974.036-.086.279-.669.135-.334-.159.368.05-.1.086-.183.136-.309.266-.621.395-.933.156-.377.306-.757.45-1.139.787-2.083,1.467-4.221,1.916-6.404.261-1.268-.369-2.593-1.676-2.952-1.188-.326-2.689.401-2.952,1.676h0Z"/><path class="d" d="M82.692,94.838c1.441,6.351,4.03,12.513,7.662,17.923,3.874,5.771,8.942,11.177,15.077,14.564,3.132,1.729,6.546,2.905,10.083,3.43,1.281.19,2.58-.32,2.952-1.676.311-1.131-.386-2.761-1.676-2.952-7.754-1.15-13.894-5.591-18.939-11.412-5.234-6.039-8.768-13.379-10.532-21.153-.683-3.011-5.312-1.737-4.629,1.276h0Z"/><path class="h" d="M192.062,181.782c0-9.328.002-20.37.004-31.259-10.384-7.141-23.909-12.021-33.532-14.419-.219.653-.361,1.079-.361,1.079-3.247,7.841-14.19,28.053-23.209,44.599,22.429,0,43.99,0,57.098,0Z"/><path class="h" d="M118.537,180.562c-8.961-16.471-19.527-36.135-22.547-43.615l-.338-.837c-13.195,4.625-24.66,9.165-34.535,15.764.005,10.45.005,20.966.005,29.909,12.838,0,34.967-.001,58.078-.002-.22-.404-.441-.811-.664-1.219Z"/><path class="d" d="M63.523,205.832v-52.574c0-3.089-4.8-3.094-4.8,0v52.574c0,3.089,4.8,3.094,4.8,0h0Z"/><path class="d" d="M194.461,205.832v-52.574c0-3.089-4.8-3.094-4.8,0v52.574c0,3.089,4.8,3.094,4.8,0h0Z"/><path class="d" d="M202.415,156.233c-4.79-5.26-10.883-9.289-17.148-12.577-6.347-3.331-13.065-6.009-19.909-8.132-3.129-.971-6.297-1.822-9.504-2.498-3.013-.635-4.302,3.991-1.276,4.629,12.632,2.663,25.383,7.508,36.076,14.803,3.045,2.078,5.881,4.44,8.366,7.169,2.084,2.289,5.471-1.113,3.394-3.394h0Z"/><path class="g" d="M127.321,142.358h-1.742c-2.362,2.655-5.283,6.476-7.524,9.481.9,4.3,2.36,11.7,2.36,12.43,0,.325-.875,7.107-1.926,15.768,3.302,6.064,6.397,11.722,8.831,16.217,2.43-4.497,5.525-10.153,8.827-16.216-1.051-8.662-1.926-15.444-1.926-15.769,0-.73,1.461-8.137,2.364-12.436-2.243-2.997-5.165-6.819-7.528-9.475h-1.737Z"/><path class="d" d="M133.707,160.053c-4.176,0-8.352,0-12.528,0-1.255,0-2.458,1.104-2.4,2.4s1.055,2.4,2.4,2.4c4.176,0,8.352,0,12.528,0,1.255,0,2.458-1.104,2.4-2.4s-1.055-2.4-2.4-2.4h0Z"/><path class="d" d="M138.501,179.658c-.617-5.076-1.14-10.179-1.868-15.24-.016-.11.016-.223.002-.329-.012-.088-.109.662-.017.133.031-.179.057-.359.087-.538.178-1.062.379-2.119.581-3.177.512-2.682,1.051-5.359,1.609-8.032.63-3.014-3.996-4.303-4.629-1.276-.569,2.725-1.118,5.455-1.639,8.189-.3,1.575-.836,3.354-.8,4.969s.39,3.271.588,4.866c.432,3.477.863,6.955,1.286,10.433.156,1.286.991,2.4,2.4,2.4,1.176,0,2.557-1.105,2.4-2.4h0Z"/><path class="d" d="M120.935,179.658c.423-3.479.854-6.956,1.286-10.433.199-1.598.543-3.253.588-4.866s-.501-3.4-.8-4.969c-.521-2.735-1.07-5.464-1.639-8.189-.631-3.022-5.259-1.743-4.629,1.276.547,2.62,1.075,5.245,1.579,7.874.206,1.076.412,2.153.595,3.234.031.186.061.373.092.559.081.486-.051.155-.009-.101-.019.114.02.255.006.375-.568,5.086-1.251,10.16-1.868,15.24-.157,1.289,1.215,2.4,2.4,2.4,1.427,0,2.243-1.107,2.4-2.4h0Z"/><path class="d" d="M49.774,270.351c-10.642-2.931-22.188-8.427-25.688-19.805-1.647-5.356-1.817-11.172-1.551-16.727.299-6.264,1.335-12.467,2.784-18.562,2.889-12.153,7.337-24.064,13.382-35.005,5.582-10.103,12.996-18.954,22.523-25.553,9.94-6.885,21.27-11.367,32.597-15.402,1.557-.555,3.116-1.1,4.677-1.642,2.9-1.006,1.653-5.645-1.276-4.629-12.121,4.206-24.405,8.628-35.323,15.485-10.537,6.618-19.173,15.549-25.562,26.22-6.635,11.082-11.493,23.405-14.797,35.871-3.249,12.257-5.34,25.612-2.829,38.202,1.219,6.114,4.33,11.63,8.98,15.795,4.703,4.214,10.461,7.018,16.401,9.036,1.454.494,2.925.936,4.406,1.344,2.982.821,4.255-3.808,1.276-4.629h0Z"/><path class="d" d="M236.426,176.202c-1.041,10.619-2.162,21.236-3.707,31.795-.775,5.295-1.651,10.576-2.668,15.83-.918,4.74-1.868,9.516-3.53,14.061-2.665,7.289-7.882,13.296-15.679,15.004-6.832,1.496-13.991-.845-19.076-5.532-7.155-6.594-10.763-16.16-12.42-25.55-.225-1.277-1.787-1.997-2.952-1.676-1.348.37-1.902,1.671-1.676,2.952,1.64,9.294,5.215,18.562,11.631,25.625,5.543,6.103,13.455,9.918,21.801,9.367,8.622-.57,16.093-5.529,20.332-13.011,2.473-4.365,3.903-9.253,4.996-14.121,1.216-5.417,2.182-10.897,3.06-16.378,2.04-12.725,3.433-25.544,4.69-38.367.127-1.292-1.194-2.4-2.4-2.4-1.403,0-2.273,1.104-2.4,2.4h0Z"/><path class="d" d="M130.094,196.162c8.982-16.549,18.255-32.97,26.664-49.822,1.682-3.371,3.45-6.787,4.665-10.362.996-2.931-3.638-4.189-4.629-1.276-.197.58-.427,1.145-.641,1.719-.168.45.165-.364-.135.318-.276.628-.555,1.255-.843,1.878-.695,1.504-1.419,2.995-2.154,4.48-1.851,3.737-3.773,7.439-5.715,11.13-4.647,8.836-9.419,17.605-14.197,26.371-2.388,4.38-4.781,8.757-7.16,13.141-1.474,2.716,2.669,5.141,4.145,2.423h0Z"/><path class="d" d="M128.687,193.739c-8.919-16.433-18.115-32.741-26.485-49.464-.861-1.72-1.71-3.447-2.524-5.19-.326-.699-.647-1.401-.957-2.108-.046-.105-.091-.211-.137-.316-.228-.521-.017-.034-.043-.098-.245-.616-.486-1.233-.699-1.861-.988-2.909-5.626-1.66-4.629,1.276,1.063,3.129,2.573,6.125,4.031,9.084,1.87,3.795,3.819,7.55,5.787,11.295,4.668,8.884,9.465,17.7,14.268,26.512,2.415,4.43,4.836,8.857,7.242,13.292,1.474,2.716,5.62.296,4.145-2.423h0Z"/><path class="f" d="M49.876,189.9c.309,20.541,1.141,74.312,1.464,94.589.07,4.37,3.629,7.867,7.999,7.865,26.143-.013,109.815-.013,135.957,0,4.37.002,7.93-3.495,7.999-7.865.324-20.277,1.155-74.049,1.464-94.59.067-4.466-3.529-8.116-7.995-8.116-26.788-.002-112.128,0-138.897,0-4.466,0-8.06,3.651-7.993,8.117Z"/><path class="d" d="M47.476,189.9c.27,17.918.547,35.835.825,53.753.146,9.436.293,18.871.441,28.307.056,3.586.113,7.172.17,10.758.038,2.384.178,4.645,1.382,6.779,1.308,2.319,3.549,4.068,6.092,4.833,1.765.531,3.624.424,5.443.423,1.389,0,2.779-.001,4.168-.002,3.406-.001,6.811-.002,10.217-.003,8.508-.002,17.016-.003,25.525-.004,19.091-.002,38.183-.001,57.274,0,8.07,0,16.141.002,24.211.004,3.077,0,6.154.002,9.23.003,1.608,0,3.242.091,4.831-.197,2.648-.48,4.981-2.078,6.535-4.25,2.427-3.391,1.909-7.845,1.972-11.801.064-4.042.127-8.084.19-12.126.154-9.867.308-19.735.46-29.602.151-9.79.302-19.581.452-29.371.061-3.978.122-7.956.182-11.934.065-4.291.605-8.679-2.274-12.264-1.798-2.239-4.492-3.572-7.34-3.794-1.352-.105-2.735-.03-4.091-.03-3.124,0-6.248,0-9.371,0-8.107,0-16.215,0-24.322,0-19.124,0-38.248,0-57.371,0-8.61,0-17.219,0-25.829,0-6.198,0-12.412-.127-18.609,0-5.778.119-10.355,4.728-10.393,10.517-.02,3.089,4.78,3.093,4.8,0,.014-2.117,1.053-4.002,2.922-5.041,1.445-.804,3.05-.675,4.644-.675,2.912,0,5.823,0,8.735,0,7.598,0,15.196,0,22.794,0,18.633,0,37.266,0,55.899,0,15.337,0,30.674,0,46.011,0,1.272,0,2.565-.065,3.835.008,2.062.118,3.937,1.427,4.777,3.316.696,1.565.453,3.362.427,5.03-.026,1.709-.052,3.417-.078,5.126-.133,8.713-.266,17.426-.401,26.139-.283,18.391-.568,36.783-.859,55.174-.052,3.269.672,7.554-2.245,9.818-2.27,1.762-5.803,1.159-8.515,1.158-7.02-.003-14.039-.004-21.059-.005-18.242-.003-36.484-.003-54.726-.003-16.147,0-32.295.002-48.442.007-1.389,0-2.779,0-4.168.002-1.482,0-3.068.178-4.479-.353-1.869-.703-3.261-2.423-3.561-4.401-.22-1.453-.086-3.041-.11-4.511-.13-8.208-.258-16.417-.386-24.625-.294-18.87-.586-37.74-.873-56.611-.049-3.184-.097-6.368-.145-9.552-.046-3.086-4.847-3.095-4.8,0Z"/><path class="d" d="M159.421,139.492c-1.452-3.74-2.906-7.479-4.332-11.229-.514-1.352-.978-2.662-2.341-3.391-2.015-1.077-3.703.072-5.273,1.287-2.563,1.985-5.142,3.948-7.753,5.87-3.884,2.858-7.838,5.619-11.876,8.256-1.349.881-1.542,2.575-.486,3.769,3.569,4.036,6.709,8.424,9.937,12.73.776,1.035,2.074,1.568,3.284.861,1.02-.597,1.643-2.24.861-3.284-3.472-4.631-6.85-9.361-10.688-13.702l-.486,3.769c4.096-2.675,8.105-5.477,12.043-8.379,1.656-1.22,3.3-2.457,4.934-3.706.718-.548,1.434-1.099,2.149-1.651.128-.099,2.217-1.534,2.178-1.685-.418.306-.832.296-1.24-.029-.23-.437-.287-.513-.171-.23.038.227.18.477.262.692.221.582.444,1.164.667,1.745.538,1.402,1.078,2.803,1.619,4.203.693,1.793,1.387,3.586,2.083,5.378.469,1.208,1.612,2.045,2.952,1.676,1.153-.317,2.148-1.737,1.676-2.952h0Z"/><path class="d" d="M99.844,140.768c.696-1.792,1.39-3.585,2.083-5.378.541-1.4,1.081-2.801,1.619-4.203.223-.581.446-1.163.667-1.745.082-.215.224-.465.262-.692.117-.283.06-.207-.171.23-.408.325-.822.335-1.24.029-.04.15,2.049,1.586,2.178,1.685.715.552,1.431,1.103,2.149,1.651,1.635,1.249,3.278,2.486,4.934,3.706,3.938,2.902,7.947,5.704,12.043,8.379l-.486-3.769c-3.838,4.34-7.216,9.07-10.688,13.702-.778,1.038-.167,2.682.861,3.284,1.227.718,2.504.179,3.284-.861,3.228-4.306,6.369-8.695,9.937-12.73,1.056-1.195.863-2.889-.486-3.769-6.531-4.265-12.825-8.871-18.998-13.637-1.248-.964-2.442-2.18-4.117-2.216-2.048-.044-3.229,1.483-3.889,3.202-.847,2.204-1.688,4.411-2.539,6.613-.676,1.749-1.353,3.497-2.032,5.245-.469,1.209.517,2.634,1.676,2.952,1.357.373,2.481-.463,2.952-1.676h0Z"/><path class="f" d="M227.314,125.034c5.887-7.325,11.938-14.511,14.122-16.913.904-.994,2.61-2.255,4.882-2.128,1.366.077,3.179.8,4.099,2.945,3.828-4.705,6.788-4.128,8.654-2.596,1.562,1.281,1.746,4.253.803,6.217,2.054-.809,4.338-.522,5.336.531,2.767,2.92,1.851,5.798-.53,9.565,1.174-.341,2.148-.099,2.826.504,1.458,1.297,2.717,3.781-1.195,8.98-4.019,5.341-8.115,11.555-12.777,17.016-3.656,4.282-7.851,8.083-11.743,12.142-3.008,3.138-6.113,6.297-9.911,8.396-.029.897-.278,2.615-.511,4.051-.221,1.366-1.432,2.349-2.815,2.29l-23.698-1.019.107-3.588c-.154-3.531-1.942-7.107-3.178-10.55-1.755-4.856-2.439-10.197-1.313-15.229.596-2.671,1.577-5.182,2.551-7.742,2.071-5.445,4.185-10.284,6.337-15.272,1.17-2.715,2.787-5.248,5.656-6.561,1.49-.673,3.266-.618,4.58.364,2.207,1.655,1.766,4.668,1.214,7.184-.789,3.541-1.165,6.331-1.753,9.513-.149.806.887,1.302,1.384.65,2.078-2.727,4.461-5.75,6.872-8.75Z"/><path class="d" d="M232.672,171.991c3.26-1.751,6.077-4.2,8.681-6.805,2.713-2.713,5.384-5.467,8.096-8.18,5.53-5.534,10.227-11.619,14.784-17.962,1.036-1.441,2.07-2.884,3.123-4.312,1.067-1.447,2.182-2.854,2.94-4.496,1.028-2.227,1.508-4.817.262-7.069-1.036-1.873-2.924-3.15-5.107-3.057-3.367.143-5.761,2.927-7.754,5.309-4.293,5.131-8.467,10.36-12.685,15.553-.817,1.005-.983,2.411,0,3.394.844.844,2.573,1.011,3.394,0,3.373-4.152,6.709-8.334,10.114-12.46.853-1.034,1.711-2.065,2.571-3.093.962-1.149,1.896-2.423,3.141-3.282.42-.29.823-.484,1.147-.58.024-.007.67-.089.289-.079.087-.002.731.228.162.028.499.175-.213-.24.09.055.072.07.142.142.214.213.456.452-.077-.212.113.135.081.147.169.287.243.438-.032-.064-.244-.477-.052-.081.052.106.132.71.064.11.024.211.023.422.018.634-.002.073-.049.449.009.063-.039.26-.109.52-.184.772-.161.542-.402,1.033-.676,1.526-1.614,2.902-3.906,5.528-5.843,8.223-3.95,5.496-8.014,10.799-12.777,15.625-2.718,2.754-5.465,5.474-8.167,8.244-2.61,2.676-5.317,5.209-8.632,6.989-2.722,1.462-.301,5.608,2.423,4.145h0Z"/><path class="d" d="M267.08,123.338c1.077-1.805,2.01-3.72,2.202-5.839.191-2.103-.643-4.054-1.969-5.643-2.343-2.806-6.819-2.672-9.726-.825-2.161,1.373-3.755,3.82-5.385,5.756-2.371,2.817-4.731,5.643-7.063,8.493-2.969,3.628-5.893,7.292-8.72,11.031-.782,1.035-.164,2.684.861,3.284,1.23.72,2.499.176,3.284-.861,4.036-5.338,8.298-10.506,12.589-15.64,1.607-1.922,3.224-3.836,4.838-5.753,1.298-1.54,2.646-3.074,4.674-2.846-.005,0,.741.184.669.161-.193-.062.135.083.146.091-.191-.132-.091-.084.035.04.467.459.872,1.085.976,1.74.239,1.515-.806,3.135-1.554,4.389-1.587,2.659,2.562,5.076,4.145,2.423h0Z"/><path class="d" d="M261.926,113.825c1.348-2.979,1.386-7.032-1.316-9.305-2.206-1.855-5.052-2.097-7.628-.878-3.173,1.502-5.437,4.894-7.635,7.514-2.564,3.057-5.066,6.165-7.553,9.285-2.72,3.412-5.419,6.841-8.155,10.24-.812,1.009-.986,2.408,0,3.394.841.841,2.577,1.015,3.394,0,5.283-6.562,10.426-13.239,15.846-19.69,1.257-1.496,2.516-2.997,3.829-4.445.605-.667,1.241-1.322,2.018-1.788.15-.09.665-.35.627-.336.116-.043,1.009-.202.589-.17.22-.017.462-.016.681.013-.539-.07.297.122.402.163-.49-.192.159.123.258.176.463.25-.01-.191.308.237.574.771.63,2.198.191,3.167-.534,1.18-.339,2.582.861,3.284,1.029.602,2.747.326,3.284-.861h0Z"/><path class="d" d="M229.469,169.919c-.063.865-.183,1.721-.316,2.578-.095.61.003,1.038-.579,1.152-.197.038-.536-.038-.745-.047l-5.052-.217-14.355-.617-3.564-.153,2.4,2.4c.031-1.039.075-2.078.093-3.117.035-2.031-.458-4.062-1.103-5.976-1.669-4.957-3.861-9.522-3.922-14.865-.059-5.185,2.012-10.004,3.879-14.748,1.815-4.612,3.6-9.384,5.856-13.8.868-1.698,2.034-3.367,3.817-4.192,1.236-.572,2.689-.25,2.947,1.225.348,1.986-.529,4.279-.893,6.195-.214,1.127-.407,2.258-.599,3.39-.221,1.305-.616,2.688-.673,4.009-.12,2.791,3.356,4.434,5.376,2.443,1.439-1.418,2.597-3.332,3.85-4.921,2.721-3.45,5.486-6.866,8.279-10.257,2.467-2.995,4.95-5.98,7.494-8.911.825-.951,1.637-2.107,2.767-2.697,1.608-.839,2.994-.506,3.862,1.226,1.385,2.762,5.527.334,4.145-2.423-1.63-3.25-5.429-4.792-8.883-3.62-2.5.848-4.072,2.711-5.73,4.633-4.064,4.713-8.015,9.527-11.917,14.374-1.264,1.571-2.521,3.148-3.768,4.733-1.154,1.467-2.264,3.332-3.597,4.564l1.059-.617,1.243.308.617,1.059-.005.311c.051-.284.102-.567.151-.851.073-.419.145-.837.216-1.256.118-.694.234-1.389.355-2.083.303-1.75.663-3.484,1.023-5.222.549-2.649.88-5.654-.793-7.99-1.989-2.777-5.607-3.315-8.597-1.938-2.682,1.235-4.677,3.655-5.974,6.25-1.489,2.98-2.695,6.14-3.984,9.21-1.321,3.146-2.586,6.314-3.784,9.509s-2.184,6.403-2.462,9.819c-.287,3.528.198,7.161,1.168,10.555,1.036,3.626,2.941,7.007,3.634,10.731.301,1.615.102,3.307.053,4.94-.04,1.337,1.133,2.346,2.4,2.4,7.787.335,15.576.77,23.367,1.005,1.423.043,2.788-.334,3.872-1.299,1.931-1.718,1.998-4.797,2.173-7.201.094-1.294-1.17-2.4-2.4-2.4-1.377,0-2.306,1.102-2.4,2.4h0Z"/><path class="f" d="M175.977,98.509c-6.378,0-11.211-5.923-11.211-16.394s5.841-15.689,11.214-15.689c5.464,0,12.739,4.309,12.739,15.689,0,9.897-5.627,16.394-12.741,16.394Z"/><path class="d" d="M175.977,96.109c-1.902-.024-3.656-.707-5.079-2.126-1.696-1.691-2.717-4.211-3.249-6.711-1.191-5.59-.628-12.779,3.819-16.687.475-.417,1.786-1.18,2.231-1.333.477-.164.961-.293,1.457-.384.282-.052-.03,0-.075.005.111-.013.225-.025.338-.029.289-.009.574-.023.863-.015.239.007.477.026.716.044.47.034-.273-.065.197.025.501.095.997.204,1.485.353.871.267,1.46.524,2.47,1.177,1.645,1.062,3.102,2.823,3.978,4.927,1.22,2.931,1.421,6.342,1.043,9.473-.354,2.931-1.44,6-3.428,8.168-1.842,2.008-4.181,3.079-6.766,3.111-3.086.038-3.095,4.838,0,4.8,7.332-.091,12.68-5.764,14.397-12.583,1.733-6.886.756-15.604-4.838-20.547-4.194-3.706-10.451-5.069-15.431-2.089-6.665,3.988-8.365,12.682-7.551,19.85.464,4.084,1.669,8.1,4.408,11.254,2.274,2.62,5.565,4.071,9.016,4.115,3.09.039,3.092-4.761,0-4.8Z"/><path class="d" d="M170.929,97.298c-3.388,6.121-7.388,12.154-13.265,16.152-3.135,2.132-6.574,3.931-10.215,5.014-3.846,1.144-7.712,1.554-11.709,1.704-3.079.115-3.094,4.916,0,4.8,4.401-.164,8.75-.616,12.985-1.875,4.023-1.196,7.896-3.14,11.362-5.498,6.585-4.479,11.177-10.99,14.987-17.874,1.497-2.705-2.647-5.129-4.145-2.423h0Z"/><path class="d" d="M130.874,122.31c-.225-3.205,2.221-5.356,6.559-5.509,4.367-.154,6.581,1.587,6.712,4.107.133,2.54-1.891,5.613-6.261,5.9-3.945.259-6.828-1.622-7.01-4.498Z"/><path class="d" d="M133.274,122.31c-.015-.257-.003-.51-.002-.766.002-.524-.135.557-.011.058.023-.092.038-.186.062-.279.035-.137.083-.268.123-.403.082-.271.13.011-.082.188.099-.082.387-.596.426-.712-.118.356-.284.331-.11.16.102-.1.194-.207.299-.304,0,0,.214-.166.218-.191-.026.19-.417.291-.006.024.219-.143.45-.258.68-.382.223-.12.088-.159-.124.045.096-.093.347-.129.481-.172.285-.092.575-.167.868-.229.186-.039.373-.07.56-.102-.088.015-.513.048-.049.011.78-.062,1.559-.089,2.34-.028.132.01.264.025.396.037-.616-.059-.008.005.107.027.284.055.566.123.842.209.104.032.206.072.309.104.522.159-.463-.256-.002-.001.227.125.452.289.683.399.261.124-.407-.419-.112-.083.056.064.131.119.192.18.029.029.27.248.259.287-.052.178-.31-.521-.152-.18.047.101.124.233.189.324.208.293-.284-.181-.088-.232.069-.018.162.684.203.73-.187-.207-.038-.578-.032-.185.002.106.011.211.011.317,0,.085-.008.169-.008.254,0,.562-.026-.148.028-.124.036.016-.142.614-.151.645-.026.086-.059.171-.085.257-.132.43.281-.506-.002-.004-.105.185-.199.374-.316.553-.256.393-.172.023.033-.016-.028.005-.159.188-.193.226-.171.19-.361.357-.546.532-.388.368.449-.273-.017.011-.14.085-.273.181-.415.263-.122.071-.249.131-.372.2-.435.243.004-.026.015.006.009.026-.843.273-.877.282-.125.032-.251.061-.377.087-.097.02-.741.093-.161.039-.383.035-.764.061-1.149.06-.364,0-.724-.026-1.086-.059.623.058.013-.006-.104-.029-.177-.036-.353-.077-.528-.124-.141-.038-.281-.081-.419-.128-.082-.027-.163-.055-.243-.086-.247-.098-.211-.082.109.047-.152.049-.639-.355-.772-.432-.425-.249.092-.013.05.053.001-.002-.292-.261-.335-.304-.037-.036-.261-.329-.3-.328.121-.002.319.471.034.011-.059-.096-.105-.232-.177-.317-.081-.164-.05-.083.092.242-.036-.091-.069-.182-.099-.275-.03-.093-.056-.189-.079-.284-.162-.669.009.332-.026-.108-.1-1.248-1.032-2.461-2.4-2.4-1.214.054-2.508,1.06-2.4,2.4.139,1.731.779,3.35,2.069,4.556,1.26,1.178,2.908,1.928,4.607,2.183,3.796.569,7.728-.421,10.047-3.648,1.812-2.521,1.818-6.085-.224-8.457-2.343-2.722-6.715-2.887-9.972-2.262-3.73.717-6.753,3.664-6.527,7.628.071,1.251,1.053,2.46,2.4,2.4,1.239-.056,2.476-1.058,2.4-2.4Z"/></g></svg>