<svg xmlns="http://www.w3.org/2000/svg" width="333.691" height="314.867" viewBox="0 0 333.691 314.867"><defs><style>.a{fill:#fff;}.b{fill:#3d8dcc;}.c{fill:#b3b3b3;}.d{fill:#211715;}.e{fill:#ffda71;}.f{fill:#645d5c;}.g{fill:none;}</style></defs><path class="a" d="M188.478,116.62a62.622,62.622,0,0,1-12.957,4.062c-1.522.251-3.082.428-4.7.531-10.069.638-18.332-2.207-26.023-8.828-7.336-6.315-10.354-16.06-11.261-26.775-.524-6.179-.945-12.891-1.661-19.606,0,0-6.659-29.137,38.674-29.137S216.4,70.838,216.4,70.838a6.788,6.788,0,0,1,4.926-.957,6.131,6.131,0,0,1,5,3.635c1.4,3.3.519,8.879-1.215,12.166a17.768,17.768,0,0,1-6.91,7.734,12.935,12.935,0,0,1-7.024,1.265c-.333.647-.546,1.064-.546,1.064-.808,1.584-2.7,4.345-2.7,4.345a56.875,56.875,0,0,1-6.517,7.744,54.868,54.868,0,0,1-12.941,8.786"/><path class="a" d="M188.478,116.62a62.622,62.622,0,0,1-12.957,4.062c-1.522.251-3.082.428-4.7.531A35.8,35.8,0,0,1,157.45,119.7l-.042-.014c.4,3.228.732,5.888.732,5.888.979,11.126,9.089,46.68,14.017,60.055,1.4,3.793,2.473,6.588,3.64,9.548.97,2.462,2,5.039,3.336,8.4l2.118-.41c1.015-2.26,2.5-5.714,4.266-9.924,5.864-14,14.786-36.353,19.583-51,2.829-8.635,6.262-17.5,8.477-27.708-1.369-1-2.33-1.717-2.33-1.717a30.957,30.957,0,0,1-5.693-9.116c-.957.928-2.223,2.2-3.1,3.087q-.5.528-1.034,1.049a54.868,54.868,0,0,1-12.941,8.786"/><path class="b" d="M179.133,203.572c-2.936-7.4-4.417-11-6.976-17.947-.458-1.243-.943-2.677-1.449-4.266.456-13.689.7-15.259,2.039-25.251.406-3.025,1.183-6.584,1.815-9.83-1.064-2.54-2.876-7.156-3.876-9.97l-.228-.642c2.329-2.4,4.4-4.275,7.04-6.567,2.574,1.681,7.078,4.393,10.983,7.059-1.2,3.7-2.382,8.029-3.412,11.738.04,1.23,3.14,19.78,4.11,23.68l1.664,6.691.308,1.237c-4.131,10.268-7.917,19.242-9.9,23.658Z"/><path class="c" d="M98.611,215.12c-3.76-9.924-7.03-20.9-9.892-30.947l27.117-30.843a65.7,65.7,0,0,1,5-11.1,25.957,25.957,0,0,1,7.855-7.55c7.254-4.6,20.324-9.659,29.15-12.6.174,2.016.3,3.488.3,3.488.979,11.126,9.089,46.68,14.017,60.055,2.559,6.947,4.04,10.547,6.976,17.947l2.118-.41c4.39-9.774,17.609-41.872,23.849-60.923,2.829-8.636,6.263-17.5,8.466-27.716,2.878,2.1,7.573,5.434,8.918,5.883,6.626,2.212,15.1,5.277,21.75,7.681,7.775,2.81,14.3,6.308,20.011,12.29,5.128,5.377,10.249,16.539,14.017,28.362,8.056,25.278,13.322,52.111,13.319,64.179a58.134,58.134,0,0,1-1.847,12.877c-1.666,4.917-3.484,10.107-10.25,15.167-9.583,7.166-25,13.166-33.389,15.944H177.73Z"/><path class="a" d="M229.875,275.229,182.4,273.072c3.867,12.318,7.528,24,10.055,32.078a5.638,5.638,0,0,1-2.787,6.692l-.566.293.808-.337c12.084-5.042,51.207-22.425,58.625-25.834l-4.566-13.208A32.4,32.4,0,0,1,229.875,275.229Z"/><path class="a" d="M220.857,282.24c-4.154,3.339-7.291,7.869-11.591,12.351-.618.644-3.15,2.333-5.1.827-1.284-.989-1.469-3.476-1.005-4.491,2.528-5.526,3.563-7.2,5.442-11.069-2.289,2.412-4.075,4.434-6.787,7.174l-2.763,2.793-3.471,3.509s-2.454,2.62-5.114,5.464c-2.829-9.036-6.463-20.621-10.132-32.305,3.319-4.163,6.241-8.858,10.294-12.418a18.32,18.32,0,0,1,10.234-4.814,25.234,25.234,0,0,1,4.749.161q4.506.461,8.982,1.174c5.422.865,11.495,1.878,15.836-1.792,5.62,4.974,10.722,14.79,13.539,23.952a22.192,22.192,0,0,0-2.914,1.7c-.627.429-2.645,2.216-3.312,2.578a46,46,0,0,1-16.549,5.114"/><path class="d" d="M286.318,257.091q7.556,0,15.113-.025l23.885-.038q3.029,0,6.057-.009c3.088,0,3.093-4.8,0-4.8q-7.81,0-15.622.024l-23.744.039q-2.844,0-5.689.009c-3.089,0-3.094,4.8,0,4.8Z"/><path class="d" d="M7.005,257.1c8.082,0,16.164-.047,24.245-.069,1.375,0,2.749-.01,4.123-.01,3.089,0,3.094-4.8,0-4.8-8.218,0-16.436.046-24.654.069-1.238,0-2.476.01-3.714.01-3.088,0-3.093,4.8,0,4.8Z"/><path class="d" d="M246.733,279.22a170.1,170.1,0,0,0,20.379-8.226c7.284-3.52,15.053-7.663,20-14.253,4.169-5.551,5.783-12.475,6.542-19.24.666-5.926-.009-11.814-.832-17.694a313.337,313.337,0,0,0-12.32-51.933c-2.731-8.514-6.026-17.252-11.043-24.713-4.467-6.642-11.094-11.539-18.32-14.84-3.915-1.788-8-3.176-12.042-4.632-4.253-1.53-8.51-3.049-12.786-4.516-.941-.323-1.88-.655-2.827-.96-.561-.18-.405-.193-.141-.025-.183-.116-.4-.2-.589-.307-1-.553-1.947-1.2-2.891-1.834-2.109-1.426-4.174-2.919-6.224-4.429q-.592-.436-1.183-.876a2.413,2.413,0,0,0-3.283.861,2.456,2.456,0,0,0,.861,3.283,103.761,103.761,0,0,0,10.069,7.009,19.665,19.665,0,0,0,3.591,1.449q2.975,1.01,5.935,2.055c4.044,1.422,8.078,2.875,12.109,4.331,7.55,2.728,14.673,6.088,20.371,11.894a37.068,37.068,0,0,1,5.9,8.444,96.053,96.053,0,0,1,5.3,11.726,256.818,256.818,0,0,1,8.266,27.133c2.14,8.287,4.024,16.649,5.5,25.08,2.042,11.652,3.707,23.957-1.132,35.181-3.077,7.136-9.414,11.354-16,14.966a144.758,144.758,0,0,1-20.407,9.026q-2.026.732-4.073,1.412c-2.917.969-1.667,5.606,1.276,4.628Z"/><path class="d" d="M232.655,241.485c4.927-2.089,9.661-4.524,14.473-6.855a2.412,2.412,0,0,0,.861-3.283,2.461,2.461,0,0,0-3.283-.861c-4.812,2.33-9.547,4.765-14.474,6.854a2.407,2.407,0,0,0-.861,3.284,2.477,2.477,0,0,0,3.284.861Z"/><path class="d" d="M235.838,196.267l7.318,26.786c.813,2.976,5.445,1.712,4.628-1.276l-7.318-26.786c-.813-2.977-5.445-1.713-4.628,1.276Z"/><path class="d" d="M228.294,247.427c-3.41,2.176-7.642,1.691-11.454,1.109-4.715-.72-9.536-1.662-14.317-1.728-9.747-.136-16.147,7.638-21.444,14.767a2.415,2.415,0,0,0,.861,3.283,2.455,2.455,0,0,0,3.283-.861c2.5-3.366,5.095-6.93,8.554-9.386a16.559,16.559,0,0,1,5.31-2.608,17.516,17.516,0,0,1,6.286-.2c4.454.442,8.844,1.278,13.286,1.789,4.129.475,8.457.283,12.057-2.016,2.6-1.657.191-5.813-2.422-4.144Z"/><path class="d" d="M191.235,264.9l-7.34,7.277a2.4,2.4,0,1,0,3.394,3.394l7.34-7.276a2.4,2.4,0,1,0-3.394-3.395Z"/><path class="d" d="M191.915,285.784c3.7-4.325,7.756-8.348,11.8-12.348a2.4,2.4,0,0,0-3.394-3.394c-4.048,4-8.1,8.022-11.8,12.348a2.4,2.4,0,0,0,3.394,3.394Z"/><path class="d" d="M197.276,295.031c2.726-2.755,5.487-5.481,8.162-8.287,2.363-2.478,4.653-5.024,7.059-7.462a2.4,2.4,0,0,0-3.394-3.394c-2.406,2.438-4.7,4.983-7.06,7.462-2.674,2.806-5.435,5.532-8.161,8.287a2.4,2.4,0,0,0,3.394,3.394Z"/><path class="d" d="M221.192,284.549a52.414,52.414,0,0,0,14.245-3.738,22.131,22.131,0,0,0,5.341-3.073c.329-.266.655-.537.983-.806.161-.131.321-.263.483-.393.309-.246-.268.19-.038.032a25.458,25.458,0,0,1,2.99-1.752,2.4,2.4,0,1,0-2.423-4.145,24.869,24.869,0,0,0-4.619,3.039,17.315,17.315,0,0,1-1.428,1.129,22.276,22.276,0,0,1-2.93,1.48,44.369,44.369,0,0,1-12.6,3.427,2.478,2.478,0,0,0-2.4,2.4,2.413,2.413,0,0,0,2.4,2.4Z"/><path class="d" d="M227.857,249.774c3.867,2.884,6.681,7.51,8.922,11.765a68.526,68.526,0,0,1,6,16c.716,3,5.346,1.732,4.629-1.276a73.53,73.53,0,0,0-6.674-17.5c-2.641-4.942-5.923-9.753-10.457-13.135a2.415,2.415,0,0,0-3.283.861,2.457,2.457,0,0,0,.861,3.284Z"/><path class="d" d="M205.809,280.106c-.981,1.959-2,3.9-2.961,5.866a40.916,40.916,0,0,0-2.032,4.384,6.956,6.956,0,0,0-.033,3.9,5.481,5.481,0,0,0,7.5,3.709c2.884-1.146,4.785-3.93,6.747-6.209a61.193,61.193,0,0,1,7.527-7.817,2.417,2.417,0,0,0,0-3.394,2.457,2.457,0,0,0-3.4,0c-4.423,3.6-7.649,8.356-11.63,12.391-.063.063-.405.325-.136.13.287-.209-.313.184-.38.223-.112.063-.57.269-.219.132-.141.055-.712.219-.583.2a.585.585,0,0,1-.609-.109c.232.136-.134-.229.081.1a3.585,3.585,0,0,1-.212-.371c.112.221.045.153,0-.038-.049-.217-.115-.428-.153-.648.078.455.016-.171.009-.324,0-.1.02-.2.01-.3,0,.052-.119.4-.025.177.031-.074.031-.17.057-.248.119-.352-.109.215.075-.177.531-1.13,1.054-2.263,1.6-3.386.943-1.932,1.944-3.834,2.906-5.755a2.459,2.459,0,0,0-.861-3.284,2.423,2.423,0,0,0-3.283.861Z"/><path class="d" d="M190.546,314.112c7.83-3.27,15.592-6.7,23.358-10.12q13.451-5.917,26.867-11.912c3-1.339,5.992-2.674,8.974-4.043a2.42,2.42,0,0,0,.861-3.284,2.456,2.456,0,0,0-3.284-.861c-15.649,7.186-31.447,14.073-47.236,20.945q-3.173,1.38-6.35,2.748-1.329.57-2.659,1.137c-.2.084-1.358.574-.76.322q-.524.221-1.047.439a2.48,2.48,0,0,0-1.676,2.953,2.415,2.415,0,0,0,2.952,1.676Z"/><path class="a" d="M32.237,216.316c30.789.512,101.073.671,126.168.839a8.789,8.789,0,0,1,8.329,6.14c5.972,18.886,19.4,61.642,25.719,81.855a5.633,5.633,0,0,1-5.4,7.317c-27.194-.1-100.462-.359-128.632-.93a5.62,5.62,0,0,1-5.263-3.963c-5.556-17.963-19.82-63.231-26.392-83.911A5.639,5.639,0,0,1,32.237,216.316Z"/><path class="d" d="M32.237,218.716c14.38.238,28.762.33,43.144.423q25.2.162,50.4.257,10.6.047,21.2.1,4.14.021,8.28.044c3.068.018,6.222-.167,8.25,2.622a14.984,14.984,0,0,1,1.753,4.442l1.413,4.479q1.686,5.346,3.369,10.692,3.912,12.424,7.814,24.852,3.846,12.243,7.685,24.49,1.619,5.164,3.236,10.33c.776,2.48,3.052,6.783-.325,8.327-1.137.521-2.6.294-3.828.29l-3.975-.014-9.171-.035q-10.963-.042-21.926-.092-24.941-.115-49.882-.3c-13.49-.105-26.983-.206-40.471-.469-1.506-.03-2.928-.387-3.617-1.89a32.139,32.139,0,0,1-1.2-3.822q-1.444-4.653-2.9-9.3Q47.857,282.52,44.2,270.911q-7.176-22.818-14.4-45.621c-.421-1.326-1.2-2.86-.774-4.24a3.287,3.287,0,0,1,3.211-2.334c3.087-.04,3.095-4.841,0-4.8a8.134,8.134,0,0,0-7.955,9.717,47.169,47.169,0,0,0,1.424,4.62q.786,2.478,1.571,4.957,3.755,11.855,7.491,23.714,7.407,23.493,14.748,47.007c1.1,3.547,1.849,7.463,5.562,9.211,2.806,1.322,6.54.858,9.59.906q10.269.16,20.538.248,25.367.246,50.735.355,22.468.117,44.936.194l4.051.015a13.2,13.2,0,0,0,5.08-.562,8.139,8.139,0,0,0,4.779-5.2c.653-2.148.116-4.154-.528-6.212q-3.466-11.082-6.944-22.162-7.822-24.934-15.675-49.858c-1.013-3.216-1.78-6.721-3.214-9.777-2.032-4.33-6.347-6.314-10.932-6.343q-8.967-.057-17.935-.092-24.9-.114-49.795-.233c-16.192-.089-32.384-.184-48.575-.382q-4.476-.054-8.952-.126C29.147,213.865,29.147,218.665,32.237,218.716Z"/><path class="d" d="M86.4,184.812c2.97,10.414,6.065,20.81,9.893,30.946a2.467,2.467,0,0,0,2.952,1.677,2.42,2.42,0,0,0,1.676-2.953C97.1,204.346,94,193.95,91.033,183.535c-.846-2.965-5.479-1.7-4.629,1.277Z"/><path class="a" d="M22.841,137.069a3.315,3.315,0,0,1-1.582-1.9,72.428,72.428,0,0,1-3.375-13.559s.024-.5.055-1.192a86.943,86.943,0,0,0,17.273-2.781c.337.6.592,1.046.592,1.046.855.619,2.194,8.989,2.446,12.584a6.128,6.128,0,0,1-.158,1.888,5.39,5.39,0,0,1-2.179,2.493,62.394,62.394,0,0,1-9.549,1.768,6.873,6.873,0,0,1-3.395-.284C22.925,137.114,22.883,137.091,22.841,137.069Z"/><path class="e" d="M28.851,79.9c.615.19,1.245.415,1.886.681a19.668,19.668,0,0,1,8.6,6.584,19.829,19.829,0,0,1,3.548,9.154,23.833,23.833,0,0,1-.639,9.494,27.056,27.056,0,0,1-2.586,6.735,25.749,25.749,0,0,1-3.454,4.807,83.386,83.386,0,0,1-19.588,3.095c-4.067-.849-8.813-5.856-10.534-9.08a26.9,26.9,0,0,1-2.874-7.436,22.813,22.813,0,0,1,.028-8.805,19.593,19.593,0,0,1,5.27-10.4,20.179,20.179,0,0,1,7.2-4.433,20,20,0,0,1,4.173-1.141A20.55,20.55,0,0,1,28.851,79.9Z"/><path class="d" d="M28.213,82.216c.506.161,1.008.331,1.5.526q.262.1.522.213-.477-.2-.088-.034c.573.262,1.141.53,1.693.833a17.052,17.052,0,0,1,3.865,2.862,17.34,17.34,0,0,1,4.8,9.931,24.3,24.3,0,0,1-6,19.112l1.059-.617A75.534,75.534,0,0,1,20.007,117.9a9.476,9.476,0,0,1-3.635,0,11.163,11.163,0,0,1-2.994-1.745,20.1,20.1,0,0,1-4.885-5.4A21.517,21.517,0,0,1,5.625,95.4a16.653,16.653,0,0,1,8.639-11.867,21.829,21.829,0,0,1,6.4-2.088c-.714.118.39-.031.718-.052.582-.036,1.167-.045,1.75-.03a19.566,19.566,0,0,1,5.078.85c2.968.877,4.236-3.754,1.276-4.629-8.924-2.637-19.122.294-24.755,7.878a23.614,23.614,0,0,0-4.168,11.3,26.129,26.129,0,0,0,3.571,16.05A22.273,22.273,0,0,0,14.5,122.3c2.234.9,4.742.5,7.083.258,2.723-.28,5.436-.69,8.125-1.2,2.07-.395,4.134-.844,6.167-1.4a4.91,4.91,0,0,0,2.771-1.754,30.058,30.058,0,0,0,2.49-3.427A30.988,30.988,0,0,0,45.312,102.4a23.616,23.616,0,0,0-3.625-16.05,23.02,23.02,0,0,0-12.2-8.764C26.538,76.649,25.275,81.281,28.213,82.216Z"/><path class="d" d="M21.508,131.423A147.184,147.184,0,0,0,37.019,128.5a2.424,2.424,0,0,0,1.676-2.952,2.449,2.449,0,0,0-2.953-1.676c-2.373.583-4.765,1.093-7.165,1.556q-1.887.364-3.782.685-.916.154-1.835.3c-.316.048-.631.1-.947.142-.088.012-1.019.142-.505.073a2.468,2.468,0,0,0-2.4,2.4c.052,1.157,1.067,2.579,2.4,2.4Z"/><path class="d" d="M15.484,121.613a24.2,24.2,0,0,0,.666,4.145q.6,2.831,1.38,5.622a35.9,35.9,0,0,0,1.714,5.139c1.08,2.412,3.465,3.419,6,3.379a42.581,42.581,0,0,0,6.11-.791,28.776,28.776,0,0,0,5.126-1.114,6.641,6.641,0,0,0,4.047-4.794,21.148,21.148,0,0,0-.336-6.025c-.272-2-.589-3.99-1.016-5.958-.289-1.33-.576-3.287-1.671-4.227a2.462,2.462,0,0,0-3.395,0,2.422,2.422,0,0,0,0,3.394c.055.047-.428-.625-.119-.109-.24-.4-.132-.363-.014.016.182.585.338,1.175.475,1.773.348,1.522.615,3.064.853,4.608q.079.511.153,1.025c-.01-.073.1.757.062.434s.061.477.053.414c.087.694.167,1.388.229,2.084.029.322.061.646.064.97,0,.2-.044.457-.023.662-.029-.283-.081.447.046-.02.112-.407-.084.141-.126.209-.085.137-.165.277-.257.41-.287.418-.171.234-.108.157-.023.027-.421.6-.282.343l-.2.125c.247-.1.293-.121.139-.066s-.29.092-.435.134c-.276.08-.554.149-.833.216-.852.2-1.713.366-2.575.519-.843.15-1.689.285-2.536.412-.445.067-.89.13-1.335.193-.06.009-.485.066-.1.014-.222.03-.445.06-.667.087a9.761,9.761,0,0,1-2.2.076,1.213,1.213,0,0,1-.626-.265c.155.129-.207-.386-.047-.087-.041-.078-.354-.75-.192-.354a37.029,37.029,0,0,1-1.312-4.13q-.745-2.679-1.339-5.4c-.162-.741-.316-1.483-.446-2.23-.048-.274-.089-.548-.132-.823.124.8.014.026.007-.168-.1-3.081-4.9-3.095-4.8,0Z"/><path class="d" d="M30.874,61.35q-1.206,3.072-2.448,6.132a2.4,2.4,0,0,0,.242,1.849,2.4,2.4,0,0,0,3.284.861l.485-.375a2.4,2.4,0,0,0,.618-1.059Q34.3,65.7,35.5,62.626a2.412,2.412,0,0,0-.242-1.85,2.4,2.4,0,0,0-3.284-.861l-.485.376a2.389,2.389,0,0,0-.618,1.059Z"/><path class="d" d="M20.174,65.484q-.286-1.566-.5-3.143l.085.638q-.167-1.251-.287-2.507a2.591,2.591,0,0,0-.7-1.7,2.4,2.4,0,0,0-3.394,0,2.34,2.34,0,0,0-.7,1.7c.2,2.106.492,4.206.872,6.288a2.418,2.418,0,0,0,1.1,1.434,2.456,2.456,0,0,0,1.85.242,2.429,2.429,0,0,0,1.434-1.1,2.7,2.7,0,0,0,.242-1.849Z"/><path class="d" d="M8.49,69.922c-1.4-1.733-2.846-3.437-4.391-5.045a2.46,2.46,0,0,0-1.7-.7,2.443,2.443,0,0,0-1.7.7,2.414,2.414,0,0,0-.7,1.7,2.542,2.542,0,0,0,.7,1.7C2.25,69.879,3.7,71.583,5.1,73.316a2.4,2.4,0,0,0,1.7.7,2.439,2.439,0,0,0,1.7-.7,2.411,2.411,0,0,0,.7-1.7l-.086-.638a2.4,2.4,0,0,0-.617-1.059Z"/><path class="d" d="M35.086,101.261a10.387,10.387,0,0,0-5.655-4.045c-2.309-.751-5.1-1.337-7.412-.37a7.613,7.613,0,0,0-4.2,4.643,6.62,6.62,0,0,0,2.544,7.35,6.868,6.868,0,0,0,7,.432c2.3-1.044,3.37-3.638,3.434-6.06.128-4.806-4.271-7.47-8.52-8.007a10.686,10.686,0,0,0-7.543,1.671c-2.693,1.914-3.88,4.871-4.269,8.052a2.413,2.413,0,0,0,2.4,2.4,2.46,2.46,0,0,0,2.4-2.4,5.34,5.34,0,0,1,5.329-5.04c.319,0,.639.011.957.037.161.012.324.026.484.048-.112-.016-.392-.069.087.026a9.847,9.847,0,0,1,1.87.529c-.363-.15.426.229.494.268.142.081.612.4.52.324-.207-.163.148.135.189.175.106.105.211.21.312.319.256.275-.174-.274.035.037a5.065,5.065,0,0,1,.284.476c-.2-.374.115.372.144.5.017.075.046.448.017.079a3.729,3.729,0,0,1,.011.381c0,.059-.031.6,0,.316s-.046.224-.059.276c-.042.169-.086.336-.138.5-.016.049-.193.5-.106.314-.126.275-.44.563-.025.256a2.161,2.161,0,0,1-.568.29,2.132,2.132,0,0,1-1.532.137,1.778,1.778,0,0,1-.867-.643,1.665,1.665,0,0,1-.387-1.306c.022-.132.255-.757.148-.52-.134.3.059-.1.1-.163.074-.123.144-.247.221-.368a2.346,2.346,0,0,1,.914-.842,1.276,1.276,0,0,1,.632-.209c-.279.046.177,0,.194,0a5.3,5.3,0,0,1,.618.043,16.258,16.258,0,0,1,2.59.549,6.882,6.882,0,0,1,1.975.835,4.138,4.138,0,0,1,1.231,1.132,2.457,2.457,0,0,0,3.284.861,2.422,2.422,0,0,0,.861-3.283Z"/><path class="f" d="M221.974,22.1c7.383,8.035,10.584,15.956,9.729,32.773-.334,6.593-2.624,12.848-5.378,18.637a6.13,6.13,0,0,0-5-3.631,6.788,6.788,0,0,0-4.926.957l-9.437-1.986-.469-2.1a35.871,35.871,0,0,0-3.4-9.523,24.582,24.582,0,0,0-11.656-10.854s-2.186-1.022-3.234-1.376c-4.84-1.632-17.551-2.788-17.551-2.788a141.219,141.219,0,0,0-17.44-.734,11.117,11.117,0,0,0-6.269,1.633c-2.388,1.7-3.416,4.73-4.937,7.27-2.641,4.408-8.147,6.354-9.435,11.423l-1.206.076a78.943,78.943,0,0,1-.5-11.632c.124-12.229,5.329-24.363,11.47-29.77a46.632,46.632,0,0,1,9.494-8.9,53.363,53.363,0,0,1,32.812-9.1c11.553.451,23.171,3.551,31.616,13.456Z"/><path class="g" d="M219.137,19.814c6.426,6.087,9.521,12.989,11.5,21.391a41.993,41.993,0,0,1,1.007,12.91c-.372,4.651-.87,15.6-4.407,21.408"/><path class="g" d="M211.161,13.727a46.72,46.72,0,0,0-30.919-9.468c-15.974.6-28.892,6.6-37.625,16.628-5.042,5.788-8.722,14.247-10.184,21.808a78.144,78.144,0,0,0,.206,26.823"/><path class="d" d="M174.7,77.734c-.535-2.2.194-7.131,4.3-7.309,5.4.355,5.327,6.37,3.341,9.081C180.723,81.726,176.29,82.425,174.7,77.734Z"/><path class="d" d="M142.587,76.826c-.484-2.2.2-7.154,3.96-7.343,4.942.343,4.863,6.377,3.037,9.1C148.09,80.815,144.028,81.527,142.587,76.826Z"/><path class="d" d="M158.887,82.2c-.718,1.142-1.415,2.306-2.029,3.507a5.524,5.524,0,0,0-.611,1.542,3.589,3.589,0,0,0,.043,1.674,3.17,3.17,0,0,0,.9,1.422,4.792,4.792,0,0,0,1.856,1.1,7.851,7.851,0,0,0,1.426.22l-.638-.085c.036,0,.071.01.106.017a2.6,2.6,0,0,0,1.849-.242,2.4,2.4,0,0,0,.861-3.284,2.337,2.337,0,0,0-1.434-1.1c-.36-.062-.724-.1-1.087-.143l.638.086a2.557,2.557,0,0,1-.582-.145l.574.242a2.324,2.324,0,0,1-.507-.3l.485.375a2.655,2.655,0,0,1-.363-.356l.375.486a.685.685,0,0,1-.076-.141l.242.573a.724.724,0,0,1-.04-.152l.086.638a1.431,1.431,0,0,1,0-.245l-.086.638a2.229,2.229,0,0,1,.144-.512l-.242.574A20.623,20.623,0,0,1,161.9,86.5q.55-.948,1.132-1.877a2.423,2.423,0,0,0-.861-3.284,2.451,2.451,0,0,0-3.284.861Z"/><path class="d" d="M217.612,72.91a4.89,4.89,0,0,1,4.56-.327,3.167,3.167,0,0,1,1.956,1.865q.137.3-.007-.021.1.282.188.573a7.747,7.747,0,0,1,.22.93,12.3,12.3,0,0,1,.071,2.419,16.534,16.534,0,0,1-1.091,5.091,16.292,16.292,0,0,1-5.171,7.037,7.882,7.882,0,0,1-3.712,1.654,7.2,7.2,0,0,1-4.567-.232,2.464,2.464,0,0,0-3.284.861,2.423,2.423,0,0,0,.861,3.284,13.063,13.063,0,0,0,10.454.045,17.464,17.464,0,0,0,7.961-7.191,22.119,22.119,0,0,0,3.281-9.653c.309-3.129-.118-6.6-2.307-9.011a9.661,9.661,0,0,0-11.836-1.469c-2.607,1.642-.2,5.8,2.423,4.145Z"/><path class="d" d="M159.316,103.114a14.912,14.912,0,0,0,7.127,1.562,14.585,14.585,0,0,0,3.585-.464,26.875,26.875,0,0,0,3.843-1.657,2.409,2.409,0,0,0,.861-3.284,2.472,2.472,0,0,0-3.284-.861c-.526.235-1.038.5-1.557.745l-.377.178c-.576.271.265-.076-.066.027-.207.064-.409.142-.618.2s-.427.112-.643.156c-.112.023-.223.044-.335.064-.069.011-.463.068-.112.022s-.051,0-.12.008c-.119.012-.238.022-.357.031q-.41.029-.82.034c-.492.007-.986-.011-1.477-.053-.122-.01-.245-.023-.367-.035-.406-.038.078-.026.091.017a4.473,4.473,0,0,0-.714-.122,12.139,12.139,0,0,1-1.429-.371c-.1-.034-.209-.07-.313-.108-.084-.031-.418-.1-.088-.027.31.067.025.012-.071-.037-.112-.057-.225-.112-.336-.171a2.4,2.4,0,1,0-2.423,4.145Z"/><path class="d" d="M189.69,118.692a54.73,54.73,0,0,0,13.238-8.984,51.831,51.831,0,0,0,5.718-6.554,44.231,44.231,0,0,0,4.059-6.2c1.429-2.735-2.712-5.164-4.145-2.423-4.719,9.029-12.366,15.64-21.293,20.015a2.422,2.422,0,0,0-.861,3.283,2.449,2.449,0,0,0,3.284.861Z"/><path class="d" d="M129.48,66c.789,7.472,1.033,15.011,1.957,22.465.765,6.169,2.237,12.305,5.314,17.76,6.106,10.828,18.59,17.3,30.827,17.467,7.72.1,15.073-1.984,22.112-5a2.415,2.415,0,0,0,.861-3.283,2.464,2.464,0,0,0-3.284-.861c-10.516,4.511-22.851,6.463-33.439,1.081a30.568,30.568,0,0,1-12.277-10.718,40.4,40.4,0,0,1-5.238-15.871c-1.058-7.623-1.225-15.381-2.033-23.036a2.469,2.469,0,0,0-2.4-2.4,2.416,2.416,0,0,0-2.4,2.4Z"/><path class="d" d="M217.964,14.238a40.323,40.323,0,0,0-22.2-12.809,62.144,62.144,0,0,0-26.594.021,52.521,52.521,0,0,0-23.081,11.631,44.287,44.287,0,0,0-4.8,4.895c-1.223,1.481-2.639,2.765-3.817,4.3a41.7,41.7,0,0,0-5.944,11.233c-3.768,10.357-3.662,21.626-2.009,32.394a2.417,2.417,0,0,0,2.953,1.676,2.46,2.46,0,0,0,1.676-2.952c-1.349-8.787-1.5-18.051.971-26.651a41.383,41.383,0,0,1,4.884-11,23.909,23.909,0,0,1,2.94-3.753c1.422-1.464,2.71-3.045,4.153-4.5,11.5-11.575,28.561-15.72,44.427-13.221,8.952,1.41,17.066,5.192,23.047,12.127a2.421,2.421,0,0,0,3.394,0,2.448,2.448,0,0,0,0-3.394Z"/><path class="d" d="M229.774,71.686a52.649,52.649,0,0,0,3.9-12.794,64.62,64.62,0,0,0,.475-12.667c-.313-6.3-1.565-12.545-4.693-18.079a42.96,42.96,0,0,0-5.788-7.741c-2.089-2.285-5.476,1.117-3.394,3.394a32.658,32.658,0,0,1,7.507,12.589c1.869,6.263,1.989,13.152,1.442,19.62a43.789,43.789,0,0,1-3.6,13.256,2.481,2.481,0,0,0,.861,3.283,2.416,2.416,0,0,0,3.284-.861Z"/><path class="d" d="M171.3,39.9a108,108,0,0,0-17.9-.824,16.211,16.211,0,0,0-5.943,1.055,10.642,10.642,0,0,0-4.582,3.847,53.218,53.218,0,0,0-2.654,4.712,14.663,14.663,0,0,1-2.987,3.564c-2.864,2.624-5.887,4.995-6.969,8.914-.823,2.982,3.806,4.255,4.628,1.276C135.64,59.727,137.98,58,140,56.207a23.867,23.867,0,0,0,3.319-3.5,32.536,32.536,0,0,0,2.457-4.254,9.484,9.484,0,0,1,2.558-3.39,8.688,8.688,0,0,1,4.886-1.191c2.469-.068,4.945-.015,7.414.053,1.731.048,3.462.116,5.191.223.8.049,1.6.106,2.4.177.385.035.771.073,1.155.116.135.015.27.03.405.047.476.058-.529-.08.239.032a2.479,2.479,0,0,0,2.952-1.676A2.416,2.416,0,0,0,171.3,39.9Z"/><path class="d" d="M190.232,48.447a23.069,23.069,0,0,1,8.928,7.1,31.154,31.154,0,0,1,5.021,11.846,2.4,2.4,0,1,0,4.628-1.276,34.91,34.91,0,0,0-5.673-13.224A27.865,27.865,0,0,0,192.655,44.3a2.464,2.464,0,0,0-3.284.861,2.422,2.422,0,0,0,.861,3.284Z"/><path class="d" d="M185.263,44.867c-.789-6.581-7.262-11.136-13.425-12.091a2.464,2.464,0,0,0-2.953,1.676,2.428,2.428,0,0,0,1.676,2.952,17.565,17.565,0,0,1,2.651.612c.377.12.746.259,1.116.4q.366.15-.119-.051l.295.134q.218.1.432.21a14.545,14.545,0,0,1,1.949,1.184c.162.117.4.432-.024-.027a5.261,5.261,0,0,0,.438.359q.366.312.709.649t.635.67c.113.128.223.257.331.389s.313.5-.068-.094c.317.493.666.952.945,1.47.119.22.22.447.331.671.184.376-.237-.62-.067-.152.039.107.08.213.117.32q.1.3.183.618c.062.254.171,1.121.048.1a2.461,2.461,0,0,0,2.4,2.4c1.172-.052,2.56-1.065,2.4-2.4Z"/><path class="d" d="M168.372,136.946c1.2,3.356,2.5,6.681,3.875,9.97V145.64a195.865,195.865,0,0,0-3.7,29.176c-.134,3.089,4.666,3.082,4.8,0a175.858,175.858,0,0,1,1.864-19.121c.289-1.881.659-3.748,1.032-5.613.195-.98.412-1.959.586-2.943a4.161,4.161,0,0,0-.418-2.616c-1.195-2.927-2.35-5.875-3.414-8.853a2.461,2.461,0,0,0-2.952-1.676,2.42,2.42,0,0,0-1.676,2.952Z"/><path class="d" d="M186.165,135.518c-.769,2.386-1.469,4.792-2.148,7.2-.471,1.672-1.376,3.663-1.329,5.4a45.126,45.126,0,0,0,.869,5.825c.9,5.532,1.805,11.074,2.933,16.565.392,1.907.891,3.791,1.357,5.681.739,3,5.369,1.728,4.628-1.276-2.18-8.838-3.662-17.838-5-26.84.109.735-.031.169-.006-.147-.034.427.322-.876.379-1.084q.3-1.093.608-2.185c.738-2.635,1.5-5.265,2.335-7.87.95-2.947-3.683-4.209-4.628-1.276Z"/><path class="d" d="M175.114,149.54c2.778-.109,5.558-.225,8.338-.274a2.4,2.4,0,0,0,0-4.8c-2.78.049-5.56.165-8.338.274a2.4,2.4,0,0,0,0,4.8Z"/><path class="d" d="M223.7,129.258a30.534,30.534,0,0,1,2.653,4.664,11.774,11.774,0,0,1,1.141,3.125v-1.276q.992-1.36.507-.921.57-.426.256-.21a2.284,2.284,0,0,0-.343.21c-.382.229-.778.437-1.171.644-1.074.566-2.164,1.1-3.255,1.636-2.232,1.092-4.481,2.149-6.718,3.231a2.424,2.424,0,0,0-.485,3.769c2.033,2.188,4.083,4.362,6.064,6.6.588.664,2,1.76,2.043,2.722.027.588-.652,1.3-.972,1.782-2.032,3.1-4.023,6.225-6.012,9.352-5.213,8.194-10.391,16.41-15.662,24.567-2.947,4.559-5.919,9.1-8.962,13.6-1.736,2.565,2.421,4.969,4.145,2.422,10.673-15.77,20.477-32.1,30.952-48a6.215,6.215,0,0,0,1.276-4.091,7.9,7.9,0,0,0-2.319-4.5c-2.319-2.678-4.749-5.254-7.159-7.848l-.486,3.77c3.67-1.776,7.477-3.383,11.007-5.431a4.323,4.323,0,0,0,1.665-1.413,3.667,3.667,0,0,0-.095-3.138,32.326,32.326,0,0,0-3.925-7.689,2.465,2.465,0,0,0-3.284-.861,2.421,2.421,0,0,0-.861,3.284Z"/><path class="d" d="M166.354,199.305a425.839,425.839,0,0,1-20.2-39.99,31.093,31.093,0,0,0-1.524-3.472c-.1-.167-.233-.854-.22-.118.012.652.223.006.434-.262q.544-.693,1.107-1.369a52.708,52.708,0,0,1,4.664-4.928,2.414,2.414,0,0,0,0-3.394l-6.012-5.026a2.466,2.466,0,0,0-3.394,0,2.42,2.42,0,0,0,0,3.394l6.011,5.026v-3.394a52.166,52.166,0,0,0-4.385,4.6c-1.416,1.677-3.633,3.676-3.079,6.092a18.767,18.767,0,0,0,1.308,3.128q.747,1.706,1.5,3.406,1.329,2.993,2.692,5.969c3.23,7.048,6.647,14.008,10.312,20.842,2.15,4.009,4.376,7.977,6.642,11.922,1.539,2.678,5.688.263,4.145-2.423Z"/><path class="d" d="M155.74,125.57c.843,9.371,3.081,18.708,5.163,27.861a313.537,313.537,0,0,0,8.174,30.655c2.3,6.806,5.094,13.451,7.742,20.124a2.473,2.473,0,0,0,2.952,1.676,2.416,2.416,0,0,0,1.677-2.952c-2.466-6.212-5.008-12.4-7.25-18.7-1.509-4.242-2.738-8.587-3.918-12.929q-4.421-16.258-7.655-32.828c-.494-2.527-.962-5.059-1.374-7.6-.17-1.043-.33-2.087-.472-3.133.066.486,0-.033-.027-.225-.026-.212-.052-.423-.076-.634q-.076-.657-.136-1.315a2.464,2.464,0,0,0-2.4-2.4,2.419,2.419,0,0,0-2.4,2.4Z"/><path class="d" d="M210.94,115.338c-1.808,7.763-4.443,15.272-7,22.81-1.916,5.648-3.811,11.294-5.876,16.89-4.264,11.556-8.821,23.007-13.538,34.386-1.766,4.26-3.419,8.227-5.348,12.527a2.475,2.475,0,0,0,.861,3.284,2.419,2.419,0,0,0,3.284-.861c4.071-9.075,7.792-18.318,11.473-27.556,4.547-11.41,8.966-22.883,12.818-34.548,2.811-8.509,5.918-16.913,7.954-25.655.7-3.006-3.927-4.289-4.628-1.277Z"/><path class="d" d="M169.993,139.657a114.724,114.724,0,0,1,9.2-8.861l-2.908.375c4.4,2.863,8.926,5.52,13.177,8.6a2.419,2.419,0,0,0,3.284-.861,2.455,2.455,0,0,0-.861-3.284c-4.252-3.082-8.78-5.74-13.178-8.6a2.45,2.45,0,0,0-2.908.376,114.551,114.551,0,0,0-9.2,8.861c-2.089,2.271,1.3,5.674,3.394,3.394Z"/><path class="d" d="M118.151,153.968a56.877,56.877,0,0,1,3.806-8.849,21.513,21.513,0,0,1,6.657-7.5c5.7-4.062,12.533-6.753,19.013-9.289q5.683-2.225,11.482-4.142c2.92-.964,1.669-5.6-1.276-4.629a201.912,201.912,0,0,0-22,8.609c-6.721,3.134-13.743,6.94-17.527,13.622a60.015,60.015,0,0,0-4.784,10.9c-.957,2.945,3.677,4.206,4.629,1.276Z"/><path class="a" d="M117.476,149.164a30.451,30.451,0,0,1-4.1,19.174c1.36,3.694.576,1.331,1.231,4.632l.071.359c-6.5,2.322-17.012,5.366-24.447,7.567l-.427-2a10.452,10.452,0,0,0-1.528-4.6,24.84,24.84,0,0,0-4.208-4.625,95.413,95.413,0,0,1-7.445-8.375c-1.3-1.52-2.448-5.348-1.976-7.487a12.433,12.433,0,0,1,3.171-6.679,4.459,4.459,0,0,1,3.529-1.039c-.111-.22-.182-.364-.182-.364a5.633,5.633,0,0,1-.833-4.653c.654-2.116,1.66-2.515,3.458-2.875a4.1,4.1,0,0,1,1.014-.044c-1.451-1.9-.611-3.948.75-5.268a6.175,6.175,0,0,1,4.055-1.82,16.754,16.754,0,0,1,2.614.029l-.868-2.266q-2.436-6.668-4.866-13.338a18.144,18.144,0,0,1-.981-3.352,6.783,6.783,0,0,1,1.259-5.38c1.143-1.332,3.339-1.359,5.009-.63,1.832.8,2.791,2.334,3.86,4.265,3.472,6.269,7.83,18.651,9.623,25.621l.457,1.775c2.4-.731,4.946-1.043,7.013.24,1.735,1.078,2.689,3.049,3.354,4.98A29.383,29.383,0,0,1,117.476,149.164Z"/><path class="d" d="M93.67,128.191c-1.65-4.514-3.31-9.024-4.941-13.544-.614-1.7-1.3-3.551-.675-5.353.465-1.326,1.494-1.515,2.765-.979,1.384.585,2.135,2.177,2.811,3.41.72,1.315,1.368,2.667,1.984,4.033,1.47,3.262,2.739,6.615,3.929,9.987,1.267,3.591,2.446,7.222,3.4,10.908.775,2.988,5.406,1.722,4.628-1.276a134.794,134.794,0,0,0-8.233-22.955c-1.677-3.6-3.666-7.937-7.91-8.934a6.464,6.464,0,0,0-6.47,1.711,8.9,8.9,0,0,0-1.878,6.741c.334,2.956,1.674,5.786,2.685,8.559q1.635,4.485,3.274,8.968a2.464,2.464,0,0,0,2.952,1.676,2.42,2.42,0,0,0,1.677-2.952Z"/><path class="d" d="M87.507,161.731c2.515,1.937,5.442,3.784,8.608,1.939A6.775,6.775,0,0,0,98.446,155a24.514,24.514,0,0,0-4.459-4.968,21.5,21.5,0,0,0-5.944-4.354c-2.8-1.286-5.729-2.41-8.859-1.827-2.846.531-4.759,3.233-5.872,5.736a12.057,12.057,0,0,0-.765,8.911c.979,3.034,2.971,5.185,4.968,7.587,2.262,2.72,4.838,5.057,7.258,7.62,2.054,2.175,2.6,4.72,3.546,7.743a2.455,2.455,0,0,0,2.952,1.676,95.364,95.364,0,0,0,24.907-9.573,2.412,2.412,0,0,0,1.1-2.71c-.487-1.181-.9-2.4-1.318-3.6l-.242,1.849c4.867-8.514,5.978-19.68,1.874-28.734a9.213,9.213,0,0,0-5.306-5.158,12.062,12.062,0,0,0-7.261.29c-4.693,1.427-9.941,3.709-11.821,8.607a7.632,7.632,0,0,0,1.272,7.671c2.052,2.436,4.991,2.5,7.863,1.748,2.985-.785,1.719-5.416-1.276-4.628-1.489.392-2.834.6-3.447-1.1-.551-1.528.469-3.123,1.532-4.147a15.394,15.394,0,0,1,5.379-2.912c1.762-.663,3.812-1.451,5.729-1.114,1.782.312,2.713,1.927,3.314,3.488a26.049,26.049,0,0,1,1.492,5.967,28.674,28.674,0,0,1-1.2,12.49,24.7,24.7,0,0,1-1.222,3.087c-.576,1.2-1.652,2.471-1.31,3.869a26.047,26.047,0,0,0,1.319,3.6l1.1-2.711A90.661,90.661,0,0,1,90,178.5l2.953,1.676a52.968,52.968,0,0,0-2.318-6.522c-1.082-2.333-3.22-4.084-5.03-5.837a70.03,70.03,0,0,1-5.155-5.682c-1.549-1.869-2.844-3.183-3.473-5.6a7.45,7.45,0,0,1,1.076-5.692,8.011,8.011,0,0,1,1.608-2.141A4.333,4.333,0,0,1,81.7,148.5a15.214,15.214,0,0,1,6.042,2.467,24.374,24.374,0,0,1,3.776,3.363c.829.825,1.652,1.661,2.407,2.555.039.047.294.381.068.071a2.286,2.286,0,0,1,.309.464,4.273,4.273,0,0,1,0,.98c-.467,2.747-3.248.045-4.367-.817a2.415,2.415,0,0,0-3.284.861,2.462,2.462,0,0,0,.861,3.284Z"/><path class="d" d="M83.237,144.515a4.853,4.853,0,0,1-.3-.459c-.069-.121-.247-.571-.112-.2a6.5,6.5,0,0,1-.206-.671c-.016-.065-.1-.728-.073-.336a4.716,4.716,0,0,1,0-.761c-.031.36.094-.354.1-.378.022-.075.3-.712.061-.233.083-.166.174-.322.261-.485.272-.515-.241.446.022-.023a2.028,2.028,0,0,1,.165-.156q.206-.175-.19.151a1.766,1.766,0,0,1,.393-.218q-.471.19-.212.1c.076-.028.153-.054.231-.077a6.337,6.337,0,0,1,1.051-.254c-.521.066.234.034.282.036.236.01.472.034.707.061.1.01.7.11.237.028.275.048.547.1.818.165.542.13,1.075.3,1.607.463.454.142.907.285,1.356.441.226.079.448.163.672.247.458.171-.174-.111.3.13.421.215.823.438,1.223.69.341.214-.016-.037.16.121s.341.32.5.491q.16.189,0-.032c.07.094.136.19.2.29a5.672,5.672,0,0,1,.346.613q.11.228-.009-.035c.041.11.078.222.111.334a6.674,6.674,0,0,1,.182.8,2.412,2.412,0,0,0,2.953,1.676,2.467,2.467,0,0,0,1.676-2.952,8.649,8.649,0,0,0-5.135-6.24,21.608,21.608,0,0,0-7.9-2.092,6.6,6.6,0,0,0-5.977,2.974,7.845,7.845,0,0,0,.36,8.215,2.455,2.455,0,0,0,3.283.861,2.426,2.426,0,0,0,.861-3.283Z"/><path class="d" d="M86.446,136.137l0-.263c-.03.164-.027.162.01,0,.012-.054.175-.528.069-.287a4.346,4.346,0,0,1,.259-.461c.155-.254.071-.119.191-.252a7.039,7.039,0,0,1,.729-.695c-.265.221-.04.03.117-.067.127-.078.253-.157.383-.228.112-.061.474-.22.177-.1a5.421,5.421,0,0,1,.608-.191,3.353,3.353,0,0,1,.914-.139,17.523,17.523,0,0,1,2.8.095c.455.049-.257-.043.169.02q.307.046.614.1c.406.077.812.166,1.215.258a10.457,10.457,0,0,1,2.281.725,3.17,3.17,0,0,1,1.3,1.084,2.727,2.727,0,0,1,.52,1.867,2.4,2.4,0,0,0,4.8,0,7.852,7.852,0,0,0-3.7-6.811,16.891,16.891,0,0,0-7.194-2.048,11.289,11.289,0,0,0-7.218,1.161,7.622,7.622,0,0,0-3.846,6.234,2.4,2.4,0,0,0,4.8,0Z"/></svg>