<?xml version="1.0" encoding="UTF-8"?><svg id="b" xmlns="http://www.w3.org/2000/svg" width="419.437" height="296.89" viewBox="0 0 419.437 296.89"><defs><style>.d{fill:#3d8dcc;}.e{fill:#211715;}.f{fill:#fff;}.g{fill:#211715;}.h{fill:#c6c6c6;}.i{fill:#645d5c;}.j{fill:#febe69;}</style></defs><g id="c"><path class="f" d="M4.713,194.131c-.039-.232-.184-.416-.309-.609-.947-1.431-1.334-2.349-1.034-4.041.261-1.411,1.092-2.649,2.842-3.635,1.846-1.044,3.809-1.972,7.192-.909.454-2.378,3.77-3.683,6.09-4.157,2.233-.464,5.027.087,7.25.619,9.444,2.214,22.185,5.723,31.117,8.043l.532-.261c-2.107-4.427-3.229-8.864-3.886-12.789-.242-1.392.193-2.61.976-3.76.783-1.16,2.214-1.74,3.586-1.556,1.518.203,3.393,2.146,3.673,2.542,4.93,6.844,9.29,11.039,13.553,18.318,4.263,7.279,4.572,15.592,4.195,24.031l.097.193c-8.719,4.466-16.433,8.168-24.93,12.412-.01-.01-.01-.029-.019-.039-.416-.754-.86-1.537-1.556-2.03-.599-.416-1.324-.57-2.03-.725-12.982-2.91-34.877-12.045-43.413-18.318-1.199-.889-1.556-2.368-1.363-3.683-.039-.358.058-.696.251-1.005l-.522-.261c-2.426-1.943-3.229-5.336-2.417-7.704.077-.213.155-.445.126-.677Z"/><path class="f" d="M412.131,193.522c-.116.193-.261.377-.3.609s.048.464.126.677c.802,2.368,0,5.761-2.417,7.704l-.667.068c.29.358.445.764.396,1.199.193,1.315-.164,2.794-1.363,3.683-8.536,6.274-30.44,15.409-43.413,18.318-.715.155-1.431.309-2.03.725-.657.464-1.092,1.179-1.479,1.885-8.468-4.224-16.182-7.936-24.93-12.422-.377-8.439-.068-16.752,4.186-24.031,4.263-7.279,8.632-11.474,13.562-18.318.28-.396,2.156-2.339,3.673-2.542,1.373-.184,2.803.396,3.586,1.556.783,1.15,1.208,2.368.976,3.76-.657,3.925-1.788,8.362-3.886,12.789l.532.261c8.932-2.32,21.663-5.829,31.107-8.043,2.223-.532,5.027-1.083,7.26-.619,2.32.474,5.636,1.779,6.09,4.157,3.383-1.063,5.336-.135,7.192.909,1.75.986,2.581,2.223,2.832,3.635.309,1.692-.077,2.61-1.034,4.041Z"/><path class="f" d="M253.904,112.519c1.466-1.409,3.441-1.938,5.131-1.878,3.678.13,5.242,2.119,5.916,3.287,2.01,3.486,1.925,9.91.576,13.885-.956,2.815-2.521,7.121-6.295,10.209-1.711,1.4-4.312,2.275-6.686,1.585-1.684,5.875-4.754,12.98-10.181,19.585-3.728,4.537-7.302,7.566-11.421,9.798-.003,3.808-.003,6.769-.003,6.769,0,1.244,0,2.601.46,3.812.617,1.592,1.446,2.971,2.78,4.047,2.825,2.276,5.729,3.363,9.305,4.709l2.978,1.175c-9.504,7.237-24.967,11.303-38.105,11.641-13.073-.34-28.516-4.37-38.01-11.561,1.413-.556,3.187-1.254,3.187-1.254,3.576-1.345,6.48-2.433,9.305-4.709,1.334-1.076,2.164-2.455,2.78-4.047.46-1.211.46-2.567.46-3.812,0,0,0-2.513-.001-6.25-4.189-2.395-8.017-5.86-11.68-10.317-5.408-6.581-8.476-13.659-10.163-19.522-2.312.571-4.801-.292-6.457-1.647-3.774-3.088-5.339-7.394-6.295-10.209-1.349-3.975-1.434-10.399.576-13.885.673-1.168,2.238-3.157,5.916-3.287,1.69-.06,3.665.47,5.131,1.878,0,0-10.543-46.909,46.707-46.909s44.09,46.909,44.09,46.909Z"/><path class="g" d="M9.675,203.779c.006.452.161.034.674-.001.929-.064,2.011.442,2.898.683,2.091.57,4.176,1.162,6.259,1.757,4.318,1.234,8.635,2.468,12.991,3.563,2.997.753,4.275-3.875,1.276-4.629-5.393-1.356-10.724-2.933-16.076-4.44-2.479-.698-5.389-1.984-7.991-1.665-2.464.302-4.865,2.045-4.83,4.731.039,3.086,4.839,3.095,4.8,0h0Z"/><path class="g" d="M7.181,194.986c-.157.256-.145.054.064.009.219-.047.588-.189.868-.225-.052.007.397.002.509-.007.664-.056-.342-.121.093.003.585.167,1.198.266,1.79.413,2.051.51,4.09,1.069,6.128,1.628,5,1.372,9.987,2.792,14.982,4.185,1.752.488,3.501.994,5.268,1.427,3,.736,4.279-3.891,1.276-4.629-9.058-2.224-17.917-5.22-26.99-7.39-2.841-.679-6.409-.637-8.131,2.163-1.623,2.638,2.527,5.052,4.145,2.423h0Z"/><path class="g" d="M4.875,203.779c-.514,4.598,3.846,6.798,7.232,8.746,3.551,2.043,7.244,3.838,10.977,5.521,8.139,3.669,16.55,6.955,25.181,9.271.952.256,1.908.497,2.869.717.441.101,1.081.148,1.479.379.451.262.707.898.947,1.33,1.375,2.477,2.719,4.97,3.931,7.531.554,1.172,2.235,1.475,3.284.861,1.2-.702,1.417-2.108.861-3.284-1.059-2.24-2.227-4.417-3.417-6.59-.56-1.023-1.082-2.117-1.9-2.968-.946-.984-2.15-1.484-3.457-1.787-3.832-.888-7.596-2.009-11.319-3.278-8.193-2.791-16.261-6.121-23.924-10.153-1.74-.915-3.459-1.873-5.127-2.914-.705-.439-1.42-.881-2.087-1.376-.738-.548-.842-1.004-.729-2.007.144-1.29-1.206-2.4-2.4-2.4-1.417,0-2.255,1.106-2.4,2.4h0Z"/><path class="g" d="M58.494,187.125c-6.497-1.686-12.975-3.444-19.471-5.132-3.332-.866-6.667-1.718-10.014-2.523s-6.849-1.702-10.298-.974c-3.129.661-6.799,2.426-7.626,5.804l2.952-1.676c-2.881-.845-5.603-.625-8.271.733s-4.56,3.477-4.854,6.533c-.143,1.482.259,2.887.995,4.167.099.173.512,1.116.396.397-.103-.636-.143.077-.189.283-.157.701-.244,1.442-.229,2.16.059,2.77,1.3,5.517,3.422,7.311.989.836,2.424.97,3.394,0,.858-.858.994-2.553,0-3.394-1.273-1.076-2.075-2.541-2.016-4.231.029-.838.521-1.802.383-2.768-.159-1.108-1.057-1.819-1.333-2.851-.417-1.559.827-2.583,2.069-3.258,1.618-.88,3.102-.998,4.958-.454,1.218.357,2.647-.43,2.952-1.676.232-.946,1.538-1.616,2.627-1.993,1.583-.547,3.113-.678,4.783-.462,3.757.486,7.51,1.676,11.174,2.612,7.654,1.955,15.274,4.037,22.92,6.022,2.992.777,4.268-3.852,1.276-4.629h0Z"/><path class="g" d="M12.762,187.251c7.922,2.327,15.86,4.601,23.759,7.008,1.792.546,3.588,1.086,5.359,1.695,2.928,1.006,4.185-3.629,1.276-4.629-8.268-2.841-16.762-5.104-25.153-7.548-1.322-.385-2.644-.767-3.965-1.155-2.97-.872-4.238,3.758-1.276,4.629h0Z"/><path class="g" d="M43.713,191.877c-4.346,5-8.445,10.215-12.285,15.613-.73,1.026-.215,2.715.861,3.284,1.236.653,2.504.234,3.284-.861,3.632-5.105,7.399-9.885,11.534-14.642.823-.947,1.001-2.476,0-3.394-.903-.829-2.515-1.012-3.394,0h0Z"/><path class="g" d="M82.888,215.967c.239-5.565.193-11.214-1.111-16.661-1.319-5.51-4.209-10.311-7.555-14.82-1.587-2.14-3.266-4.208-4.937-6.283s-3.185-4.335-4.911-6.368c-1.314-1.547-3.242-2.97-5.308-3.157-2.728-.247-5.119,1.38-6.256,3.801-1.36,2.897-.436,6.05.307,9.003.839,3.333,2.038,6.561,3.557,9.644.573,1.163,2.222,1.482,3.284.861,1.185-.693,1.436-2.117.861-3.284-1.112-2.257-1.99-4.601-2.677-7.021-.294-1.036-.555-2.081-.784-3.133-.206-.946-.594-2.066-.518-3.042.105-1.363,1.198-2.488,2.4-1.811,1.405.791,2.15,2.134,3.085,3.363,5.48,7.203,12.445,14.081,14.722,23.108,1.3,5.155,1.269,10.523,1.042,15.8-.133,3.089,4.667,3.082,4.8,0h0Z"/><path class="g" d="M411.667,203.779c.032-2.541-2.161-4.306-4.511-4.688-2.712-.441-5.725.894-8.31,1.622-5.352,1.507-10.683,3.085-16.076,4.44-2.994.753-1.725,5.383,1.276,4.629,4.356-1.095,8.673-2.329,12.991-3.563,2.084-.596,4.168-1.188,6.259-1.757.894-.244,1.918-.706,2.853-.679.522.015.713.451.719-.002-.039,3.09,4.761,3.091,4.8,0h0Z"/><path class="g" d="M413.506,192.563c-2.807-4.564-9.399-1.874-13.378-.793-5.348,1.453-10.677,2.974-16.015,4.464-1.905.532-3.808,1.084-5.729,1.556-2.998.736-1.728,5.366,1.276,4.629,8.624-2.117,17.087-4.872,25.692-7.068.741-.189,1.486-.361,2.23-.536.123-.029.249-.047.373-.074-.585.127.062.006.378.03.186.014.536.077.836.183.183.065.389.353.191.032,1.616,2.627,5.769.218,4.145-2.423h0Z"/><path class="g" d="M406.867,203.779c.196,1.754-.911,2.167-2.262,3.033-1.442.923-2.927,1.777-4.431,2.595-3.677,2-7.472,3.785-11.309,5.455-7.711,3.356-15.712,6.367-23.898,8.346-1.149.278-2.361.457-3.408,1.04-1.243.693-2.05,1.855-2.723,3.072-1.372,2.479-2.719,4.969-3.931,7.531-.554,1.171-.326,2.59.861,3.284,1.044.611,2.727.316,3.284-.861,1.089-2.303,2.294-4.537,3.516-6.771.391-.715.746-1.766,1.508-2.143.819-.405,1.992-.476,2.883-.701,4.019-1.011,7.969-2.297,11.868-3.695,8.362-2.998,16.666-6.472,24.444-10.782,3.654-2.025,8.955-4.425,8.398-9.404-.144-1.288-1-2.4-2.4-2.4-1.186,0-2.545,1.104-2.4,2.4h0Z"/><path class="g" d="M359.325,191.753c7.646-1.985,15.266-4.067,22.92-6.022,3.638-.929,7.35-2.09,11.075-2.598,1.704-.232,3.265-.111,4.882.448,1.091.377,2.395,1.047,2.627,1.993.305,1.245,1.733,2.034,2.952,1.676,1.789-.525,3.263-.448,4.831.385,1.282.681,2.63,1.708,2.196,3.327-.245.917-1.045,1.59-1.29,2.532-.264,1.014.266,2.069.333,2.932.135,1.737-.707,3.286-2.009,4.386-.99.837-.863,2.531,0,3.394.981.981,2.401.839,3.394,0,2.122-1.794,3.363-4.541,3.422-7.311.014-.67-.065-1.359-.201-2.014-.009-.045-.148-.715-.186-.709-.153.599-.137.728.049.387.11-.165.215-.333.315-.503.739-1.276,1.139-2.689.995-4.167-.297-3.059-2.183-5.173-4.854-6.533s-5.392-1.578-8.271-.733l2.952,1.676c-.748-3.053-3.794-4.717-6.594-5.542-3.344-.985-6.743-.374-10.061.409-6.725,1.588-13.403,3.371-20.081,5.142-3.556.944-7.111,1.892-10.672,2.816-2.988.775-1.721,5.406,1.276,4.629h0Z"/><path class="g" d="M402.505,182.622c-7.922,2.327-15.86,4.601-23.759,7.008-1.792.546-3.588,1.086-5.359,1.695-2.904.998-1.657,5.636,1.276,4.629,8.268-2.841,16.762-5.104,25.153-7.548,1.322-.385,2.644-.767,3.965-1.155,2.957-.869,1.699-5.502-1.276-4.629h0Z"/><path class="g" d="M369.435,195.272c4.135,4.757,7.903,9.537,11.534,14.642.726,1.021,2.127,1.607,3.284.861,1.013-.653,1.639-2.19.861-3.284-3.84-5.398-7.938-10.614-12.285-15.613-.826-.951-2.559-.91-3.394,0-.93,1.013-.882,2.38,0,3.394h0Z"/><path class="g" d="M338.455,215.967c-.199-4.633-.269-9.352.623-13.924.923-4.731,2.963-8.766,5.666-12.722,2.51-3.675,5.42-7.043,8.154-10.549,1.199-1.538,2.181-3.27,3.622-4.504.899-.769,1.903-1.279,2.691-.079.602.917.496,1.719.303,2.744-.234,1.239-.506,2.471-.824,3.692-.727,2.788-1.692,5.493-2.966,8.078-.573,1.162-.313,2.597.861,3.284,1.059.619,2.708.306,3.284-.861,1.325-2.689,2.415-5.492,3.222-8.38.7-2.507,1.722-5.591,1.302-8.199-.424-2.637-2.258-5.056-4.913-5.72-2.533-.633-4.755.561-6.569,2.241-1.688,1.564-2.913,3.696-4.341,5.496-1.665,2.097-3.369,4.162-5.005,6.283-3.391,4.395-6.576,9.049-8.236,14.4-1.87,6.031-1.944,12.468-1.675,18.721.132,3.077,4.933,3.094,4.8,0h0Z"/><path class="f" d="M144.462,294.489c0-5.114,0-9.829.002-14.256-3.524,2.901-6.079,5.037-9.387,7.091-9.395,5.831-21.264,8.37-32.387,6.621-11.667-1.834-20.703-9.442-27.765-18.705-9.305-12.205-17.572-27.282-24.736-41.777-.47-.95-.076-2.103.869-2.582,11.561-5.856,21.231-10.395,33.045-16.538.802-.417,1.792-.234,2.376.457,7.411,8.767,14.836,18.396,21.996,27.567l3.452.248c5.108-12.748,11.282-25.467,21.423-35.011,10.115-9.519,23.97-13.32,36.72-18.251,9.462,7.334,25.085,11.443,38.291,11.786,13.271-.341,28.914-4.486,38.389-11.861,12.804,4.968,26.749,8.759,36.915,18.326,10.141,9.543,16.315,22.263,21.423,35.011l3.452-.248c7.16-9.171,14.586-18.8,21.996-27.567.584-.691,1.573-.874,2.376-.457,11.814,6.143,21.484,10.682,33.045,16.538.946.479,1.339,1.632.869,2.582-7.165,14.495-15.432,29.571-24.736,41.777-7.061,9.263-16.098,16.871-27.765,18.705-11.124,1.749-22.993-.79-32.387-6.621-3.308-2.053-5.864-4.19-9.388-7.091.002,4.427.002,9.142.002,14.256h-128.088Z"/><path class="g" d="M307.4,241.978c-4.448-11.077-9.59-21.994-17.378-31.155-3.679-4.328-7.929-8.08-12.752-11.09s-10.05-5.278-15.326-7.335c-5.845-2.279-11.801-4.263-17.604-6.65-1.199-.493-2.639.534-2.952,1.676-.378,1.377.472,2.457,1.676,2.952,9.851,4.051,20.248,6.91,29.562,12.183,9.718,5.501,16.778,14.018,22.189,23.662,3.07,5.472,5.619,11.216,7.955,17.033.483,1.202,1.601,2.048,2.952,1.676,1.142-.314,2.162-1.742,1.676-2.952h0Z"/><path class="g" d="M142.062,240.651c0,13.303,0,26.607,0,39.91,0,4.643,0,9.286,0,13.929,0,3.089,4.8,3.094,4.8,0,0-14.307,0-28.615,0-42.922,0-3.639,0-7.277,0-10.916,0-3.089-4.8-3.094-4.8,0h0Z"/><path class="g" d="M270.15,240.651c0,13.303,0,26.607,0,39.91,0,4.643,0,9.286,0,13.929,0,3.089,4.8,3.094,4.8,0,0-14.307,0-28.615,0-42.922,0-3.639,0-7.277,0-10.916,0-3.089-4.8-3.094-4.8,0h0Z"/><path class="g" d="M310.234,244.065c4.478-5.736,8.935-11.489,13.478-17.173,2.205-2.759,4.431-5.502,6.691-8.216.448-.538,1.453-1.344,1.675-1.998.143-.423.346-.048-.12-.155-.137-.031,1.147.636.621.351,1.624.879,3.288,1.694,4.935,2.529,5.986,3.037,12.018,5.983,18.036,8.958,1.508.746,3.015,1.493,4.521,2.245.701.35,1.401.7,2.101,1.052.244.122,2.347,1.437,2.571,1.297-.097.061-.066-.445-.109-.451-.06-.008-.453.9-.488.97-.339.68-.679,1.36-1.02,2.039-.826,1.641-1.661,3.277-2.507,4.907-6.117,11.784-12.73,23.57-20.941,34.045-6.877,8.774-16.028,16.124-27.448,17.359-6.973.754-14.017-.133-20.619-2.481s-12.012-6.398-17.363-10.804c-1-.823-2.415-.979-3.394,0-.849.849-1.006,2.566,0,3.394,5.415,4.459,10.782,8.527,17.32,11.211,6.37,2.615,13.374,3.905,20.259,3.732,6.524-.164,12.841-1.672,18.579-4.818,5.398-2.961,10.099-7.151,14.095-11.804,4.517-5.259,8.419-11.094,12.091-16.963,3.91-6.25,7.509-12.691,10.927-19.22.783-1.495,1.556-2.995,2.32-4.5.904-1.779,2.02-3.587,2.694-5.467.555-1.547.221-3.315-.941-4.508-1.329-1.363-3.603-2.084-5.286-2.925-6.471-3.234-12.979-6.392-19.446-9.633-1.814-.909-3.626-1.825-5.433-2.748s-3.974-2.582-6.073-2.565c-2.209.017-3.367,1.662-4.645,3.194-1.434,1.717-2.853,3.447-4.262,5.184-5.498,6.782-10.84,13.688-16.212,20.57-.797,1.021-.995,2.399,0,3.394.83.83,2.592,1.028,3.394,0h0Z"/><path class="g" d="M114.24,243.254c4.145-10.322,8.994-20.682,16.28-29.197,3.524-4.118,7.519-7.668,12.151-10.492,4.555-2.776,9.454-4.916,14.423-6.83,5.603-2.159,11.298-4.074,16.853-6.359,1.198-.493,2.05-1.594,1.676-2.952-.311-1.133-1.746-2.172-2.952-1.676-10.411,4.282-21.429,7.294-31.226,12.962-10.158,5.877-17.705,14.945-23.393,25.088-3.272,5.835-5.949,11.978-8.439,18.18-.483,1.203.527,2.636,1.676,2.952,1.369.376,2.467-.469,2.952-1.676h0Z"/><path class="g" d="M110.171,240.671c-4.826-6.183-9.628-12.385-14.54-18.499-1.159-1.442-2.324-2.88-3.497-4.31-1.29-1.573-2.521-3.318-3.959-4.758-3.073-3.077-7.026.08-10.046,1.619-6.467,3.295-12.991,6.477-19.497,9.695-1.512.748-3.023,1.498-4.532,2.252-1.682.841-3.957,1.562-5.286,2.925-2.88,2.953.298,7.113,1.753,9.975,6.558,12.904,13.682,25.689,22.52,37.191,3.835,4.99,8.197,9.541,13.397,13.124,5.231,3.604,11.162,5.852,17.458,6.64,7.61.953,15.514.015,22.735-2.554,3.605-1.282,7.09-2.94,10.307-5.016,3.24-2.09,6.202-4.576,9.174-7.023,1.001-.825.854-2.54,0-3.394-.99-.99-2.39-.827-3.394,0-4.783,3.938-9.61,7.689-15.396,10.056-5.747,2.351-11.945,3.56-18.154,3.492-5.752-.064-11.371-1.267-16.461-3.995-4.979-2.668-9.233-6.424-12.947-10.65-4.08-4.641-7.562-9.838-10.878-15.041-3.708-5.817-7.132-11.813-10.383-17.895-1.592-2.978-3.142-5.978-4.659-8.994-.342-.679-.682-1.359-1.02-2.039-.035-.071-.428-.979-.488-.97-.048.007-.001.548-.109.451.109.098,1.945-.982,2.147-1.083.841-.423,1.683-.845,2.526-1.265,6.06-3.025,12.152-5.986,18.21-9.015,1.662-.831,3.321-1.666,4.978-2.509.855-.435,1.709-.871,2.562-1.31.663-.341,1.647-1.125,2.363-1.25.51-.089-.451-.146-.272-.025.455.307.864,1.026,1.218,1.449.612.731,1.221,1.464,1.827,2.199,1.328,1.61,2.646,3.229,3.955,4.854,5.072,6.297,10.021,12.692,14.996,19.065.798,1.023,2.557.837,3.394,0,1.01-1.01.8-2.369,0-3.394h0Z"/><path class="i" d="M260.693,75.976c-2.249-6.873-5.933-12.948-11.287-17.235l-6.035-6.329c-6.846-9.026-17.975-13.92-33.874-14.617-20.683-.7-35.951,8.556-42.709,17.175l1.386,1.433c-14.028,12.175-19.134,33.956-12.331,54.564.618-.179,1.324-.298,2.133-.326,1.69-.06,3.665.47,5.131,1.878l7.256-6.093c5.445-6.068,15.056-15.214,21.801-18.751.791-.415,1.807.146,2.127,1.468.31,1.277.308,2.247.207,3.164-.153,1.393,1.199,2.407,2.348,1.769,4.815-2.674,13.394-8.058,19.477-10.621l9.02,1.108c2.904,1.262,5.113,2.476,8.308,5.225,5.476,4.712,10.725,11.175,13.05,17.026l7.201,5.705c1.466-1.409,3.441-1.938,5.131-1.878.926.033,1.719.183,2.397.409,2.786-11.022,2.863-24.07-.738-35.074Z"/><path class="g" d="M228.541,169.927v4.688c0,1.862-.085,3.809.545,5.592,1.21,3.419,3.733,5.743,6.849,7.466,3.695,2.044,7.872,3.345,11.801,4.894,1.206.476,2.635-.522,2.952-1.676.374-1.363-.466-2.475-1.676-2.952-3.26-1.286-6.688-2.394-9.817-3.969-2.375-1.196-4.766-2.697-5.594-5.372-.457-1.474-.26-3.17-.26-4.692v-3.978c0-3.089-4.8-3.094-4.8,0h0Z"/><path class="g" d="M183.681,170.981v4.241c0,1.364.05,2.757-.48,3.957-1.086,2.459-3.387,3.836-5.804,5.001-3.019,1.455-6.277,2.529-9.399,3.758-1.205.474-2.046,1.607-1.676,2.952.316,1.148,1.739,2.154,2.952,1.676,3.783-1.489,7.768-2.764,11.366-4.654,3.003-1.578,5.58-3.68,6.942-6.854,1.34-3.124.898-6.75.898-10.078,0-3.089-4.8-3.094-4.8,0h0Z"/><path class="g" d="M168.485,56.668c6.025-7.618,15.192-12.408,24.505-14.767,6.366-1.612,12.946-2.048,19.484-1.522,5.49.442,11.055,1.506,16.143,3.673,4.915,2.094,9.417,5.309,12.681,9.571.787,1.027,2.066,1.573,3.284.861,1.011-.592,1.654-2.248.861-3.284-3.31-4.321-7.442-7.845-12.31-10.311-5.445-2.758-11.367-4.219-17.397-4.975-12.984-1.629-26.518.45-37.989,6.915-4.757,2.681-9.253,6.143-12.655,10.444-.803,1.016-.991,2.403,0,3.394.834.834,2.586,1.022,3.394,0h0Z"/><path class="g" d="M158.078,110.087c-4.552-14.154-3.808-30.264,4.187-43.075,2.085-3.341,4.644-6.317,7.607-8.912,2.328-2.039-1.078-5.423-3.394-3.394-11.934,10.453-17.082,26.914-15.839,42.455.386,4.826,1.329,9.593,2.811,14.202.942,2.929,5.578,1.677,4.629-1.276h0Z"/><path class="g" d="M247.709,60.438c11.02,8.926,13.999,24.375,13.247,37.859-.223,4.006-.819,7.965-1.776,11.861-.736,3,3.892,4.279,4.629,1.276,3.592-14.638,3.022-31.813-4.788-45.063-2.079-3.528-4.731-6.747-7.917-9.327-1.006-.815-2.41-.984-3.394,0-.843.843-1.012,2.574,0,3.394h0Z"/><path class="g" d="M161.031,136.778c1.485,6.73,4.166,13.264,7.935,19.038,4.078,6.248,9.462,12.114,16.006,15.822,3.339,1.892,7,3.183,10.793,3.764,1.28.196,2.581-.324,2.952-1.676.312-1.136-.387-2.755-1.676-2.952-13.389-2.052-23.351-13.776-28.375-25.703-1.299-3.084-2.287-6.303-3.007-9.569-.665-3.015-5.294-1.739-4.629,1.276h0Z"/><path class="g" d="M251.105,135.502c-1.696,7.685-4.978,15.058-9.852,21.265-2.423,3.085-5.207,6.021-8.444,8.26-2.985,2.065-6.263,3.536-9.704,4.658-2.924.954-1.673,5.59,1.276,4.629,6.131-1.999,11.642-5.062,16.24-9.624,5.225-5.184,9.239-11.459,12.061-18.234,1.303-3.129,2.322-6.367,3.052-9.677.664-3.01-3.962-4.296-4.629-1.276h0Z"/><path class="g" d="M200.033,150.664c2.791,1.474,5.796,2.094,8.953,2.074,3.228-.021,6.469-.664,9.051-2.677.995-.775.875-2.591,0-3.394-1.055-.969-2.332-.827-3.394,0,.732-.571.182-.147-.006-.026-.179.115-.363.221-.551.319-.097.051-.197.097-.295.147-.299.154-.156-.075.113-.039-.176-.023-.583.219-.76.276-.693.223-1.407.377-2.126.485.361-.054-.016-.002-.18.015-.209.021-.418.038-.627.052-.503.032-1.007.045-1.512.042-.452-.003-.903-.018-1.353-.049-.207-.014-.414-.031-.62-.051-.042-.004-.79-.12-.277-.029-.671-.119-1.333-.246-1.987-.441-.278-.083-.55-.183-.824-.277-.607-.207.374.191-.173-.067-.341-.161-.677-.328-1.01-.504-1.11-.586-2.66-.318-3.284.861-.586,1.109-.324,2.658.861,3.284h0Z"/><path class="g" d="M207.727,129.624c.388,1.481.761,2.986.984,4.502l-.086-.638c.026.208.038.413.017.621l.086-.638c-.015.097-.036.187-.068.279l.242-.573c-.029.065-.059.121-.099.18l.375-.486c-.046.056-.09.099-.147.145l.486-.375c-.114.073-.234.132-.356.189l.573-.242c-.196.082-.391.142-.601.175l.638-.086c-.19.022-.375.021-.564-.001l.638.086c-.213-.03-.421-.081-.634-.11-.319-.1-.638-.114-.957-.043-.319.014-.617.109-.892.285-.498.291-.973.862-1.103,1.434-.14.614-.11,1.304.242,1.849.312.484.835,1.022,1.434,1.103.492.066.97.191,1.471.213.772.034,1.489-.203,2.178-.52.853-.392,1.521-1.164,1.747-2.083.192-.779.11-1.453-.022-2.233-.245-1.45-.58-2.888-.953-4.31-.152-.579-.588-1.133-1.103-1.434s-1.273-.429-1.849-.242c-1.25.404-2.018,1.651-1.676,2.952h0Z"/><path class="e" d="M184.013,116.851c-.752,2.443-.262,8.063,4.366,8.541,6.117-.037,6.443-6.831,4.383-10.026-1.686-2.616-6.644-3.703-8.75,1.485Z"/><path class="e" d="M232.999,116.851c.752,2.443.262,8.063-4.366,8.541-6.117-.037-6.443-6.831-4.384-10.026,1.686-2.616,6.643-3.703,8.75,1.485Z"/><path class="g" d="M164.804,110.821c-3.05-2.748-7.444-3.322-11.149-1.562-2.672,1.269-4.237,3.912-4.938,6.693-1.664,6.6.03,14.19,3.823,19.783,2.782,4.102,6.763,7.033,11.909,6.34,1.286-.173,1.986-1.823,1.676-2.952-.381-1.388-1.662-1.85-2.952-1.676-3.493.47-6.2-3.349-7.609-6-1.39-2.615-2.393-5.57-2.599-8.533-.185-2.658.008-6.363,1.481-8.28-.169.219.325-.349.382-.407.31-.32.236-.242.498-.41.549-.353,1.092-.557,1.737-.68,1.537-.295,3.166.014,4.347,1.079,2.29,2.063,5.695-1.321,3.394-3.394h0Z"/><path class="g" d="M255.601,114.216c2.099-1.891,5.505-1.369,7.029.502-.343-.421.111.191.167.283.129.213.273.452.369.664.318.7.5,1.488.652,2.237.333,1.639.344,3.35.228,5.013-.203,2.908-1.174,5.8-2.518,8.378-1.405,2.695-4.138,6.633-7.69,6.155-1.283-.173-2.576.308-2.952,1.676-.307,1.118.383,2.778,1.676,2.952,8.353,1.124,13.212-7.015,15.375-13.921,1.083-3.457,1.207-7.276.634-10.835-.475-2.954-1.734-5.753-4.241-7.498-3.667-2.552-8.898-1.907-12.124.999-2.3,2.072,1.104,5.458,3.394,3.394h0Z"/><path class="g" d="M224.133,86.635c4.559,1.996,8.272,4.96,11.71,8.535,3.42,3.556,6.677,7.671,8.545,12.282.487,1.2,1.598,2.048,2.952,1.676,1.138-.313,2.166-1.744,1.676-2.952-2.15-5.305-5.589-9.981-9.511-14.118-3.747-3.953-7.94-7.373-12.95-9.567-1.186-.52-2.576-.348-3.284.861-.595,1.018-.333,2.761.861,3.284h0Z"/><path class="g" d="M172.06,108.123c5.408-6.007,11.391-11.9,18.11-16.435.71-.479,1.432-.94,2.172-1.369.149-.087.404-.185.521-.296.196-.185.177-.052.158-.123.001.004-1.057-.152-1.01-.19-.095.077.044.135.015.303-.057.332.129.864.131,1.226.002.47-.087.939-.068,1.407.054,1.345.746,2.642,1.883,3.379,2.021,1.31,3.927.227,5.745-.818,1.691-.972,3.37-1.963,5.056-2.943,4.152-2.413,8.336-4.852,12.761-6.737,1.193-.508,1.457-2.265.861-3.284-.722-1.234-2.086-1.371-3.284-.861-3.949,1.683-7.7,3.817-11.414,5.957-1.762,1.016-3.515,2.048-5.273,3.07-.766.445-1.532.888-2.304,1.322-.067.037-.484.245-.486.272.011-.26.992.052,1.03.058.114.018.089.33.234.245.103-.061.055-.78.057-.885.038-2.225-.515-4.821-2.672-5.895-2.057-1.024-4.01.382-5.705,1.47-3.596,2.308-6.913,5.079-10.086,7.933-3.439,3.093-6.731,6.361-9.825,9.799-2.062,2.29,1.322,5.696,3.394,3.394h0Z"/><path class="g" d="M168.996,191.543c8.655,6.557,19.836,9.795,30.462,11.242,2.819.384,5.67.691,8.518.744,2.721.05,5.485-.253,8.181-.596,5.561-.707,11.056-1.884,16.365-3.698,5.728-1.957,11.181-4.591,15.98-8.303,1.026-.794.835-2.559,0-3.394-1.013-1.013-2.365-.796-3.394,0-7.88,6.097-18.291,9.029-27.997,10.462-5.155.761-10.238.857-15.413.269s-10.324-1.728-15.279-3.343c-5.339-1.74-10.506-4.124-14.998-7.527-1.034-.783-2.684-.164-3.284.861-.72,1.231-.175,2.498.861,3.284h0Z"/><path class="f" d="M88.01,78.465l-.49.48v51.93H7.29v-51.93l-.49-.49c12.57-12.56,29.13-29.13,40.6-40.6,11.48,11.48,28.04,28.04,40.61,40.61Z"/><path class="j" d="M7.286,102.968v-3.529h21.676c0,8.618,0,22.812,0,31.432-7.063,0-14.37,0-21.676,0v-27.904Z"/><path class="d" d="M69.713,91.005h-19.049v16.869h19.049v-16.869Z"/><path class="g" d="M4.886,78.941v51.931c0,1.297,1.1,2.4,2.4,2.4,24.947,0,49.894,0,74.84,0,1.798,0,3.596,0,5.394,0,1.297,0,2.4-1.1,2.4-2.4v-51.931c0-3.089-4.8-3.094-4.8,0v51.931l2.4-2.4c-18.065,0-36.129,0-54.194,0-8.68,0-17.36,0-26.041,0l2.4,2.4v-51.931c0-3.089-4.8-3.094-4.8,0h0Z"/><path class="g" d="M45.706,36.161c-11.912,11.912-23.825,23.825-35.737,35.737-3.088,3.088-6.175,6.175-9.263,9.263-2.187,2.187,1.206,5.582,3.394,3.394,11.912-11.912,23.825-23.825,35.737-35.737l9.263-9.263c2.187-2.187-1.206-5.582-3.394-3.394h0Z"/><path class="g" d="M45.706,39.555c11.912,11.912,23.825,23.825,35.737,35.737l9.263,9.263c2.187,2.187,5.582-1.206,3.394-3.394-11.912-11.912-23.825-23.825-35.737-35.737l-9.263-9.263c-2.187-2.187-5.582,1.206-3.394,3.394h0Z"/><path class="g" d="M7.286,101.84h21.676l-2.4-2.4c0,10.479,0,20.957,0,31.436,0,3.089,4.8,3.094,4.8,0,0-10.479,0-20.957,0-31.436,0-1.297-1.1-2.4-2.4-2.4H7.286c-3.089,0-3.094,4.8,0,4.8h0Z"/><path class="g" d="M69.713,88.605h-19.049c-1.297,0-2.4,1.1-2.4,2.4v16.869c0,1.297,1.1,2.4,2.4,2.4h19.049c1.297,0,2.4-1.1,2.4-2.4v-16.869c0-3.089-4.8-3.094-4.8,0v16.869l2.4-2.4h-19.049l2.4,2.4v-16.869l-2.4,2.4h19.049c3.089,0,3.094-4.8,0-4.8Z"/><path class="f" d="M417,6.685c0,3.81.02,73.13.03,107.82h-33.09V6.655c7.65,0,24.45.03,33.06.03Z"/><path class="f" d="M383.94,114.505v.45h-56.89c.01-35.69.05-109.06.05-112.54v-.01c8.98,0,46.83.02,56.84.02v112.08Z"/><rect class="f" x="327.107" y="114.949" width="89.865" height="18.56"/><path class="g" d="M383.941,112.554h-56.837c-3.089,0-3.094,4.8,0,4.8h56.837c3.089,0,3.094-4.8,0-4.8h0Z"/><path class="h" d="M417.037,133.504v-18.55h-33.097c.065,5.955,0,13.981,0,18.55"/><path class="g" d="M417.037,131.104h-89.933c-3.089,0-3.094,4.8,0,4.8h89.933c3.089,0,3.094-4.8,0-4.8h0Z"/><path class="f" d="M396.008,53.239h8.829c-.013,4.447,0,8.987,0,12.399h-8.829v-12.399Z"/><path class="f" d="M396.008,79.72h8.829c-.013,4.447,0,8.987,0,12.399h-8.829v-12.399Z"/><path class="g" d="M324.704,2.413c0,4.625-.004,9.251-.007,13.876-.005,9.909-.01,19.818-.016,29.727-.006,11.98-.013,23.96-.019,35.94-.006,10.695-.011,21.391-.017,32.086-.003,6.193-.007,12.387-.008,18.58,0,.294,0,.587,0,.881,0,3.089,4.8,3.094,4.8,0,0-5.438.004-10.877.007-16.315.005-10.326.01-20.651.016-30.977.006-12.004.013-24.008.019-36.011.006-10.326.011-20.652.017-30.977.003-5.432.006-10.863.008-16.295,0-.172,0-.343,0-.515,0-3.089-4.8-3.094-4.8,0h0Z"/><path class="g" d="M381.541,2.4c0,4.652,0,9.304,0,13.957,0,10.047,0,20.093,0,30.14,0,12.023,0,24.046,0,36.069,0,10.725,0,21.449,0,32.174,0,6.004,0,12.007,0,18.011,0,.251,0,.503,0,.754,0,3.089,4.8,3.094,4.8,0,0-5.203,0-10.405,0-15.608,0-10.331,0-20.662,0-30.993,0-12.039,0-24.079,0-36.118,0-10.473,0-20.946,0-31.419,0-5.486,0-10.972,0-16.458,0-.17,0-.339,0-.509,0-3.089-4.8-3.094-4.8,0h0Z"/><path class="g" d="M414.604,6.659c0,4.515.002,9.031.003,13.546.003,9.674.005,19.348.008,29.022.003,11.619.006,23.237.01,34.856.003,10.381.006,20.762.008,31.143.001,5.842.003,11.683.004,17.525,0,.251,0,.502,0,.754,0,3.089,4.8,3.094,4.8,0,0-5.066-.002-10.132-.003-15.198-.003-9.958-.005-19.916-.008-29.873-.003-11.635-.006-23.271-.01-34.906-.003-10.13-.006-20.259-.008-30.389-.001-5.324-.003-10.648-.004-15.972,0-.169,0-.338,0-.507,0-3.089-4.8-3.094-4.8,0h0Z"/><path class="g" d="M383.941,9.059c11.032,0,22.065.027,33.097.027,3.089,0,3.094-4.8,0-4.8-11.032,0-22.065-.027-33.097-.027-3.089,0-3.094,4.8,0,4.8h0Z"/><path class="g" d="M327.07,4.8c15.618,0,31.236.016,46.854.024,3.339.002,6.678.003,10.017.003,3.089,0,3.094-4.8,0-4.8-15.804,0-31.608-.016-47.412-.024-3.153-.002-6.305-.003-9.458-.003-3.089,0-3.094,4.8,0,4.8h0Z"/><path class="d" d="M345.273,17.033h21.992c-.032,7.276,0,14.705,0,20.288h-21.992v-20.288Z"/><path class="g" d="M396.008,55.639h8.829l-2.4-2.4c-.011,4.133,0,8.266,0,12.399l2.4-2.4h-8.829l2.4,2.4v-12.399c0-1.255-1.104-2.458-2.4-2.4s-2.4,1.055-2.4,2.4v12.399c0,1.297,1.1,2.4,2.4,2.4h8.829c1.297,0,2.4-1.1,2.4-2.4,0-4.133-.011-8.266,0-12.399.004-1.297-1.102-2.4-2.4-2.4h-8.829c-1.255,0-2.458,1.104-2.4,2.4s1.055,2.4,2.4,2.4Z"/><path class="f" d="M396.008,27.225h8.829c-.013,4.447,0,8.987,0,12.399h-8.829v-12.399Z"/><path class="g" d="M396.008,29.625h8.829l-2.4-2.4c-.011,4.133,0,8.266,0,12.399l2.4-2.4h-8.829l2.4,2.4v-12.399c0-1.255-1.104-2.458-2.4-2.4s-2.4,1.055-2.4,2.4v12.399c0,1.297,1.1,2.4,2.4,2.4h8.829c1.297,0,2.4-1.1,2.4-2.4,0-4.133-.011-8.266,0-12.399.004-1.297-1.102-2.4-2.4-2.4h-8.829c-1.255,0-2.458,1.104-2.4,2.4s1.055,2.4,2.4,2.4Z"/><path class="g" d="M396.008,82.12h8.829l-2.4-2.4c-.011,4.133,0,8.266,0,12.399l2.4-2.4h-8.829l2.4,2.4v-12.399c0-1.255-1.104-2.458-2.4-2.4s-2.4,1.055-2.4,2.4v12.399c0,1.297,1.1,2.4,2.4,2.4h8.829c1.297,0,2.4-1.1,2.4-2.4,0-4.133-.011-8.266,0-12.399.004-1.297-1.102-2.4-2.4-2.4h-8.829c-1.255,0-2.458,1.104-2.4,2.4s1.055,2.4,2.4,2.4Z"/><path class="g" d="M345.273,19.433h21.992l-2.4-2.4c-.028,6.763,0,13.525,0,20.288l2.4-2.4h-21.992l2.4,2.4v-20.288c0-3.089-4.8-3.094-4.8,0v20.288c0,1.297,1.1,2.4,2.4,2.4h21.992c1.297,0,2.4-1.1,2.4-2.4,0-6.763-.028-13.525,0-20.288.005-1.297-1.104-2.4-2.4-2.4h-21.992c-3.089,0-3.094,4.8,0,4.8Z"/><path class="g" d="M383.874,116.905h33.097c3.089,0,3.094-4.8,0-4.8h-33.097c-3.089,0-3.094,4.8,0,4.8h0Z"/><path class="f" d="M339.89,27.36h32.852c-.047,3.572,0,7.22,0,9.961h-32.852v-9.961Z"/><path class="g" d="M339.89,29.76h32.852l-2.4-2.4c-.04,3.32-.002,6.64,0,9.961l2.4-2.4h-32.852l2.4,2.4v-9.961c0-3.089-4.8-3.094-4.8,0v9.961c0,1.297,1.1,2.4,2.4,2.4h32.852c1.297,0,2.401-1.1,2.4-2.4-.002-3.32-.04-6.64,0-9.961.016-1.297-1.112-2.4-2.4-2.4h-32.852c-3.089,0-3.094,4.8,0,4.8Z"/><path class="d" d="M345.273,50.141h21.992c-.032,7.276,0,14.705,0,20.288h-21.992v-20.288Z"/><path class="g" d="M345.273,52.541h21.992l-2.4-2.4c-.028,6.763,0,13.525,0,20.288l2.4-2.4h-21.992l2.4,2.4v-20.288c0-3.089-4.8-3.094-4.8,0v20.288c0,1.297,1.1,2.4,2.4,2.4h21.992c1.297,0,2.4-1.1,2.4-2.4,0-6.763-.028-13.525,0-20.288.005-1.297-1.104-2.4-2.4-2.4h-21.992c-3.089,0-3.094,4.8,0,4.8Z"/><path class="f" d="M339.89,60.469h32.852c-.047,3.572,0,7.22,0,9.961h-32.852v-9.961Z"/><path class="g" d="M339.89,62.869h32.852l-2.4-2.4c-.04,3.32-.002,6.64,0,9.961l2.4-2.4h-32.852l2.4,2.4v-9.961c0-3.089-4.8-3.094-4.8,0v9.961c0,1.297,1.1,2.4,2.4,2.4h32.852c1.297,0,2.401-1.1,2.4-2.4-.002-3.32-.04-6.64,0-9.961.016-1.297-1.112-2.4-2.4-2.4h-32.852c-3.089,0-3.094,4.8,0,4.8Z"/><path class="d" d="M345.273,84.038h21.992c-.032,7.276,0,14.705,0,20.288h-21.992v-20.288Z"/><path class="g" d="M345.273,86.438h21.992l-2.4-2.4c-.028,6.763,0,13.525,0,20.288l2.4-2.4h-21.992l2.4,2.4v-20.288c0-3.089-4.8-3.094-4.8,0v20.288c0,1.297,1.1,2.4,2.4,2.4h21.992c1.297,0,2.4-1.1,2.4-2.4,0-6.763-.028-13.525,0-20.288.005-1.297-1.104-2.4-2.4-2.4h-21.992c-3.089,0-3.094,4.8,0,4.8Z"/><path class="f" d="M339.89,94.365h32.852c-.047,3.572,0,7.22,0,9.961h-32.852v-9.961Z"/><path class="g" d="M339.89,96.765h32.852l-2.4-2.4c-.04,3.32-.002,6.64,0,9.961l2.4-2.4h-32.852l2.4,2.4v-9.961c0-3.089-4.8-3.094-4.8,0v9.961c0,1.297,1.1,2.4,2.4,2.4h32.852c1.297,0,2.401-1.1,2.4-2.4-.002-3.32-.04-6.64,0-9.961.016-1.297-1.112-2.4-2.4-2.4h-32.852c-3.089,0-3.094,4.8,0,4.8Z"/></g></svg>