<svg xmlns="http://www.w3.org/2000/svg" width="271.359" height="273.694" viewBox="0 0 271.359 273.694"><defs><style>.a{fill:#fff;}.b{fill:#b3b3b3;}.c{fill:none;}.d{fill:#211715;}.e{fill:#3d8dcc;}.f{fill:#645d5c;}</style></defs><path class="a" d="M152.122,200.157c-2.769-22.473-5.965-49.13-6.151-58.269,1.574-2.034,2.873-3.7,4.349-5.405,1.111-1.283,2.323-2.59,3.829-4.093a2.019,2.019,0,0,1,2.425-.088,106.412,106.412,0,0,0,9.477,9.321,136.381,136.381,0,0,0,26.573-16.6c1.862-1.516,4.026-.034,5.085,1.923l5.712,13.286.637,1.483C193.4,169.237,173.674,207.26,161.01,232.73h-4.973C155.544,227.625,153.923,214.776,152.122,200.157Z"/><path class="a" d="M161.362,137.3c-1.786-1.728-3.344-3.352-4.788-4.994,0,0,0-.839,0-2.017a42.522,42.522,0,0,0,8.351.784,51.434,51.434,0,0,0,5.148-.256,68.353,68.353,0,0,0,14.383-3.535,56.684,56.684,0,0,0,8.172-3.8c0,.939,0,1.546,0,1.546a136.381,136.381,0,0,1-26.573,16.6C164.31,140.077,162.765,138.654,161.362,137.3Z"/><path class="a" d="M217.984,79.351a7.4,7.4,0,0,1,5.428-.7c3.6.875,4.759,3.066,5.194,4.3,1.3,3.689-.042,9.7-2.155,13.16a19.382,19.382,0,0,1-8.051,7.946,14.105,14.105,0,0,1-7.734.9c-.405.681-.666,1.122-.666,1.122-.988,1.669-3.233,4.545-3.233,4.545a61.988,61.988,0,0,1-7.624,7.984l-3.384,2.917a53.3,53.3,0,0,1-11.3,5.762,68.353,68.353,0,0,1-14.383,3.535,51.434,51.434,0,0,1-5.148.256c-11,.005-19.805-3.657-27.725-11.39-7.553-7.377-10.172-18.192-10.426-29.918-.146-6.762-.146-14.1-.466-21.456,0,0-6.149-35.558,40.866-35.558C230.311,32.747,217.984,79.351,217.984,79.351Z"/><path class="b" d="M115.3,152.566a116.6,116.6,0,0,1,14.951-7.46l15.647-6.889.075,3.671c.307,15.083,8.814,77.888,10.066,90.842h4.973c13-26.143,33.434-65.512,43.878-93.175,20.9,8.774,45.593,15.95,56.754,36.4,4.322,7.917,6.178,17.428,6.888,26.984.441,5.929.442,11.876.317,17.471a391.427,391.427,0,0,1-4.176,48.976H53.422c-4.43-16.747-8.43-31.969-12.557-48.441L78.2,209.4a2.156,2.156,0,0,1,3.3,1.594l4.47,12.283c1.859-13.452,2.905-27.28,7.137-40.269,3.345-10.266,8.845-20.092,17.216-26.911A48.953,48.953,0,0,1,115.3,152.566Z"/><path class="c" d="M196.161,121.847a55.85,55.85,0,0,0,.589,7.074,22.445,22.445,0,0,0,1.38,5.359c1.91,4.6,10.492,7.37,16.1,9.071"/><path class="c" d="M155.4,134.737c.055,3.346-3.528,5.224-6.355,6.195-4.039,1.781-12.187,4.177-16.494,5.885"/><path class="d" d="M132.391,151.151a101.132,101.132,0,0,0-7.618,10.518,2.346,2.346,0,0,0,0,2.422c2.541,3.41,4.878,6.971,7.483,10.333V171.03l-7.3,8.385c-.445.512-.939,1.008-1.334,1.56-.711.991-.462,1.954-.208,3.035l.891,3.8q2.483,10.588,4.963,21.176,1.383,5.906,2.765,11.81c.7,3.006,5.333,1.733,4.629-1.276q-4.415-18.864-8.841-37.725l-.617,2.335,8.447-9.7a2.493,2.493,0,0,0,0-3.394c.386.5-.236-.324-.354-.484q-.44-.6-.871-1.2-.987-1.368-1.962-2.745c-1.174-1.65-2.335-3.311-3.545-4.934v2.422a91.711,91.711,0,0,1,6.867-9.546,2.47,2.47,0,0,0,0-3.394,2.417,2.417,0,0,0-3.394,0Z"/><path class="d" d="M214.174,154.453a43.789,43.789,0,0,1,5.684,14.423l1.676-2.952c-4.01,1.6-8.13,2.941-12.042,4.788a2.421,2.421,0,0,0-.485,3.769c3.172,3.3,5.875,7.02,9.047,10.321l-.375-2.908c-9.131,12.946-17.57,26.361-26.566,39.4a2.422,2.422,0,0,0,.861,3.284,2.447,2.447,0,0,0,3.283-.861c9-13.038,17.435-26.454,26.567-39.4a2.422,2.422,0,0,0-.376-2.909c-3.172-3.3-5.875-7.02-9.047-10.321l-.486,3.769c3.534-1.668,7.272-2.853,10.9-4.3a2.489,2.489,0,0,0,1.677-2.953,47.674,47.674,0,0,0-6.168-15.57c-1.594-2.641-5.746-.231-4.145,2.423Z"/><path class="e" d="M158.159,172.247a25.581,25.581,0,0,0,.541-4.559c-.078-2.525-.581-7.711-.773-10.621,0,0-.02-.241-.048-.615,2.574-2.327,4.75-4.121,7.359-6.3.635-.531,1.429-1.112,2.211-.84a2.3,2.3,0,0,1,.911.707c2.543,2.858,4.791,5.444,7.012,8.33-.1.41-.169.717-.169.717-1.053,4.451-3.285,12.776-3.4,14.338-.14,1.977.015,21.526.879,30.96l.2,4.666c-4.273,8.542-8.346,16.608-11.873,23.7h-4.973c-.516-5.334-2.261-19.121-4.158-34.549l1.04-3.867C154.725,187.351,157.1,178.072,158.159,172.247Z"/><path class="d" d="M202,140.431c-4.641,12.045-10.022,23.8-15.549,35.46-5.912,12.469-12.067,24.821-18.255,37.155q-4.632,9.234-9.254,18.473l2.072-1.189h-4.973l2.4,2.4c-1.046-10.767-2.55-21.5-3.873-32.234-1.754-14.227-3.519-28.456-4.96-42.718-.533-5.276-1.118-10.584-1.233-15.89-.067-3.084-4.867-3.095-4.8,0,.1,4.539.565,9.078,1,13.593.655,6.729,1.413,13.448,2.193,20.163,1.64,14.107,3.42,28.2,5.148,42.294.6,4.926,1.24,9.852,1.72,14.792a2.455,2.455,0,0,0,2.4,2.4h4.973a2.377,2.377,0,0,0,2.073-1.188c5.754-11.571,11.606-23.092,17.335-34.674,6.17-12.474,12.238-25,17.9-37.719,2.917-6.55,5.729-13.15,8.308-19.842a2.419,2.419,0,0,0-1.676-2.952A2.456,2.456,0,0,0,202,140.431Z"/><path class="d" d="M157.591,159.977q2.731-2.554,5.582-4.975,1.3-1.1,2.607-2.189a15.583,15.583,0,0,0,1.249-1.035l.311-.193a4.929,4.929,0,0,1-.859-.081,6.4,6.4,0,0,0,.453.517,120.439,120.439,0,0,1,9.445,11.775,2.462,2.462,0,0,0,3.284.861,2.42,2.42,0,0,0,.861-3.283q-2.65-3.843-5.625-7.444-1.4-1.706-2.861-3.364a15.154,15.154,0,0,0-3.116-3.2c-3.058-1.853-6.067,1.653-8.2,3.445-2.224,1.871-4.406,3.789-6.529,5.775-2.261,2.114,1.138,5.5,3.394,3.394Z"/><path class="d" d="M155.527,157.067c.222,3.283.576,6.558.741,9.845a21.667,21.667,0,0,1-.7,6.145c-1.369,6.933-3.192,13.781-4.965,20.619-.776,2.993,3.852,4.269,4.628,1.276,1.8-6.936,3.656-13.884,5.025-20.921a29.663,29.663,0,0,0,.816-6.983c-.156-3.332-.522-6.653-.747-9.981a2.458,2.458,0,0,0-2.4-2.4,2.42,2.42,0,0,0-2.4,2.4Z"/><path class="d" d="M172.889,158.428c-.84,3.535-1.776,7.047-2.621,10.581a26.034,26.034,0,0,0-.9,5.794c-.071,6.073.079,12.156.288,18.224.13,3.782.288,7.568.628,11.337a2.464,2.464,0,0,0,2.4,2.4,2.417,2.417,0,0,0,2.4-2.4c-.613-6.8-.744-13.655-.857-20.479-.046-2.758-.079-5.517-.065-8.275,0-.673.041-1.35.033-2.022,0-.094.02-.188.019-.282.011.765-.032.217.023-.059.135-.665.276-1.328.429-1.99.894-3.865,1.932-7.694,2.85-11.553.713-3-3.914-4.285-4.629-1.276Z"/><path class="d" d="M159.272,171.352c3.611.328,7.23.6,10.847.845a2.412,2.412,0,0,0,2.4-2.4,2.456,2.456,0,0,0-2.4-2.4c-3.617-.249-7.236-.517-10.847-.845a2.41,2.41,0,0,0-2.4,2.4,2.463,2.463,0,0,0,2.4,2.4Z"/><path class="d" d="M147.668,143.586c1.416-1.829,2.835-3.657,4.349-5.406q1.077-1.244,2.211-2.436c.419-.441.872-.859,1.275-1.314s.372-.26-.091-.065c.266-.112.458.011-.164-.2-.675-.228-.252-.032,0,.244q.246.276.494.549.506.555,1.022,1.1,1.077,1.14,2.2,2.239c1.751,1.726,3.564,3.387,5.4,5.021a2.5,2.5,0,0,0,2.908.376,146.961,146.961,0,0,0,24.864-15.235q.735-.572,1.463-1.153a5.781,5.781,0,0,1,.627-.511c.574-.044,1.185.9,1.42,1.358.206.4.361.839.539,1.253l2.9,6.756,2.269,5.278a2.415,2.415,0,0,0,3.284.861,2.463,2.463,0,0,0,.861-3.284l-5.2-12.1c-1.206-2.805-3.8-5.658-7.193-4.766a9.257,9.257,0,0,0-3.267,2.057q-1.56,1.239-3.171,2.412-3.228,2.36-6.609,4.5a168.584,168.584,0,0,1-15.21,8.435l2.909.375c-2.086-1.857-4.142-3.748-6.111-5.729q-1.345-1.354-2.63-2.768a4.473,4.473,0,0,0-3.248-1.881c-2.8-.1-4.513,2.307-6.212,4.193-1.861,2.065-3.572,4.254-5.273,6.45a2.481,2.481,0,0,0,0,3.4,2.417,2.417,0,0,0,3.394,0Z"/><path class="a" d="M229.685,196.066c-14.911-3.816-53.6-12.334-66.432-15.224a2.821,2.821,0,0,0-3.362,2.129l-7.352,32.9-.265.925a53.363,53.363,0,0,1,5.273,3.183,97.017,97.017,0,0,1,8.642,5.73c5.639,4.22,9.807,6.451,12.9,12.689.729,1.468,3.9,3.62,6.114,4.9l2.231-1.58c4.516,1.482,33.3,6.345,35.445,6.022l.214-1.321.811-5.008c1.9-10.3,6.282-33.331,7.852-42.121A2.821,2.821,0,0,0,229.685,196.066Z"/><path class="a" d="M176.585,269.358a121.674,121.674,0,0,0,9.768-24.047,1.6,1.6,0,0,0-.777-1.8c-2.218-1.246-5.715-3.563-6.485-5.115-3.095-6.238-7.263-8.469-12.9-12.689a97.164,97.164,0,0,0-8.642-5.73c-1.877-1.145-5.164-3.657-7.423-3.849s-3.47-.129-4.752,1.759a3.877,3.877,0,0,0-.611,3.768,14.867,14.867,0,0,0,3.063,4.02c1.319,1.365,2.925,2.82,4.312,4.289a151.205,151.205,0,0,0-15.226-.756,6.874,6.874,0,0,0-3.837.968,6.8,6.8,0,0,0-2.2,2.609,5.256,5.256,0,0,0,0,4.191,11.422,11.422,0,0,0,3.317,4.209c-1.206,3.632-2.1,5.471-.907,9.161,1.351,4.17,2.116,9.39,4.828,13.244A10.288,10.288,0,0,0,141,266.5a11.66,11.66,0,0,0,3.49,1.2c7.115,1.038,16.829.591,23.566,1.37a33.879,33.879,0,0,1,5.919,2.116,1.612,1.612,0,0,0,2.031-.73Q176.3,269.907,176.585,269.358Z"/><path class="d" d="M155,229.572c-1.815-2.153-3.958-3.991-5.893-6.032-1.275-1.345-3.325-3.434-1.2-4.941.024-.016.438-.147.269-.121a6.508,6.508,0,0,1,1.584.019,7.527,7.527,0,0,1,2.527.989c2.042,1.149,3.983,2.507,5.974,3.744,3.915,2.431,7.626,5.161,11.323,7.908a29.4,29.4,0,0,1,4.571,4.081c1.492,1.692,2.253,3.843,3.694,5.538a22.043,22.043,0,0,0,5.419,4.181c.211.128.88.7,1.1.644-.544.133-.119-1.656-.473-.37-.083.3-.168.605-.255.907q-.544,1.888-1.175,3.752a123.05,123.05,0,0,1-6.519,15.469c-.194.391-1.757,3.939-2.009,3.905l.4-.3q.478-.036.151-.126c-.063-.109-.576-.239-.688-.286-.529-.22-1.057-.44-1.589-.652a20.86,20.86,0,0,0-6.48-1.427c-5.261-.39-10.544-.311-15.809-.63-2.47-.15-5.514-.077-7.707-1.4-2.232-1.347-3.474-4.283-4.277-6.636-.906-2.654-1.514-5.4-2.334-8.08a7.714,7.714,0,0,1-.384-3.67,29.616,29.616,0,0,1,1.291-4.215,2.328,2.328,0,0,0-.617-2.335c-1.3-1.01-3.084-2.807-3.049-4.592a3.426,3.426,0,0,1,2.936-3.218,36.52,36.52,0,0,1,7.028.04c2.62.1,5.236.27,7.847.5a2.418,2.418,0,0,0,2.4-2.4,2.45,2.45,0,0,0-2.4-2.4q-4.9-.43-9.811-.561c-2.867-.072-6.29-.469-8.836,1.153a8.258,8.258,0,0,0-3.93,7.527,11.338,11.338,0,0,0,4.421,7.346l-.618-2.335c-.974,2.91-1.884,5.624-1.338,8.729.252,1.437.789,2.834,1.172,4.242s.74,2.814,1.163,4.206a24.27,24.27,0,0,0,4.006,8.194,11.966,11.966,0,0,0,8.34,4.283c5.968.757,12.008.618,18.007.905a20.576,20.576,0,0,1,6.873,1.08c1.081.41,2.136.956,3.235,1.316a4.045,4.045,0,0,0,4.547-1.548,36.472,36.472,0,0,0,2.418-4.621q1.148-2.325,2.215-4.689c1.357-3.007,2.624-6.059,3.754-9.16q.765-2.1,1.437-4.236a16.794,16.794,0,0,0,1.1-4.29c.095-3.185-3.7-4.352-5.8-5.962a8.423,8.423,0,0,1-1.788-1.72,38.227,38.227,0,0,0-2.207-3.629,28.215,28.215,0,0,0-5.411-5.439,149.421,149.421,0,0,0-13.095-9.233c-2.6-1.609-5.12-3.532-7.969-4.673-2.559-1.025-6.029-1.044-8.109.986a7.5,7.5,0,0,0-2.312,4.847,7.708,7.708,0,0,0,2.037,5.008c2.233,2.839,5.128,5.066,7.453,7.824a2.419,2.419,0,0,0,3.394,0,2.451,2.451,0,0,0,0-3.394Z"/><path class="d" d="M154.853,216.506l4.853-21.712L162.05,184.3a4.64,4.64,0,0,1,.153-.682c.28-.7.781-.379,1.431-.233q3.326.747,6.653,1.488c12.786,2.853,25.575,5.7,38.343,8.639,5.745,1.322,11.49,2.654,17.215,4.065a13.927,13.927,0,0,1,3.2.8c.354.2.315.181.35.574-.021-.235-.067.332-.093.479l-.153.846q-.759,4.185-1.543,8.364c-2.234,12-4.694,23.966-6.645,36.013l-.4,2.445,2.315-1.762a15.907,15.907,0,0,1-3.858-.332c-.177-.023-.839-.112-.3-.038l-.908-.126q-.93-.13-1.86-.269-2.09-.31-4.174-.645c-5.947-.948-11.887-1.971-17.792-3.158a53.576,53.576,0,0,1-5.914-1.368c-2.947-.95-4.209,3.683-1.277,4.629,4.314,1.391,8.987,1.988,13.434,2.785,5.784,1.036,11.585,2.018,17.409,2.806a21.294,21.294,0,0,0,5.24.516,2.472,2.472,0,0,0,2.314-1.762c1.9-11.739,4.229-23.4,6.414-35.094q.885-4.737,1.759-9.476c.585-3.19,1.805-6.933-1.333-9.219A11.212,11.212,0,0,0,228,193.167q-1.86-.462-3.723-.91-4.405-1.064-8.822-2.087c-13.486-3.143-27-6.156-40.516-9.171l-7.716-1.723c-1-.224-2-.46-3-.674a5.4,5.4,0,0,0-5.787,1.942,8.515,8.515,0,0,0-1.212,3.38l-1.147,5.13-5.719,25.6-.13.581c-.673,3.009,3.954,4.294,4.628,1.276Z"/><path class="d" d="M213.593,145.665c15.682,6.243,33.369,12.937,43.412,27.354,5.325,7.645,7.744,16.782,8.76,25.948,1.132,10.213.835,20.57.361,30.815A387.575,387.575,0,0,1,262.4,268.44a2.479,2.479,0,0,0,1.676,2.952,2.418,2.418,0,0,0,2.953-1.676c1.76-11.936,3.014-23.943,3.693-35.989.6-10.711,1.02-21.551.088-32.255-.856-9.826-2.892-19.825-8.038-28.371-4.738-7.868-11.725-14.022-19.475-18.825-8.907-5.519-18.729-9.377-28.43-13.24a2.417,2.417,0,0,0-2.953,1.676,2.459,2.459,0,0,0,1.677,2.953Z"/><path class="d" d="M100.783,216.116q1.194,25.783,1.97,51.584c.093,3.082,4.893,3.1,4.8,0q-.777-25.8-1.97-51.584c-.143-3.076-4.943-3.094-4.8,0Z"/><path class="d" d="M95.227,241.7l-10.9-29.942c-.85-2.338-1.718-4.9-4.647-5.025a10.129,10.129,0,0,0-3.3.717L72.365,208.7l-15.124,4.674-17.014,5.259a2.448,2.448,0,0,0-1.676,2.952c4.055,16.181,8.291,32.315,12.557,48.441.79,2.984,5.421,1.718,4.629-1.276-4.267-16.126-8.5-32.26-12.558-48.441L41.5,223.256l27.884-8.618,7.09-2.191a18.9,18.9,0,0,0,3.1-.928c-.028.124-.556-.276-.565-.27s.165.325.171.347c.161.64.464,1.288.69,1.909l5.023,13.8,5.7,15.673a2.464,2.464,0,0,0,2.952,1.676,2.42,2.42,0,0,0,1.677-2.952Z"/><path class="a" d="M6.432,177.347a10.842,10.842,0,0,1,4.926-.076c.98.316,1.936.613,2.779.884.062-.42.111-.749.111-.749a3.636,3.636,0,0,1,1.637-2.762c1.694-1.29,4.242-.637,5.618-.256,4.886,1.354,24.746,8.936,31.309,12.958,2.259,1.384,6.332,1.493,10.275-1a72.446,72.446,0,0,1,1.428-8.115,6.778,6.778,0,0,1,3.982-5.149,5.069,5.069,0,0,1,4.365.47c1.245.807,1.939,2.846,2.286,4.289,2.336,9.706,3.19,10.569,4.106,19.949l.078.807-.671,6.375a23.3,23.3,0,0,1-6.821,14.089c-3.808,3.721-8.912,6.756-17.711,6.667-9.144-1.6-17.714-6.485-22.483-9.33-3.493-2.084-6.6-4.286-11.646-7.895-2.509-1.793-10.953-8.578-11.65-9.292-1.179-1.206-2.359-3.489-1.547-5.506a17.071,17.071,0,0,1-1.793-1.487,5.669,5.669,0,0,1-1.3-5.294c.048-.12.1-.236.155-.35-1.179-2-2.053-3.246-.969-6.118A5.049,5.049,0,0,1,6.432,177.347Z"/><path class="d" d="M65.408,186.94c.322-2.234.638-4.455,1.115-6.662.441-2.042,1.159-5.364,3.952-5.085,1.221.122,1.633.978,2,2.043a47.686,47.686,0,0,1,1.251,5.068c.78,3.429,1.507,6.873,2.105,10.34a45.252,45.252,0,0,1,.884,7.5,36.778,36.778,0,0,1-.528,5.385,21.428,21.428,0,0,1-8.579,14.008,19.736,19.736,0,0,1-6.578,3.052,23.4,23.4,0,0,1-4.29.677,16.158,16.158,0,0,1-5.425-.6,68.618,68.618,0,0,1-17-7.467A166.848,166.848,0,0,1,11,198.349c-1.055-.885-3.072-3.1-1.673-4.227,1.254-1.014,4.917,1.13,6.479,1.954A130.172,130.172,0,0,1,33.64,207.539a2.415,2.415,0,0,0,3.284-.861,2.46,2.46,0,0,0-.861-3.284,130.914,130.914,0,0,0-17.7-11.389c-2.6-1.379-5.643-3.084-8.676-2.867a6.088,6.088,0,0,0-5.274,7.956c.666,2.355,2.241,3.873,4.042,5.355q2.922,2.4,5.9,4.738A168.015,168.015,0,0,0,28.8,217.473a84.43,84.43,0,0,0,18.3,8.944,46.34,46.34,0,0,0,5.738,1.509,18.837,18.837,0,0,0,5.914-.064,25.693,25.693,0,0,0,9.275-2.92A26.079,26.079,0,0,0,80.21,209.526a41.727,41.727,0,0,0,1.136-7.257,34.28,34.28,0,0,0-.551-8.864c-.578-3.763-1.347-7.5-2.176-11.213-.763-3.425-1.188-8.31-4.3-10.531a7.525,7.525,0,0,0-9.956,1.528c-1.954,2.36-2.48,5.445-2.976,8.387-.229,1.358-.407,2.725-.6,4.088a2.481,2.481,0,0,0,1.676,2.952,2.416,2.416,0,0,0,2.952-1.676Z"/><path class="d" d="M8.015,191.638c-1.13-.863-2.408-2.051-2.1-3.654a2.427,2.427,0,0,1,2.267-1.843c1.852-.25,3.847.684,5.539,1.357a162.87,162.87,0,0,1,16.026,7.535,67.108,67.108,0,0,1,8.2,4.962,2.418,2.418,0,0,0,3.284-.861,2.457,2.457,0,0,0-.861-3.284c-5.608-4.12-12.155-7.137-18.462-10.012-2.763-1.259-5.552-2.5-8.4-3.544-2.986-1.095-6.532-1.568-9.307.345a6.931,6.931,0,0,0-3.06,6.351c.29,3.094,2.121,5.007,4.46,6.792a2.413,2.413,0,0,0,3.283-.861,2.458,2.458,0,0,0-.861-3.283Z"/><path class="d" d="M41.016,187.609a176.306,176.306,0,0,0-20.431-9.438c-5.357-2.21-13.245-6.207-18.3-1.133a8.491,8.491,0,0,0-2.28,5.424,9.075,9.075,0,0,0,1.651,5.113c1.57,2.657,5.721.245,4.145-2.423-.766-1.295-1.268-2.117-.758-3.606a2.846,2.846,0,0,1,2.312-1.961c3.093-.755,6.515.975,9.4,2.164,7.394,3.047,14.878,6.028,21.834,10,2.686,1.535,5.107-2.611,2.423-4.145Z"/><path class="d" d="M16.648,177.406c.139-1.327,2.208-1.177,3.148-.974a29.237,29.237,0,0,1,2.9.836c2.667.875,5.3,1.854,7.923,2.853a181.489,181.489,0,0,1,18.385,7.863,34.3,34.3,0,0,0,4.356,2.228,12.339,12.339,0,0,0,8.266-.463,2.47,2.47,0,0,0,1.676-2.952,2.417,2.417,0,0,0-2.952-1.676c-2,.774-4.361,1.27-6.329.153-1.112-.631-2.22-1.254-3.366-1.825-3.235-1.61-6.561-3.035-9.894-4.426A189.559,189.559,0,0,0,22.78,172.26a12.029,12.029,0,0,0-5.967-.6,6.417,6.417,0,0,0-4.965,5.749,2.416,2.416,0,0,0,2.4,2.4,2.455,2.455,0,0,0,2.4-2.4Z"/><path class="d" d="M36.908,207.153,48.367,196.74a2.417,2.417,0,0,0,0-3.394,2.452,2.452,0,0,0-3.394,0L33.514,203.759a2.417,2.417,0,0,0,0,3.394,2.454,2.454,0,0,0,3.394,0Z"/><path class="f" d="M180.39,2.415a57.46,57.46,0,0,0-28.631,8.009c-2.521,1.464-7.773,4.3-11.814,9.008a45.7,45.7,0,0,0-8.809,11.982,47.519,47.519,0,0,0-4.99,18.213,104.348,104.348,0,0,0,.246,18.742c.358-9.365,8.524-10.493,11.82-15.027,1.823-2.507,3.133-5.555,5.859-7.132a12.778,12.778,0,0,1,6.988-1.216c3.725.168,10.614.409,15.583,1.458a10.98,10.98,0,0,1,8.164-1.075c4.463,1.094,14.245,5.846,14.245,5.846,6.587,3.544,9.557,6.189,13.312,12.079a28.728,28.728,0,0,1,4.153,15.184c4,0,11.468.865,11.468.865a7.4,7.4,0,0,1,5.428-.7c3.6.874,4.757,3.061,5.192,4.295,3.394-6.113,6.315-12.766,7.13-19.92,2.43-21.3-1.987-29.787-12.487-41.073C214.74,8.786,201.482,4.131,188.1,2.764A66.8,66.8,0,0,0,180.39,2.415Z"/><path class="d" d="M167.28,44.138a83.373,83.373,0,0,0-12.372-1.365c-4.054-.214-8.574-.76-12.209,1.462a14.467,14.467,0,0,0-4.287,4.444c-.527.78-1.015,1.586-1.532,2.372a7.546,7.546,0,0,1-1.2,1.58c-1.741,1.8-4.148,3.05-6.29,4.81a14.582,14.582,0,0,0-5.318,9.836,2.413,2.413,0,0,0,2.4,2.4,2.46,2.46,0,0,0,2.4-2.4c.692-5.577,5.82-7.282,9.6-10.672,2.323-2.085,3.373-5.15,5.556-7.336,2.514-2.518,6.408-1.912,9.645-1.758A80.086,80.086,0,0,1,166,48.767a2.461,2.461,0,0,0,2.953-1.677,2.424,2.424,0,0,0-1.677-2.952Z"/><path class="d" d="M181.069,49.721c-.282-5.03-4.173-9.465-8.433-11.771a20.549,20.549,0,0,0-5.356-1.985A2.4,2.4,0,1,0,166,40.593a19.21,19.21,0,0,1,2.845.848c.109.042.218.086.326.13q-.458-.195-.095-.036c.2.1.412.189.616.291q.518.256,1.017.55.548.321,1.069.686a3.72,3.72,0,0,0,.5.363c-.284-.222-.327-.253-.128-.1.078.063.155.126.231.19a15.216,15.216,0,0,1,1.544,1.492c.121.136.24.273.356.413s.428.664.037.035c.157.253.354.486.518.735a14.72,14.72,0,0,1,.928,1.665c.265.547-.159-.441-.024-.066.036.1.078.2.115.3.093.254.177.513.248.774.066.242.115.486.164.732.107.538-.05-.583-.025-.206.007.109.019.219.025.329a2.4,2.4,0,0,0,4.8,0Z"/><path class="d" d="M208.916,78.486A32.371,32.371,0,0,0,202.7,59.535a35.749,35.749,0,0,0-12.442-10.384c-2.717-1.47-5.143,2.672-2.423,4.144,4.151,2.246,7.911,4.8,10.72,8.662a27.911,27.911,0,0,1,4.063,7.4,29.612,29.612,0,0,1,1.494,9.128c.046,3.086,4.846,3.095,4.8,0Z"/><path class="c" d="M224.454,24c6.579,7.066,9.476,14.791,11.055,24.073a45.818,45.818,0,0,1,.213,14.122c-.723,5.038-2.016,16.925-6.262,23"/><path class="c" d="M216.188,16.823C204.99,7.541,194.179,4.681,183.179,4.4c-17.431-.444-31.9,5.209-42.1,15.526C135.2,25.882,130.614,34.839,128.5,42.969a85.231,85.231,0,0,0-1.611,29.213"/><path class="d" d="M172.122,84.005c-.432-2.428.7-7.75,5.186-7.662,5.851.756,5.362,7.3,3.015,10.114C178.4,88.762,173.527,89.219,172.122,84.005Z"/><path class="d" d="M137.222,80.818c-.376-2.43.7-7.774,4.813-7.722,5.357.711,4.857,7.274,2.684,10.115C142.939,85.537,138.469,86.034,137.222,80.818Z"/><path class="d" d="M154.7,88.031c-.867,1.2-1.709,2.432-2.466,3.708a4.865,4.865,0,0,0-.705,1.664,3.474,3.474,0,0,0,.062,1.7,3.709,3.709,0,0,0,.944,1.467,4.883,4.883,0,0,0,1.927,1.167c.279.093.573.12.858.188a2.526,2.526,0,0,0,1.85-.242A2.4,2.4,0,0,0,156.6,93.3a7.389,7.389,0,0,1-1-.239l.573.242a2.454,2.454,0,0,1-.5-.3l.485.375a3.4,3.4,0,0,1-.457-.457l.375.485a.7.7,0,0,1-.095-.151l.242.573a1.025,1.025,0,0,1-.064-.249l.086.638a.94.94,0,0,1,0-.176l-.086.638a2,2,0,0,1,.122-.457l-.242.573a15.218,15.218,0,0,1,1.4-2.3c.458-.687.926-1.369,1.408-2.039a2.4,2.4,0,0,0-2.71-3.525,2.743,2.743,0,0,0-1.434,1.1Z"/><path class="d" d="M219.2,81.423a5.262,5.262,0,0,1,4.176-.3,5.484,5.484,0,0,1,1.637.794,3.95,3.95,0,0,1,.492.438,2.636,2.636,0,0,1,.314.361c.119.177.225.361.329.547.048.086.276.616.152.3s.1.35.133.454a7.079,7.079,0,0,1,.236,1.086,13.2,13.2,0,0,1-.172,3.867c-.965,5.3-4.371,10.865-9.468,13.082.441-.191-.218.06-.364.106-.349.11-.7.2-1.059.284a11.463,11.463,0,0,1-1.907.278,7.557,7.557,0,0,1-4.3-.779c-2.683-1.542-5.1,2.6-2.423,4.144,3.25,1.867,7.465,1.81,10.969.7,3.712-1.175,6.725-3.978,8.99-7.054a22.882,22.882,0,0,0,4.258-9.855c.535-3.272.617-7.056-1.426-9.865a10.3,10.3,0,0,0-12.986-2.738c-2.713,1.48-.293,5.626,2.423,4.145Z"/><path class="d" d="M153.883,110.479a17.205,17.205,0,0,0,11.279,1.812,23.434,23.434,0,0,0,3.815-1.348,2.453,2.453,0,0,0,1.676-2.953,2.428,2.428,0,0,0-2.952-1.676,27.449,27.449,0,0,1-3.474,1.278c-.1.023-.645.056-.693.129.041-.062.484-.05.095-.016-.155.013-.31.029-.465.039a14.955,14.955,0,0,1-1.64.015c-.264-.012-.526-.03-.789-.055-.131-.012-.263-.031-.394-.042.2.017.322.051.048.006-.548-.089-1.091-.194-1.629-.335a14.815,14.815,0,0,1-1.509-.487c-.3-.113-.057.025.084.035a1.325,1.325,0,0,1-.387-.185c-.219-.111-.433-.233-.643-.362a2.4,2.4,0,0,0-2.422,4.145Z"/><path class="d" d="M197.456,123.213c2.3-1.984,4.639-3.928,6.764-6.1a54.888,54.888,0,0,0,7.852-9.827,2.4,2.4,0,1,0-4.144-2.423,52.592,52.592,0,0,1-3.062,4.325c.627-.839-.006-.007-.14.157q-.69.838-1.4,1.66-1.3,1.5-2.691,2.911c-2.07,2.1-4.339,3.984-6.571,5.908a2.421,2.421,0,0,0,0,3.394,2.449,2.449,0,0,0,3.394,0Z"/><path class="d" d="M123.907,68.305c.343,8.047.127,16.121.569,24.161.381,6.933,1.647,13.89,4.729,20.162,5.892,11.989,18.867,19.62,31.936,20.69,8.178.67,16.274-.986,23.952-3.726a2.461,2.461,0,0,0,1.676-2.952,2.42,2.42,0,0,0-2.952-1.676,55.915,55.915,0,0,1-19.7,3.7,35.442,35.442,0,0,1-17.119-4.479,33.732,33.732,0,0,1-12.87-12.5c-3.009-5.41-4.3-11.658-4.755-17.781-.633-8.5-.3-17.082-.662-25.6-.131-3.077-4.931-3.094-4.8,0Z"/><path class="d" d="M223.668,18.365A44.21,44.21,0,0,0,200.217,2.591a67.161,67.161,0,0,0-29.8-1.624,63.84,63.84,0,0,0-25.66,10.988A52.289,52.289,0,0,0,134.7,21.624a48.1,48.1,0,0,0-6.9,11.287c-4.678,10.86-4.938,22.966-3.889,34.584a2.465,2.465,0,0,0,2.4,2.4,2.417,2.417,0,0,0,2.4-2.4c-.872-9.658-.993-19.857,2.112-29.154a47.28,47.28,0,0,1,13.789-20.2,52.994,52.994,0,0,1,9.5-6.294,56.4,56.4,0,0,1,13.322-5.333,60.819,60.819,0,0,1,27.728-.24c9.53,2.047,18.385,6.627,24.36,14.512a2.477,2.477,0,0,0,3.284.861,2.417,2.417,0,0,0,.861-3.283Z"/><path class="d" d="M232.382,80.941a57.359,57.359,0,0,0,5.077-13.681,70.5,70.5,0,0,0,1.32-13.646c.09-6.839-.907-13.641-3.906-19.838a46.371,46.371,0,0,0-5.79-8.793,2.416,2.416,0,0,0-3.394,0,2.456,2.456,0,0,0,0,3.394,35.6,35.6,0,0,1,7.283,14.312,43.227,43.227,0,0,1,1.01,9.433,70.782,70.782,0,0,1-.814,12.073,50.362,50.362,0,0,1-4.93,14.323c-1.382,2.754,2.757,5.187,4.144,2.423Z"/><path class="d" d="M89.475,214.778c2.006-16.063,4.2-32.848,13.3-46.669a46.445,46.445,0,0,1,16.392-15.043c4.753-2.661,9.78-4.783,14.76-6.975l10.52-4.632a2.416,2.416,0,0,0,.861-3.283,2.46,2.46,0,0,0-3.284-.861c-7.924,3.488-16.086,6.713-23.738,10.767a52.51,52.51,0,0,0-18.159,15.447,68.756,68.756,0,0,0-10.04,21.115c-2.906,9.811-4.152,20.011-5.416,30.134a2.412,2.412,0,0,0,2.4,2.4,2.46,2.46,0,0,0,2.4-2.4Z"/></svg>