<?xml version="1.0" encoding="UTF-8"?><svg id="b" xmlns="http://www.w3.org/2000/svg" width="417.754" height="307.24" viewBox="0 0 417.754 307.24"><defs><style>.e{fill:#fff;}.f{fill:#f8b8b4;}.g{fill:#211715;}.h{fill:#645d5c;}</style></defs><g id="c"><g id="d"><path class="e" d="M140.924,75.377c1.411-1.464,3.365-2.069,5.057-2.075,3.682-.012,5.322,1.917,6.04,3.059,2.143,3.408,2.305,9.833,1.109,13.859-.847,2.851-2.247,7.216-5.901,10.447-1.506,1.332-3.761,2.258-5.963,1.972,0,0-.211-.027-.582-.075-.606,2.32-1.377,4.6-1.858,5.711-1.367,4.201-9.213,19.003-19.642,25.158.166,3.065.413,5.523,1.061,8.258.415,2.05,1.889,3.459,3.346,4.431,2.46,1.638,7.4,2.879,11.371,3.569-.079.078-.119.122-.119.122-7.376,7.982-21.238,12.408-35.593,13.004-14.657.518-30.189-3.517-36.907-10.667,3.427-1.017,7.573-2.023,10.405-3.743,1.585-.962,3.195-3.399,3.598-5.441.203-1.646.162-6.116.06-7.912-4.643-2.187-8.908-5.617-13.03-10.183-5.685-6.296-9.048-13.184-10.98-18.924-2.308.691-4.862-.078-6.587-1.382-3.891-2.942-5.622-7.187-6.685-9.964-1.502-3.922-1.833-10.341.042-13.903.628-1.194,2.116-3.242,5.788-3.513,1.687-.124,3.682.329,5.201,1.681,0,0-7.619-42.896,45.721-42.896s45.05,39.409,45.05,39.409Z"/><path class="h" d="M146.307,38.583c-2.512-6.784-6.428-12.716-11.946-16.796l-6.276-6.095c-7.191-8.761-18.505-13.225-34.426-13.312-20.704.095-35.611,9.935-42.036,18.811l1.441,1.379c-13.556,12.711-17.824,34.681-10.232,55.022.61-.203,1.312-.349,2.12-.408,1.687-.124,3.682.329,5.201,1.681l7.02-6.37c5.21-6.275,14.467-15.788,21.074-19.583.775-.445,1.812.077,2.183,1.386.359,1.265.394,2.234.329,3.155-.099,1.399,1.292,2.36,2.415,1.678,4.711-2.859,13.08-8.57,19.063-11.366l9.06.761c2.951,1.151,5.207,2.279,8.507,4.905,5.655,4.5,11.152,10.76,13.701,16.519l7.418,5.427c1.411-1.465,3.365-2.069,5.057-2.075.927-.003,1.725.117,2.412.317,2.362-11.126,1.937-24.173-2.086-35.035Z"/><path class="g" d="M53.696,22.403c.946-1.295,2.5-3.016,3.936-4.37,1.606-1.515,3.313-2.874,5.135-4.11,4.5-3.051,9.465-5.33,14.683-6.845,6.241-1.811,12.707-2.501,19.194-2.229,5.744.241,11.487,1.157,16.865,3.248,5.03,1.955,9.44,5.141,12.88,9.291.828.999,2.538.856,3.394,0,.988-.988.83-2.393,0-3.394C122.197,4.842,110.634,1.065,99.112.194c-12.958-.979-26.36,1.717-37.422,8.704-4.67,2.949-8.875,6.612-12.139,11.082-.765,1.047-.177,2.676.861,3.284,1.215.711,2.517.189,3.284-.861h0Z"/><path class="g" d="M45.058,76.715c-5.088-13.957-5.04-30.119,2.46-43.232,1.959-3.425,4.377-6.504,7.243-9.216,2.248-2.127-1.15-5.517-3.394-3.394-11.531,10.91-16.111,27.517-14.269,43.025.573,4.82,1.668,9.531,3.331,14.093.444,1.217,1.63,2.04,2.952,1.676,1.174-.323,2.122-1.729,1.676-2.952h0Z"/><path class="g" d="M133.15,23.859c11.114,8.315,14.517,23.879,14.275,37.016-.074,3.985-.493,7.945-1.293,11.85-.26,1.269.368,2.593,1.676,2.952,1.187.326,2.691-.401,2.952-1.676,3.04-14.824,1.869-32.115-6.576-45.077-2.329-3.575-5.197-6.655-8.611-9.21-1.039-.777-2.682-.168-3.284.861-.717,1.226-.18,2.505.861,3.284h0Z"/><path class="g" d="M51.851,77.167c-3.156-2.631-7.51-3.132-11.193-1.245-2.627,1.346-4.142,4.034-4.735,6.838-1.414,6.68.502,14.161,4.511,19.64,2.901,3.965,6.995,6.875,12.108,5.985,1.278-.222,1.996-1.789,1.676-2.952-.371-1.35-1.671-1.899-2.952-1.676-3.503.609-6.334-2.947-7.879-5.602-1.499-2.576-2.625-5.408-2.973-8.418-.321-2.781-.336-6.117,1.234-8.514.094-.133.072-.11-.067.071.095-.117.193-.23.296-.339.081-.079.617-.559.467-.448.519-.384,1.081-.613,1.701-.769,1.489-.374,3.199-.188,4.411.822.995.829,2.419.975,3.394,0,.853-.853,1-2.56,0-3.394h0Z"/><path class="g" d="M142.621,77.074c2.071-2.015,5.506-1.703,7.153.226-.347-.406.116.177.175.272.215.341.417.705.571,1.079.26.629.429,1.317.575,1.98.363,1.645.43,3.345.352,5.025-.135,2.891-1.01,5.841-2.288,8.433-1.532,3.106-4.033,6.519-7.893,6.15-1.292-.124-2.4,1.192-2.4,2.4,0,1.401,1.104,2.276,2.4,2.4,7.988.764,12.501-7.99,14.263-14.48.948-3.49.974-7.322.267-10.857-.58-2.899-1.914-5.74-4.475-7.375-3.744-2.39-8.962-1.696-12.095,1.352-2.218,2.158,1.178,5.551,3.394,3.394h0Z"/><path class="g" d="M139.099,98.561c-.325,1.96-.832,3.889-1.421,5.786-.239.772-.492,1.54-.774,2.297-.06.162-.122.323-.184.484-.179.467.276-.715-.087.222-.096.247-.185.494-.279.741-.057.151-.117.302-.173.453-.035.094-.076.187-.113.28-.118.297.188-.431.053-.125-.213.483-.43.964-.658,1.44-.514,1.07-1.066,2.122-1.645,3.158-3.071,5.505-6.847,10.752-11.589,14.942-2.589,2.288-5.544,4.185-8.82,5.076-2.977.81-1.714,5.442,1.276,4.629,6.911-1.88,12.492-7.137,16.83-12.619,3.653-4.617,6.913-9.689,9.151-15.153.093-.226.185-.452.27-.681.037-.098.224-.671.106-.333-.169.483.136-.329.221-.538.077-.19.151-.38.223-.572.178-.473.343-.951.502-1.431.734-2.213,1.358-4.479,1.74-6.781.212-1.277-.335-2.584-1.676-2.952-1.149-.316-2.739.39-2.952,1.676h0Z"/><path class="g" d="M49.044,103.135c1.769,6.616,4.698,12.985,8.706,18.545,4.387,6.086,10.04,11.759,16.815,15.14,3.602,1.797,7.391,2.855,11.386,3.291,1.291.141,2.4-1.204,2.4-2.4,0-1.415-1.106-2.259-2.4-2.4-13.234-1.443-23.562-13.005-28.982-24.392-1.384-2.908-2.465-5.95-3.296-9.06-.797-2.981-5.429-1.716-4.629,1.276h0Z"/><path class="g" d="M92.897,115.361c.326-.188.653-.374.99-.543.111-.055.487-.309.602-.281-.327.136-.404.169-.232.1.072-.029.145-.057.217-.085.128-.048.258-.095.387-.139.643-.219,1.302-.389,1.969-.517.224-.043.448-.08.674-.116-.351.056.077-.009.216-.024.497-.053.995-.088,1.494-.107.902-.035,1.807-.017,2.706.075.205.021.486.072.125.011.2.034.401.066.6.106.301.06.6.13.896.213.284.08.562.176.84.273.415.145.019-.067-.113-.056.066-.006.29.133.35.163.334.166.654.356.956.573,1.023.736,2.717.211,3.284-.861.656-1.241.23-2.499-.861-3.284-2.451-1.763-5.862-2.124-8.782-2.014-3.099.117-6.05.811-8.74,2.366-1.087.629-1.561,2.198-.861,3.284.707,1.097,2.12,1.534,3.284.861h0Z"/><path class="g" d="M97.355,92.469c.226.744.435,1.494.635,2.245.208.786.438,1.588.549,2.395l-.086-.638c.018.162.024.321.01.483l.086-.638c-.015.101-.036.193-.072.289l.242-.573c-.032.068-.065.123-.109.183l.375-.486c-.031.038-.065.071-.104.101l.486-.375c-.139.098-.289.175-.443.247l.573-.242c-.189.079-.377.136-.579.168l.638-.086c-.206.024-.408.019-.613-.005l.638.086c-.384-.052-.764-.121-1.15-.158-.578-.055-1.302.308-1.697.703-.416.416-.73,1.099-.703,1.697.028.621.232,1.264.703,1.697.494.453,1.031.639,1.697.703.036.003.072.007.108.012l-.638-.086c.476.065.955.182,1.437.169.794-.022,1.495-.233,2.195-.604.802-.425,1.439-1.192,1.634-2.089.171-.783.083-1.499-.08-2.275-.298-1.416-.682-2.816-1.102-4.2-.178-.587-.568-1.121-1.103-1.434-.514-.301-1.273-.429-1.849-.242-1.211.392-2.067,1.666-1.676,2.952h0Z"/><path class="g" d="M73.182,80.699c-.658,2.471.048,8.071,4.693,8.371,6.114-.272,6.178-7.077,3.997-10.191-1.786-2.55-6.784-3.447-8.69,1.82Z"/><path class="g" d="M122.154,78.818c.846,2.413.572,8.05-4.037,8.706-6.117.198-6.703-6.582-4.768-9.855,1.585-2.68,6.499-3.957,8.804,1.149Z"/><path class="g" d="M72.138,66.153c-.413.457-.897.849-1.382,1.226l.486-.375c-1.105.853-2.3,1.706-3.59,2.258l.573-.242c-.124.052-.249.099-.378.135-.583.165-1.128.579-1.434,1.103-.301.514-.429,1.273-.242,1.849.398,1.231,1.658,2.042,2.952,1.676,1.182-.334,2.297-1.055,3.303-1.739.674-.458,1.326-.95,1.962-1.459.401-.321.799-.656,1.144-1.039.426-.472.703-1.049.703-1.697,0-.589-.261-1.292-.703-1.697-.457-.42-1.058-.732-1.697-.703-.617.028-1.27.23-1.697.703h0Z"/><path class="g" d="M74.008,135.017c.103,1.972.112,3.957.058,5.931-.013.469-.03.939-.063,1.407-.011.154-.014.322-.041.474.117-.651-.126.251-.168.374-.288.852-.93,1.886-1.614,2.584-.175.179-.358.365-.559.515.303-.226-.438.24-.513.282-.451.253-.917.481-1.389.692-.32.143-.921.374-1.459.566-.622.222-1.249.427-1.879.624-2.31.72-4.667,1.295-6.951,2.098-1.222.43-2.037,1.64-1.676,2.952.326,1.185,1.724,2.108,2.952,1.676,2.552-.898,5.194-1.514,7.764-2.358,2.55-.837,5.423-1.816,7.286-3.846,1.91-2.081,2.97-4.588,3.089-7.395.092-2.186.079-4.392-.036-6.577-.068-1.295-1.055-2.4-2.4-2.4-1.247,0-2.468,1.099-2.4,2.4h0Z"/><path class="g" d="M137.741,147.707c-.559-.07.305.049-.23-.029-.232-.034-.464-.067-.696-.103-.539-.083-1.076-.173-1.613-.27-1.07-.193-2.135-.412-3.193-.66-1.113-.261-2.22-.554-3.311-.897-.494-.156-.986-.321-1.472-.502-.231-.086-.461-.173-.688-.267.363.15-.222-.103-.283-.131-1.6-.75-3.055-1.739-3.549-3.228-.81-2.441-.94-5.139-1.094-7.685-.078-1.294-1.047-2.4-2.4-2.4-1.239,0-2.479,1.1-2.4,2.4.183,3.021.338,6.357,1.358,9.233.885,2.495,2.932,4.451,5.264,5.632,4.376,2.216,9.483,3.1,14.307,3.707,1.288.162,2.4-1.219,2.4-2.4,0-1.432-1.108-2.238-2.4-2.4h0Z"/><path class="g" d="M110.661,50.839c4.492,1.765,8.249,4.681,11.686,8.026,3.66,3.562,6.975,7.611,9.087,12.295.533,1.182,2.249,1.466,3.284.861,1.216-.711,1.396-2.097.861-3.284-2.315-5.135-6.084-9.665-10.122-13.541-4.005-3.845-8.344-6.952-13.52-8.986-1.207-.474-2.635.52-2.952,1.676-.374,1.361.465,2.476,1.676,2.952h0Z"/><path class="g" d="M58.871,74.191c5.167-6.203,10.926-12.36,17.459-17.144.691-.506,1.396-.994,2.119-1.453.152-.096.966-.451,1.01-.611-.042.155-1.47.147-1.35-.097.006-.012.063.316.067.279-.037.334.184.845.203,1.217.023.471-.042.94-.014,1.41.08,1.351.784,2.619,1.933,3.352,2.037,1.299,3.944.164,5.713-.946,1.653-1.036,3.293-2.092,4.941-3.137,4.058-2.572,8.147-5.17,12.498-7.225,1.172-.553,1.474-2.235.861-3.284-.702-1.2-2.107-1.417-3.284-.861-3.883,1.834-7.551,4.111-11.182,6.394-1.723,1.083-3.435,2.183-5.154,3.272-.748.474-1.498.947-2.253,1.411-.064.039-.476.265-.475.29-.006-.254,1.006.127,1.018.131.089.023.074.319.178.264.092-.049.025-.794.023-.887-.048-2.283-.717-5.179-3.165-5.993-2.017-.671-3.727.653-5.302,1.752-3.51,2.449-6.727,5.321-9.793,8.299-3.319,3.224-6.484,6.618-9.446,10.174-.829.995-.975,2.419,0,3.394.853.853,2.561,1.001,3.394,0h0Z"/><path class="e" d="M134.588,298.455c-2.779-.128-5.601-.28-8.51-.434-10.24-.54-20.98-1.31-30.71-2.649-18.511,4.703-38.418,8.2-54.174,9.429-6.112.477-20.753-.84-27.403-7.694-5.93-6.112-8.94-13.685-9.875-19.928-1.947-12.996-1.609-23.892-1.163-32.559,1.111-21.596,2.259-35.178,8.329-57.013,3.541-8.736,7.604-14.828,14.333-19.471,8.904-6.144,18.28-10.651,36.476-16.485,6.451,7.46,22.362,11.695,37.356,11.165,14.736-.611,28.952-5.259,36.159-13.652,11.053,2.406,22.425,5.165,32.241,10.878,4.08,2.38,7.48,4.69,10.67,8.24,3.03,3.35,5.59,7.13,7.71,11.12,6.44,12.17,8.18,25.83,9.72,39.36,1.51,13.31,1.81,26.77,1.17,40.15-.5,10.44-1.78,17.06-6.28,25.11-3.67,6.57-14.45,12.76-23.89,13.79-11.71,1.282-21.629,1.13-32.16.644Z"/><path class="h" d="M374.774,163.124c8.742,3.699,19.338-1.181,22.722-9.913,2.772-7.156.404-16.776-1.343-24.248-3.011-12.876-3.767-25.819-3.177-39.009.692-7.594.686-16.645.635-20.437-.177-13.147-5.22-28.109-13.228-36.728-3.189-3.432-4.264-5.146-7.433-7.258,0,0-1.835-1.223-3.67-2.445l-3.685-1.75c-6.85-3.252-14.047-5.565-24.426-6.168-17.017-.99-32.672,6.895-39.768,12.939-11.771,10.026-19.977,29.112-20.649,56.05-1.06,18.222-3.318,31.276-5.845,38.627-1.72,5.029-3.431,13.472-3.785,18.663-.501,7.541,7.312,18.507,20.639,17.085l83.014,4.592Z"/><path class="e" d="M294.031,81.935c.072.058.143.119.213.181.835-.607,1.735-1.262,2.562-1.865,1.633-1.189,2.983-2.171,2.983-2.171,8.491-6.16,17.708-13.936,26.155-21.32-.504,2.838-1.972,7.654-2.336,10.599-.146,1.184.083,1.61.96,2.09.682.294,1.709.213,2.412.029,11.941-3.129,22.103-9.841,29.936-19.241,1.224,6.136,3.017,13.783,4.745,17.561,4.274,9.345,11.979,17.456,19.096,20.088,1.473-1.249,3.376-1.635,4.975-1.479,3.479.339,4.845,2.317,5.415,3.464,1.701,3.423,1.242,9.509-.271,13.197-1.072,2.612-2.809,6.603-6.569,9.308-1.549,1.115-3.768,1.775-5.821,1.295l-.542-.127c-.794,2.134-1.739,4.214-2.3,5.218-1.428,3.241-7.94,13.183-16.216,19.102.033,2.2-.029,3.071.18,5.925.096,1.315.198,2.735.685,4.018.653,1.686,1.532,3.147,2.945,4.287,2.993,2.411,6.068,3.563,9.857,4.988l3.459,1.362c-9.958,5.173-25.025,9.683-39.248,9.718-13.202.052-30.511-4.502-39.788-9.687l3.539-1.393c3.788-1.425,6.864-2.577,9.857-4.988,1.413-1.14,2.292-2.601,2.945-4.287.487-1.283.589-2.703.685-4.018.189-2.583.156-3.541.171-5.329-4.419-2.514-8.306-6.277-11.927-11.202-4.771-6.489-7.293-13.315-8.572-18.922-2.246.433-4.586-.537-6.091-1.933-3.396-3.149-4.627-7.324-5.367-10.049-1.045-3.848-.748-9.943,1.363-13.13.707-1.068,2.308-2.861,5.802-2.768,1.356.036,2.88.483,4.108,1.477Z"/><path class="g" d="M375.628,112.906c-1.598,4.239-3.797,8.098-6.488,11.735-3.212,4.341-7.158,8.629-11.715,11.7-2.581,1.739-5.344,3.074-8.432,3.591-1.279.214-1.994,1.795-1.676,2.952.373,1.356,1.669,1.891,2.952,1.676,6.225-1.043,11.668-5.108,16.075-9.423,3.88-3.799,7.373-8.175,10.142-12.852,1.517-2.562,2.723-5.323,3.771-8.103.457-1.213-.508-2.631-1.676-2.952-1.347-.37-2.493.459-2.952,1.676h0Z"/><path class="g" d="M291.25,105.618c1.083,6.662,3.42,13.165,6.883,18.962,3.558,5.958,8.33,11.551,14.242,15.276,3.018,1.902,6.391,3.255,9.879,3.995,3.013.639,4.301-3.987,1.276-4.629-7.552-1.603-13.477-6.377-18.1-12.412-5.033-6.57-8.227-14.318-9.551-22.469-.208-1.28-1.799-1.993-2.952-1.676-1.361.374-1.885,1.668-1.676,2.952h0Z"/><path class="g" d="M329.781,122.725c.146-.067.294-.132.44-.2.352-.162-.169.09-.24.1.094-.013.232-.093.321-.127.46-.174.931-.317,1.409-.433.309-.074.62-.128.932-.189.459-.09-.286.021.032-.009.172-.016.343-.038.516-.052.89-.075,1.784-.078,2.676-.03.424.023.847.059,1.269.108-.469-.055.245.041.276.046.176.03.352.064.527.1.634.132,1.26.304,1.866.531.075.028.149.056.222.086.172.069.097.037-.224-.095.077-.012.255.118.32.15.209.103.414.213.613.333.154.093.301.195.451.295.463.308-.49-.417-.009.001.946.824,2.476,1,3.394,0,.829-.904,1.011-2.514,0-3.394-2.331-2.029-5.425-2.742-8.441-2.946-3.074-.207-5.987.294-8.773,1.578-1.144.527-1.516,2.267-.861,3.284.76,1.18,2.06,1.425,3.284.861h0Z"/><path class="g" d="M334.217,100.326c-.413,1.286-.795,2.588-1.094,3.906-.117.513-.238,1.05-.201,1.578.078,1.115.553,2.049,1.508,2.663.673.433,1.401.63,2.188.704.476.045.962-.063,1.429-.129l-.638.086c.069-.009.138-.017.208-.023.645-.052,1.227-.233,1.697-.703.416-.416.73-1.099.703-1.697-.028-.621-.232-1.264-.703-1.697-.448-.411-1.068-.753-1.697-.703-.339.027-.674.085-1.011.132l.638-.086c-.234.031-.462.042-.697.01l.638.086c-.16-.028-.311-.072-.463-.131l.573.242c-.176-.077-.346-.165-.501-.278l.486.375c-.036-.029-.068-.062-.097-.098l.375.486c-.041-.058-.071-.111-.101-.176l.242.573c-.024-.068-.041-.132-.054-.203l.086.638c-.023-.179-.015-.352.007-.531l-.086.638c.117-.764.347-1.522.557-2.265.201-.711.411-1.419.636-2.122.384-1.196-.449-2.673-1.676-2.952-1.313-.299-2.541.396-2.952,1.676h0Z"/><path class="g" d="M314.19,88.022c-.857,2.272-.723,7.629,3.637,8.355,5.802.325,6.51-6.097,4.746-9.247-1.444-2.579-6.08-3.902-8.383.892Z"/><path class="g" d="M360.631,90.905c.569,2.36-.226,7.659-4.642,7.84-5.797-.395-5.706-6.856-3.566-9.763,1.752-2.38,6.516-3.12,8.208,1.923Z"/><path class="g" d="M382.453,89.582c1.153-.912,2.796-.971,4.153-.583.445.127,1.176.499,1.326.616.193.15.357.335.53.506.407.404-.107-.207.163.193,1.496,2.217,1.389,5.468,1.027,8.009-.413,2.9-1.456,5.38-2.943,7.851-1.515,2.517-4.262,5.835-7.587,5.183-1.271-.249-2.591.36-2.952,1.676-.324,1.178.398,2.702,1.676,2.952,7.932,1.555,13.016-6.159,15.459-12.576,2.037-5.349,2.503-13.952-2.669-17.728-3.49-2.548-8.302-2.085-11.578.506-1.018.805-.842,2.553,0,3.394,1.005,1.005,2.374.807,3.394,0h0Z"/><path class="g" d="M296.373,80.843c-2.718-2.76-7.004-3.542-10.56-2.026-2.679,1.142-4.269,3.513-5.133,6.216-1.961,6.136-.72,13.334,2.445,18.859,2.201,3.842,5.899,7.246,10.615,6.918,1.293-.09,2.4-1.039,2.4-2.4,0-1.229-1.1-2.491-2.4-2.4-3.653.254-5.974-3.181-7.297-6.162-1.094-2.465-1.81-5.2-1.866-7.898-.032-1.563.082-3.118.452-4.64.148-.609.317-1.232.571-1.806.166-.374.382-.717.593-1.067.055-.091.404-.502.057-.097.749-.876,1.423-1.328,2.716-1.47,1.52-.166,2.941.279,4.012,1.367,2.171,2.205,5.564-1.19,3.394-3.394h0Z"/><path class="g" d="M354.707,51.403c1.626,8.007,3.393,16.002,7.803,22.995,4.201,6.661,10.111,12.953,17.608,15.801,1.212.46,2.632-.51,2.952-1.676.371-1.35-.46-2.49-1.676-2.952-6.501-2.47-11.677-8.528-15.184-14.314-3.863-6.376-5.379-13.762-6.875-21.13-.258-1.271-1.764-2.003-2.952-1.676-1.322.363-1.935,1.678-1.676,2.952h0Z"/><path class="g" d="M355.178,48.588c-5.413,6.441-12.007,11.709-19.639,15.286-1.857.87-3.766,1.615-5.713,2.258-1.021.337-2.052.655-3.092.926.022-.006-1.177.235-1.152.182.087-.185.351.786.387.803-.393-.185.884-4.637,1.023-5.201.444-1.809.929-3.612,1.267-5.446.437-2.373-2.148-3.963-4.011-2.335-8.314,7.263-16.735,14.448-25.669,20.945-1.047.761-1.562,2.086-.861,3.284.604,1.033,2.23,1.628,3.284.861,9.266-6.738,18.018-14.162,26.641-21.695l-4.011-2.335c-.62,3.363-1.725,6.625-2.252,10.006-.306,1.963-.285,3.814,1.488,5.071,1.72,1.22,3.834.859,5.731.326,7.481-2.1,14.447-5.678,20.571-10.445,3.455-2.689,6.589-5.748,9.405-9.099.833-.992.972-2.422,0-3.394-.856-.856-2.556-.997-3.394,0h0Z"/><path class="g" d="M390.575,89.955c-.594,13.649.364,27.257,3.48,40.576,2.216,9.472,5.303,22.27-4.382,28.719-4.277,2.848-9.487,3.519-14.262,1.56-1.2-.492-2.638.534-2.952,1.676-.378,1.377.472,2.458,1.676,2.952,10.236,4.2,22.481-1.987,25.93-12.301,1.986-5.938,1.011-12.583-.201-18.572-1.366-6.754-3.05-13.375-3.811-20.243-.895-8.09-1.033-16.24-.68-24.367.134-3.089-4.666-3.082-4.8,0h0Z"/><path class="g" d="M371.737,27.604c1.605,1.087,2.942,2.418,4.23,3.858,1.486,1.661,3.055,3.274,4.435,5.026,2.676,3.396,4.776,7.342,6.37,11.351,1.77,4.45,3.032,9.108,3.781,13.838.628,3.971.69,7.971.676,11.981-.02,5.436-.171,10.881-.653,16.297-.115,1.293,1.186,2.4,2.4,2.4,1.394,0,2.284-1.104,2.4-2.4.452-5.072.61-10.169.648-15.259.032-4.325-.045-8.608-.636-12.9-1.32-9.578-4.641-19.4-10.447-27.217-1.639-2.207-3.519-4.197-5.344-6.248-1.644-1.848-3.38-3.479-5.435-4.871-2.565-1.737-4.969,2.42-2.423,4.145h0Z"/><path class="g" d="M366.804,19.265c-8.51-4.02-17.563-6.267-26.989-6.556-9.962-.306-19.929,2.214-28.866,6.533-6.416,3.1-12.225,7.261-16.727,12.821-4.843,5.981-8.294,12.91-10.736,20.187-3.439,10.248-4.849,21.135-5.135,31.908-.082,3.09,4.718,3.088,4.8,0,.43-16.2,3.466-33.464,13.102-46.905,3.703-5.165,8.401-9.142,13.982-12.241,7.723-4.289,16.505-7.012,25.345-7.459,9.906-.502,19.857,1.633,28.802,5.858,1.171.553,2.589.326,3.284-.861.61-1.044.316-2.728-.861-3.284h0Z"/><path class="g" d="M278.351,84.157c-.438,7.43-1.075,14.865-2.205,22.225-.778,5.068-1.726,10.166-3.316,15.051-1.996,6.13-3.413,12.497-4.019,18.923-.478,5.064,1.467,9.853,4.769,13.651,4.509,5.185,11.411,7.59,18.18,6.925,1.29-.127,2.4-1.012,2.4-2.4,0-1.2-1.102-2.527-2.4-2.4-5.341.524-10.501-.997-14.211-4.888-1.402-1.47-2.683-3.496-3.3-5.22-.782-2.187-.856-3.459-.624-5.83.581-5.938,1.989-11.823,3.832-17.485,1.499-4.605,2.42-9.401,3.179-14.176,1.283-8.071,2.033-16.221,2.513-24.376.182-3.086-4.619-3.075-4.8,0h0Z"/><path class="g" d="M359.214,82.285c.679.931,1.419,1.818,2.252,2.615.48.459.995.872,1.529,1.269.482.359.978.59,1.541.812.319.1.638.114.957.043.319-.014.617-.109.892-.285.498-.291.973-.862,1.103-1.434.14-.614.11-1.304-.242-1.849l-.375-.486c-.299-.297-.652-.503-1.059-.617-.024-.009-.047-.019-.071-.028l.573.242c-.37-.16-.704-.392-1.022-.637l.486.375c-.972-.758-1.834-1.678-2.587-2.651l.375.486c-.07-.091-.139-.183-.207-.277-.151-.28-.357-.504-.618-.673-.232-.212-.504-.355-.816-.43-.574-.158-1.339-.087-1.849.242-.512.33-.964.822-1.103,1.434-.135.593-.132,1.336.242,1.849h0Z"/><path class="g" d="M312.311,139.005c-.007,1.245-.024,2.488-.098,3.731-.088,1.48-.114,3.05-.668,4.446-1.102,2.776-3.601,4.304-6.19,5.567-3.247,1.585-6.764,2.738-10.127,4.062-1.205.474-2.046,1.607-1.676,2.952.316,1.148,1.739,2.154,2.952,1.676,4.032-1.587,8.29-2.94,12.115-4.974,1.581-.84,3.16-1.86,4.467-3.09,1.363-1.281,2.282-2.916,2.968-4.635,1.186-2.973,1.04-6.572,1.057-9.736.016-3.089-4.784-3.093-4.8,0h0Z"/><path class="g" d="M357.038,139.005c.017,3.164-.129,6.763,1.057,9.736.686,1.72,1.605,3.354,2.968,4.635,1.308,1.229,2.886,2.249,4.467,3.09,3.825,2.033,8.083,3.386,12.115,4.974,1.206.475,2.635-.521,2.952-1.676.374-1.362-.465-2.476-1.676-2.952-3.364-1.324-6.881-2.477-10.127-4.062-2.58-1.259-5.101-2.792-6.19-5.567-.55-1.401-.58-2.962-.668-4.446-.074-1.243-.092-2.486-.098-3.731-.016-3.088-4.816-3.094-4.8,0h0Z"/><path class="f" d="M415.35,199.128c.056,15.14-.936,32.722-4.491,48.667-2.573,11.54-6.85,23.705-15.556,32.167-8.25,8.018-22.49,8.778-32.04,4.881-9.066-3.629-13.538-10.474-16.194-16.647-1.789-4.159-3.449-8.953-4.968-14.025-4.255,1.391-8.71,2.169-13.185,2.304l-1.649.088c1.217,6.143,3.974,22.367,5.135,33.399-13.099,3.723-28.188,5.981-42.462,7.152-11.985.984-24.397.606-32.957-9.405-7.904-9.244-8.802-22.289-8.919-33.911-.112-11.116.479-22.252,1.295-33.335.913-12.394,5.968-32.614,12.841-42.968,7.256-10.931,18.968-14.559,31.261-18.568,1.443-.413,2.406-.688,2.406-.688.539-.154.912-.197,1.071-.095,9.121,5.323,26.886,10.072,40.368,10.019,15.041-.037,31.026-5.078,40.914-10.617,10.324,3.304,18.196,6.948,24.658,13.306,5.638,6.188,11.648,14.216,12.473,28.277"/><path class="e" d="M343.496,258.623c-.478-1.453-.943-2.94-1.395-4.451-4.256,1.389-8.711,2.167-13.185,2.302l-1.656.05c1.018,5.133,3.13,17.417,4.47,27.768,5.279-.05,10.549-.14,15.818-.221,2.116-.033,5.676-.715,9.531-2.64-5.083-3.729-8.044-8.667-10.01-13.236-1.256-2.919-2.448-6.152-3.572-9.572Z"/><path class="g" d="M298.958,154.554c-14.084,4.925-29.857,8.376-38.721,21.564-3.823,5.688-6.257,12.383-8.253,18.896-2.132,6.957-3.691,14.099-4.605,21.318-1.118,8.832-1.39,17.865-1.622,26.758-.223,8.557-.332,17.225.917,25.716,1.137,7.734,3.83,15.344,9.151,21.21,5.212,5.745,12.372,8.605,19.947,9.51,7.885.942,15.984-.061,23.825-.967,9.156-1.058,18.284-2.511,27.249-4.666,2.075-.499,4.14-1.039,6.194-1.619.926-.262,1.872-1.278,1.762-2.314-.765-7.204-1.845-14.378-3.012-21.526-.786-4.816-1.498-9.691-2.617-14.444-.217-.923-1.312-1.88-2.314-1.762-14.407,1.69-28.871,2.982-43.33,4.13-1.292.103-2.4,1.03-2.4,2.4,0,1.219,1.101,2.503,2.4,2.4,14.459-1.148,28.923-2.44,43.33-4.13l-2.314-1.762c1.092,4.64,1.79,9.397,2.56,14.097,1.121,6.841,2.165,13.703,2.897,20.597l1.762-2.314c-8.326,2.353-16.839,4.008-25.399,5.241-7.95,1.145-16.077,2.172-24.12,2.189-6.79.014-13.672-1.073-19.317-5.091-5.879-4.184-9.159-10.974-10.758-17.834-1.736-7.451-1.762-15.223-1.714-22.834.059-9.465.575-18.921,1.267-28.358.474-6.474,1.717-12.881,3.339-19.161,1.702-6.591,3.81-13.198,6.965-19.251,3.081-5.91,7.497-10.542,13.286-13.859,6.15-3.524,13.006-5.553,19.705-7.746,1.744-.571,3.485-1.151,5.217-1.757,1.223-.428,2.036-1.642,1.676-2.952-.326-1.187-1.723-2.106-2.952-1.676h0Z"/><path class="g" d="M276.112,211.649c1.868,15.642,3.761,31.282,5.553,46.933.148,1.288.997,2.4,2.4,2.4,1.183,0,2.548-1.104,2.4-2.4-1.793-15.651-3.685-31.29-5.553-46.933-.154-1.287-.993-2.4-2.4-2.4-1.178,0-2.555,1.104-2.4,2.4h0Z"/><path class="g" d="M375.378,156.353c-9.767,5.049-20.865,8.159-31.808,9.12-10.567.928-21.142-.683-31.279-3.669-4.877-1.437-9.729-3.181-14.144-5.733-2.679-1.549-5.099,2.597-2.423,4.145,4.147,2.398,8.693,4.141,13.248,5.591,5.28,1.681,10.706,2.943,16.186,3.76,5.514.822,11.047,1.203,16.617.843,6.166-.399,12.302-1.478,18.262-3.098,6.12-1.664,12.125-3.9,17.763-6.814,2.745-1.419.32-5.562-2.423-4.145h0Z"/><path class="g" d="M331.788,286.691c4.697-.046,9.393-.121,14.09-.194,4.054-.063,7.68-.873,11.402-2.513,1.186-.523,1.462-2.256.861-3.284-.715-1.223-2.093-1.386-3.284-.861-1.693.747-3.494,1.299-5.315,1.633-1.471.27-3.072.216-4.619.24-4.378.068-8.756.137-13.135.179-3.087.03-3.095,4.83,0,4.8h0Z"/><path class="g" d="M328.916,258.874c4.634-.152,9.256-.926,13.673-2.339,1.194-.382,2.087-1.684,1.676-2.952-.387-1.196-1.672-2.086-2.952-1.676-2.069.662-4.177,1.189-6.317,1.565-.525.092-1.051.174-1.578.25.436-.062-.329.04-.337.041-.285.034-.57.065-.855.094-1.101.111-2.204.181-3.31.217-1.253.041-2.459,1.074-2.4,2.4.057,1.265,1.056,2.444,2.4,2.4h0Z"/><path class="g" d="M417.75,199.128c-.606-9.632-3.812-18.398-9.775-25.983-2.557-3.253-5.403-6.054-8.764-8.483-3.632-2.625-7.641-4.622-11.77-6.332-5.369-2.224-10.953-3.89-16.537-5.475-2.977-.845-4.247,3.785-1.276,4.629,8.733,2.479,17.69,5.095,25.366,10.093,6.212,4.044,11.116,9.913,14.295,16.573,2.232,4.675,3.335,9.829,3.66,14.979.081,1.294,1.045,2.4,2.4,2.4,1.236,0,2.482-1.1,2.4-2.4h0Z"/><path class="e" d="M119.24,270.768c-2.243-8.706-4.882-18.487-6.651-24.325,6.98-3.21,10.432-4.143,17.161-6.086,5.52-1.594,11.417-3.261,19.024-3.261,5.059,0,10.472,2.19,14.226,3.511l1.137.4c-.963,10.261-2.042,20.261-3.016,27.399l-1.112,1s-4.217,3.793-7.341,4.4c-4.611.896-27.31,2.492-31.502.363,0,0-.452-.229-1.212-.615-.232-.912-.471-1.843-.714-2.786Z"/><path class="e" d="M29.927,231.733c-.138-.244-.263-.493-.374-.746-.686-1.561-.216-3.141.596-4.063.799-.907,2.472-1.765,4.38-1.443,0,0,.558.058,1.227.132-.506-.593-.929-1.198-1.237-1.852-.904-1.92-.454-3.912.711-5.203,1.001-1.108,2.941-1.562,4.567-1.386,1.722.186,3.638,1.075,5.153,2.415,7.487,6.628,21.267,20.066,28.229,27.087,0,0,1.344,1.29,2.771,2.621-15.039,2.613-30.379,5.289-37.541,6.613l-.714-.891c-2.222-2.773-4.087-5.31-6.481-8.384-.753-.968-1.549-1.941-1.93-3.107s-.176-2.988.644-3.9c1.533-1.707,3.542-1.399,6.262-.913-1.106-1.137-2.212-2.274-3.331-3.393-1.18-1.18-2.22-2.328-2.93-3.587Z"/><path class="g" d="M158.312,267.71c-1.636,1.463-3.774,3.213-6.147,3.753-.347.079-.699.127-1.05.183-.098.016-.196.028-.294.042-.321.048.498-.063.16-.021-.265.033-.53.067-.795.098-1.16.136-2.323.249-3.487.35-6.07.53-12.204.861-18.297.67-1.381-.043-2.762-.122-4.135-.282-.464-.054-.017-.003.065.01-.178-.027-.356-.054-.533-.085-.241-.043-.482-.089-.72-.145-.209-.049-.412-.114-.62-.167-.08-.021-.16-.067-.241-.082-.401-.073.523.241.16.065-1.165-.566-2.594-.318-3.284.861-.616,1.053-.31,2.715.861,3.284,2.091,1.016,4.546,1.144,6.831,1.273,3.171.178,6.356.13,9.529.023,5.547-.187,11.308-.343,16.778-1.378,3.22-.609,6.22-2.916,8.613-5.057,2.307-2.064-1.097-5.449-3.394-3.394h0Z"/><path class="g" d="M115.467,247.762c3.521-1.552,7.133-2.812,10.821-3.902,3.854-1.14,7.719-2.318,11.649-3.172,4.114-.894,8.535-1.52,12.747-1.095,4.031.407,7.89,1.987,11.678,3.328,1.222.433,2.626-.49,2.952-1.676.365-1.327-.45-2.518-1.676-2.952-4.173-1.477-8.306-3.012-12.741-3.478-4.562-.48-9.382.22-13.845,1.162-4.066.858-8.058,2.078-12.04,3.256-4.092,1.21-8.063,2.665-11.968,4.386-1.186.523-1.462,2.256-.861,3.284.715,1.223,2.093,1.386,3.284.861h0Z"/><path class="g" d="M74.875,244.977c-7.448-7.506-15.033-14.889-22.766-22.101-3.703-3.453-7.839-8.409-13.388-8.131-3.305.166-6.306,2.131-6.936,5.539-.648,3.506,1.383,6.276,3.772,8.582,5.052,4.876,10.032,9.826,15.075,14.712,2.22,2.151,5.618-1.24,3.394-3.394-3.984-3.86-7.932-7.756-11.888-11.644-1.002-.985-2.021-1.949-3.035-2.921-.887-.851-1.932-1.76-2.443-2.909-.994-2.236,1.183-3.458,3.136-3.139,2.122.347,3.675,1.895,5.198,3.274,1.631,1.477,3.243,2.974,4.848,4.479,3.688,3.46,7.333,6.964,10.957,10.491,3.587,3.491,7.156,7.002,10.682,10.555,2.179,2.196,5.573-1.198,3.394-3.394h0Z"/><path class="g" d="M34.528,223.08c-2.78-.36-5.871,1.049-7.08,3.65-1.475,3.171.069,6.153,2.138,8.603,1.958,2.318,4.248,4.408,6.368,6.579,2.159,2.21,4.344,4.395,6.643,6.459s5.699-1.325,3.394-3.394c-3.702-3.323-7.092-6.963-10.586-10.498-.822-.832-1.671-1.644-2.425-2.541-.522-.62-1.234-1.48-1.35-2.31-.223-1.592,1.619-1.914,2.899-1.749,1.288.167,2.4-1.222,2.4-2.4,0-1.435-1.108-2.233-2.4-2.4h0Z"/><path class="g" d="M34.615,236.054c-2.326-.304-4.729.057-6.385,1.875-1.559,1.712-1.95,4.498-1.112,6.631.916,2.33,2.768,4.238,4.273,6.209,1.522,1.993,3.04,3.988,4.606,5.946.81,1.013,2.549.845,3.394,0,1.001-1.001.812-2.378,0-3.394-1.189-1.487-2.177-2.776-3.325-4.279-1.236-1.62-2.636-3.311-3.724-4.865-.23-.328-.529-.776-.656-1.052.003.006-.114-.341-.144-.425-.15-.414-.015.188-.029-.091-.01-.187-.007-.371-.011-.559-.008-.441-.047.098.007-.154.039-.185.089-.361.139-.544-.083.306-.041.069.061-.109.179-.31-.416.439.084-.097.283-.303-.042.007.135-.127.146-.111.422-.234.096-.099.165-.068.341-.099.511-.152.245-.076-.331-.012.122-.023.193-.005.385-.015.579-.011.463.009.922.06,1.38.12,1.287.169,2.4-1.224,2.4-2.4,0-1.437-1.109-2.231-2.4-2.4h0Z"/><path class="g" d="M164.35,206.926c-.961,19.127-2.727,38.291-5.085,57.295-.439,3.536-.849,6.87-1.571,10.622-.244,1.272.357,2.59,1.676,2.952,1.175.323,2.706-.397,2.952-1.676,1.494-7.772,2.241-15.72,3.069-23.583,1.085-10.306,2.017-20.63,2.802-30.963.371-4.879.71-9.761.956-14.647.155-3.087-4.645-3.079-4.8,0h0Z"/><path class="g" d="M67.137,147.498c-13.545,4.144-27.325,8.641-39.393,16.231-2.723,1.712-5.411,3.523-7.785,5.703-2.736,2.514-5.043,5.505-6.937,8.696-2.176,3.666-3.93,7.569-5.029,11.684-1.191,4.459-2.269,8.949-3.185,13.473-1.654,8.172-2.725,16.447-3.409,24.754S.199,244.64.042,252.943c-.166,8.787.11,17.878,1.849,26.516.777,3.86,2.205,7.624,4.099,11.072,1.943,3.538,4.487,7.136,7.663,9.671,5.493,4.383,12.757,6.054,19.607,6.784,6.369.678,12.705-.136,19.028-.934,16.94-2.138,33.753-5.561,50.216-10.083,3.998-1.098,7.976-2.27,11.924-3.534,1.816-.582,3.626-1.183,5.428-1.808,2.077-.72,4.458-1.271,5.257-3.598.509-1.483.027-2.962-.32-4.423-.31-1.304-.627-2.605-.947-3.906-.783-3.176-1.589-6.347-2.408-9.514-1.691-6.538-3.423-13.069-5.285-19.561-.365-1.272-.735-2.541-1.119-3.807-.479-1.58-.893-3.22-2.374-4.176-2.094-1.352-5.145-.265-7.441.138-11.344,1.989-22.694,3.946-34.041,5.92-10.668,1.855-21.341,3.69-31.993,5.637-1.327.243-2.655.487-3.979.746-1.273.249-2.001,1.77-1.676,2.952.365,1.329,1.676,1.926,2.952,1.676,8.474-1.657,16.999-3.073,25.504-4.558,11.758-2.054,23.519-4.088,35.279-6.133,2.414-.42,4.828-.84,7.241-1.262,1.802-.315,3.865-.412,5.602-.984.332-.109.172.031.152-.025.107.303-.411-.254-.329-.256-.123.004-.017-.216,0,.066.032.518.357,1.149.508,1.647.372,1.23.732,2.463,1.086,3.698.85,2.964,1.668,5.936,2.472,8.913,1.723,6.378,3.387,12.772,4.979,19.184.327,1.315.65,2.632.966,3.95.128.532.255,1.065.38,1.598.057.243.114.487.171.731.059.256.2.72.091.179-.056-.279.358-.222-.254-.072-.41.101-.821.291-1.221.431-.947.331-1.896.655-2.848.974-1.776.595-3.559,1.168-5.348,1.724-15.721,4.883-31.859,8.552-48.103,11.204-7.249,1.183-14.571,2.228-21.905,2.705-5.669.369-11.542-.44-16.931-2.197-2.754-.898-5.569-2.151-7.734-4.095-2.887-2.594-5.133-5.978-6.844-9.438-3.583-7.249-4.082-15.67-4.437-23.618-.351-7.856.027-15.702.469-23.545.453-8.034,1.006-16.079,2.134-24.05,1.188-8.391,2.986-16.676,5.186-24.858,1.854-6.895,5.851-13.667,11.258-18.378,4.06-3.538,9.043-6.282,13.834-8.693,5.844-2.941,11.964-5.281,18.143-7.411,4.117-1.419,8.267-2.738,12.431-4.012,2.945-.901,1.689-5.536-1.276-4.629h0Z"/><path class="g" d="M131.89,150.855c8.565,1.844,17.18,3.708,25.374,6.874,7.682,2.968,15.153,7.204,20.507,13.566,11.544,13.718,13.992,32.208,15.79,49.414,1.003,9.593,1.384,19.247,1.248,28.89-.115,8.148-.124,16.633-2.484,24.507-.984,3.284-2.363,6.59-4.226,9.479-1.814,2.812-4.626,4.992-7.441,6.731-3.332,2.059-6.959,3.606-10.771,4.516-4.171.996-8.595,1.14-12.864,1.355-8.791.442-17.585.126-26.368-.326-9.326-.48-18.652-1.01-27.94-2-2.239-.239-4.477-.5-6.708-.805-1.283-.175-2.577.31-2.952,1.676-.308,1.12.384,2.776,1.676,2.952,9.772,1.335,19.607,2.088,29.452,2.633,9.13.505,18.276,1.031,27.423.856,9.057-.173,18.338-.479,26.727-4.21,3.643-1.62,7.093-3.78,10.049-6.465,2.795-2.539,4.687-5.62,6.245-9.03,3.413-7.468,4.375-15.407,4.736-23.538.446-10.043.359-20.114-.375-30.142-.697-9.533-1.764-19.172-3.673-28.544-1.834-9.001-4.847-17.842-9.876-25.583-2.435-3.748-5.282-7.364-8.701-10.265-3.323-2.819-7.095-5.144-10.975-7.112-8.167-4.144-17.051-6.582-25.944-8.601-2.214-.503-4.433-.981-6.653-1.459-3.012-.648-4.299,3.978-1.276,4.629h0Z"/><path class="e" d="M369.736,161.332c1.222-1.776,2.313-3.488,3.303-5.371.499-.948.968-1.936,1.417-3.003,2.988-9.69,4.813-26.244,5.238-34.882.098-2,.108-2.689-.482-4.277-.475-1.277-2.558-2.66-4.12-2.51-3.077.296-3.996,2.292-4.353,4.158-.14.731-.295,1.846-.401,2.737l-.065-.079c-.545-.665-1.983-2.243-4.095-2.043-2.331.215-3.837,1.979-4.395,4.742-.841,4.248-2.563,11.361-4.053,16.922.085-1.922.135-3.715.195-5.877.025-.91-.169-1.995-.528-2.832s-1.006-1.464-1.889-1.687c-1.209-.306-2.911.511-3.597,1.783-.587,1.088-.859,2.744-1.041,4.177-.518,4.073-1.501,8.087-2.925,11.938-2.881,6.805-11.209,15.501-12.249,21.037-.581,3.09-.074,5.601.337,8.33.416,2.763,1.288,5.749,1.423,9.22.447,6.721.687,10.758.981,17.144,9.281-1.768,19.538-3.757,28.331-5.313-2.439-5.379-5.218-12.296-4.798-16.215.28-5.87,1.69-9.59,4.75-13.85,1.09-1.521,2.092-2.903,3.017-4.249Z"/><path class="g" d="M360.37,137.135c1.256-4.777,2.449-9.578,3.465-14.412.175-.835.391-2.077.643-2.644.089-.202.202-.393.314-.582.051-.086.335-.466.14-.229.147-.179.331-.366.514-.51-.302.239.249-.126.3-.152-.388.199.83-.19.433-.142.473-.056.73-.009,1.03.127.287.13.529.335.642.44.26.242.499.5.726.773.83.997,2.536.858,3.394,0,.987-.987.832-2.395,0-3.394-1.719-2.066-4.263-3.141-6.934-2.587-2.734.567-4.572,2.9-5.346,5.462-.754,2.496-1.128,5.157-1.729,7.697-.702,2.969-1.443,5.928-2.219,8.878-.786,2.99,3.843,4.266,4.629,1.276h0Z"/><path class="g" d="M376.77,153.594c1.856-6.085,2.855-12.434,3.701-18.727.798-5.939,1.576-11.994,1.67-17.994.054-3.449-1.509-6.423-4.86-7.64-3.071-1.116-6.754.529-8.141,3.431-.615,1.288-.821,2.639-1.012,4.041-.083.605-.215,1.73-.258,2.081-.026.209-.152,1.038-.221,1.502-.407,2.731-.825,5.461-1.255,8.189-.955,6.07-1.854,12.183-3.205,18.181-.677,3.009,3.949,4.293,4.629,1.276,1.067-4.74,1.818-9.559,2.594-14.353.808-4.987,1.71-9.992,2.277-15.013.121-1.071.237-2.178.535-3.217.222-.775.437-1.254,1.407-1.55,2.302-.703,2.747,1.883,2.699,3.436-.166,5.4-.775,10.815-1.466,16.169-.821,6.353-1.85,12.773-3.723,18.911-.903,2.961,3.728,4.227,4.629,1.276h0Z"/><path class="g" d="M340.828,200.961c-.385-8.448-.579-16.963-2.181-25.279-.663-3.438-1.423-7.435-.059-10.678,1.206-2.869,3.318-5.706,5.144-8.336,2.272-3.273,4.689-6.55,6.279-10.226.514-1.189.352-2.574-.861-3.284-1.014-.593-2.766-.335-3.284.861-2.832,6.545-8.123,11.661-11.193,18.068-1.842,3.844-1.784,7.716-1.155,11.864.307,2.027.729,4.026,1.094,6.042.395,2.187.486,4.395.628,6.61.306,4.783.571,9.568.789,14.356.14,3.076,4.941,3.093,4.8,0h0Z"/><path class="g" d="M368.841,194.44c-1.592-3.521-3.127-7.129-4.043-10.895-.772-3.176-.473-6.521.396-9.66.98-3.54,3.112-6.399,5.214-9.349,2.345-3.291,4.531-6.646,6.123-10.374.508-1.191.356-2.572-.861-3.284-1.009-.59-2.772-.338-3.284.861-1.711,4.008-4.119,7.578-6.647,11.106-2.327,3.248-4.402,6.525-5.354,10.458-.918,3.792-1.14,7.714-.216,11.517,1.012,4.163,2.767,8.15,4.526,12.041.534,1.181,2.248,1.467,3.284.861,1.215-.711,1.397-2.098.861-3.284h0Z"/><path class="g" d="M350.257,145.866c1.184-3.233,2.076-6.564,2.637-9.962.272-1.652.336-3.02.762-4.626.048-.185.102-.369.161-.551.109-.287.127-.347.052-.178.069-.15.148-.294.237-.433-.132.16-.101.134.093-.08.213-.192.245-.222.096-.09.138-.09.282-.172.43-.245-.485.215.608-.218.238-.051-.166.023-.124.029.126.017-.298-.047-.292-.031.016.046-.209-.079-.189-.052.059.082-.186-.126-.175-.094.033.097-.063-.235.048.177.081.29.059.2.206.771.212.811.188,1.327-.017,2.789-.06,4.124-.096,2.936-.259,5.867-.475,8.797-.096,1.294,1.172,2.4,2.4,2.4,1.378,0,2.304-1.102,2.4-2.4.198-2.673.354-5.347.449-8.025.099-2.777.528-5.884-.898-8.413-1.643-2.913-5.343-3.284-7.879-1.345-2.555,1.954-2.642,5.251-3.106,8.167-.558,3.511-1.468,6.953-2.69,10.29-.446,1.217.5,2.629,1.676,2.952,1.338.368,2.505-.455,2.952-1.676h0Z"/><path class="g" d="M412.95,199.128c.052,16.973-.973,34.198-5.038,50.731-1.796,7.302-4.267,14.507-8.286,20.905-1.944,3.095-4.259,6.054-7.048,8.437-2.374,2.028-5.289,3.417-8.268,4.294-6.073,1.788-12.774,1.656-18.775-.361-6.266-2.106-11.228-6.487-14.452-12.205-2.886-5.119-4.693-10.904-6.41-16.543-1.967-6.458-3.606-13.015-5.075-19.603-2.263-10.145-4.181-20.394-5.624-30.69-.026-.186-.144-1.052-.086-.621.055.41-.05-.388-.073-.567l-1.762,2.314c13.107-2.693,26.199-5.469,39.345-7.968l-2.952-1.676c3.401,11.459,6.996,22.858,10.26,34.357.842,2.967,5.475,1.706,4.629-1.276-3.264-11.499-6.859-22.899-10.26-34.357-.391-1.317-1.654-1.923-2.952-1.676-13.146,2.499-26.238,5.275-39.345,7.968-.919.189-1.886,1.334-1.762,2.314,1.242,9.808,3.056,19.568,5.103,29.236,1.458,6.884,3.089,13.738,5.034,20.502,1.792,6.231,3.778,12.524,6.581,18.386,3.009,6.292,7.769,11.713,14.057,14.868,6.412,3.218,13.744,4.226,20.826,3.261,7.39-1.006,13.844-4.342,18.735-9.994,5.358-6.192,8.884-13.693,11.349-21.449,2.615-8.227,4.123-16.789,5.203-25.34,1.122-8.891,1.657-17.852,1.807-26.81.036-2.146.048-4.292.041-6.439-.009-3.088-4.809-3.094-4.8,0h0Z"/><path class="g" d="M61.066,154.278c3.339,3.263,7.569,5.414,11.906,7.029,5.207,1.94,10.716,3.008,16.232,3.57,11.159,1.137,23.053-.133,33.484-4.385,5.133-2.092,10.031-4.905,13.85-8.983,2.11-2.253-1.277-5.655-3.394-3.394-6.512,6.953-16.367,10.036-25.523,11.493-10.201,1.624-20.967,1.04-30.841-2.062-4.439-1.394-8.953-3.371-12.321-6.662-2.211-2.16-5.608,1.231-3.394,3.394h0Z"/></g></g></svg>